<?xml version="1.0" encoding="UTF-8"?>
<svg width="689.78" height="99.502" overflow="hidden" version="1.1" xmlns="http://www.w3.org/2000/svg" xmlns:cc="http://creativecommons.org/ns#" xmlns:dc="http://purl.org/dc/elements/1.1/" xmlns:rdf="http://www.w3.org/1999/02/22-rdf-syntax-ns#">
 <metadata>
  <rdf:RDF>
   <cc:Work rdf:about="">
    <dc:format>image/svg+xml</dc:format>
    <dc:type rdf:resource="http://purl.org/dc/dcmitype/StillImage"/>
    <dc:title/>
   </cc:Work>
  </rdf:RDF>
 </metadata>
 <defs>
  <clipPath id="clip1">
   <rect x="296" y="239" width="96" height="96"/>
  </clipPath>
  <clipPath id="clip2">
   <rect x="296" y="239" width="96" height="96"/>
  </clipPath>
  <clipPath id="clip3">
   <rect x="296" y="239" width="96" height="96"/>
  </clipPath>
  <clipPath id="clip4">
   <rect x="442" y="239" width="96" height="96"/>
  </clipPath>
  <clipPath id="clip5">
   <rect x="442" y="239" width="96" height="96"/>
  </clipPath>
  <clipPath id="clip6">
   <rect x="442" y="239" width="96" height="96"/>
  </clipPath>
  <clipPath id="clip7">
   <rect x="594" y="224" width="137" height="137"/>
  </clipPath>
  <clipPath id="clip8">
   <rect x="594" y="224" width="137" height="137"/>
  </clipPath>
  <clipPath id="clip9">
   <rect x="594" y="224" width="137" height="137"/>
  </clipPath>
  <clipPath id="clip13">
   <rect x="758" y="250" width="96" height="96"/>
  </clipPath>
  <clipPath id="clip14">
   <rect x="758" y="250" width="96" height="96"/>
  </clipPath>
  <clipPath id="clip15">
   <rect x="758" y="250" width="96" height="96"/>
  </clipPath>
  <clipPath id="clipPath102">
   <rect x="130.64" y="239.5" width="702.1" height="103.22"/>
  </clipPath>
  <clipPath>
   <rect x="130.64" y="369.5" width="702.1" height="103.22"/>
  </clipPath>
 </defs>
 <g transform="translate(-136.22 -239.5)">
  <g clip-path="url(#clipPath102)">
   <g clip-path="url(#clip1)">
    <g clip-path="url(#clip2)">
     <g clip-path="url(#clip3)">
      <path d="m344 325.3c-6.5 0-12.2-4.6-13.6-10.9-1.5-6.4 1.7-12.9 7.6-15.7v-44c0-3.3 2.7-6 6-6s6 2.7 6 6v44c5.9 2.8 9 9.3 7.6 15.7-1.5 6.3-7.1 10.8-13.6 10.9zm12-30v-40.6c0-6.6-5.4-12-12-12s-12 5.3-12 12v40.6c-6.9 5.2-9.7 14.2-7 22.3 2.7 8.2 10.4 13.7 19 13.7s16.3-5.5 19-13.7c2.7-8.1-0.1-17.1-7-22.3z"/>
      <path d="m346 301.5v-24.2h-4v24.2c-5 1-8.5 5.7-7.9 10.8 0.5 5.1 4.8 9 9.9 9s9.4-3.9 9.9-9c0.6-5.1-2.9-9.8-7.9-10.8z"/>
     </g>
    </g>
   </g>
   <g clip-path="url(#clip4)">
    <g clip-path="url(#clip5)">
     <g clip-path="url(#clip6)">
      <path d="m488 269.1v4c0.7 0 1.3-0.1 2-0.1s1.3 0 2 0.1v-4c3.9 0.2 7.6 1 11 2.3l-1.5 3.6c1.3 0.5 2.5 1 3.7 1.6l1.5-3.7c1.9 0.9 3.6 2 5.3 3.2l4.3-4.3c-7.3-5.5-16.4-8.8-26.3-8.8-24.3 0-44 19.7-44 44v4h6v-4c0-4.1 0.7-8.1 1.9-11.8l3.7 1.5c0.4-1.3 0.9-2.5 1.4-3.7l-3.7-1.5c1.5-3.4 3.6-6.6 6-9.3l2.8 2.8c0.9-1 1.8-2 2.8-2.9l-2.8-2.8c2.7-2.5 5.8-4.7 9.2-6.4l1.5 3.7c1.2-0.6 2.4-1.1 3.7-1.6l-1.5-3.7c3.4-1.3 7.1-2 11-2.2z"/>
      <path d="m526.1 281.8-4.3 4.3c1.1 1.7 2.1 3.5 2.9 5.3l-3.7 1.6c0.5 1.2 1 2.5 1.4 3.7l3.7-1.5c1.2 3.7 1.9 7.7 1.9 11.8v4h6v-4c0-9.4-2.9-18-7.9-25.2z"/>
      <path d="m487.2 305.2c-0.2 0.1-0.3 0.3-0.5 0.5-1.4 1.7-1.2 4.2 0.5 5.7 1.7 1.4 4.2 1.2 5.7-0.5l31.1-36.9z"/>
     </g>
    </g>
   </g>
   <g clip-path="url(#clip7)">
    <g clip-path="url(#clip8)">
     <g clip-path="url(#clip9)">
      <path d="m715.3 285.79h8.563v13.272h-8.563z"/>
      <path d="m686.76 285.79h8.563v13.272h-8.563z"/>
      <path d="m601.14 285.79h8.563v13.272h-8.563z"/>
      <path d="m701.03 279.23h8.563v26.687h-8.563z"/>
      <path d="m672.49 279.23h8.562v26.687h-8.562z"/>
      <path d="m615.41 279.23h8.563v26.687h-8.563z"/>
      <path d="m658.22 272.52h8.562v39.958h-8.562z"/>
      <path d="m629.68 265.81h8.563v53.23h-8.563z"/>
      <path d="m643.95 252.54h8.562v79.916h-8.562z"/>
     </g>
    </g>
   </g>
   <g clip-path="url(#clip13)">
    <g clip-path="url(#clip14)">
     <g clip-path="url(#clip15)">
      <path d="m792 339 11-37h-17l8.42-44.76h25.16l-10.58 32.76h17z"/>
     </g>
    </g>
   </g>
   <g transform="translate(0,-130)" aria-label="VibrationTemperaturePressureSound">
    <path d="m164.21 364.77q-0.0312 0.0859-0.0859 0.14063-0.0547 0.0547-0.15625 0.0859-0.0937 0.0312-0.25 0.0391-0.14844 0.0156-0.375 0.0156-0.17188 0-0.30469-8e-3 -0.125 0-0.21875-0.0156-0.0937-0.0156-0.16406-0.0312-0.0625-0.0234-0.10938-0.0547-0.0469-0.0312-0.0781-0.0703-0.0234-0.0469-0.0469-0.10938l-3.3047-9.3906q-0.0625-0.17188-0.0703-0.27344 0-0.10938 0.0703-0.16406 0.0703-0.0547 0.22656-0.0703 0.15625-0.0156 0.42187-0.0156 0.21875 0 0.34375 0.0156 0.13282 8e-3 0.20313 0.0391 0.0703 0.0312 0.10156 0.0859 0.0391 0.0469 0.0703 0.125l2.8984 8.5078h8e-3l2.8203-8.4922q0.0234-0.0859 0.0547-0.14063 0.0312-0.0547 0.10938-0.0859 0.0781-0.0312 0.21875-0.0391 0.14062-0.0156 0.375-0.0156 0.24219 0 0.38281 0.0234 0.14063 0.0156 0.1875 0.0703 0.0547 0.0547 0.0391 0.16406-8e-3 0.10156-0.0703 0.27344z"/>
    <path d="m170.36 364.8q0 0.0625-0.0312 0.10937-0.0312 0.0391-0.10156 0.0703-0.0703 0.0312-0.19531 0.0469-0.125 0.0156-0.32031 0.0156-0.1875 0-0.3125-0.0156t-0.20313-0.0469q-0.0703-0.0312-0.10156-0.0703-0.0234-0.0469-0.0234-0.10937v-7.0312q0-0.0547 0.0234-0.10157 0.0312-0.0469 0.10156-0.0781 0.0781-0.0312 0.20313-0.0469 0.125-0.0156 0.3125-0.0156 0.19531 0 0.32031 0.0156t0.19531 0.0469q0.0703 0.0312 0.10156 0.0781 0.0312 0.0469 0.0312 0.10157zm0.14844-9.4062q0 0.45312-0.17187 0.61718-0.17188 0.16407-0.63282 0.16407-0.45312 0-0.625-0.15625-0.16406-0.16407-0.16406-0.60938 0-0.45312 0.17188-0.61719 0.17187-0.16406 0.63281-0.16406 0.45312 0 0.61719 0.16406 0.17187 0.15625 0.17187 0.60157z"/>
    <path d="m179.23 361.2q0 0.91406-0.20312 1.6484-0.19532 0.72656-0.58594 1.2422-0.38281 0.51562-0.94531 0.78906t-1.2891 0.27344q-0.33593 0-0.625-0.0703-0.28125-0.0625-0.55468-0.21093-0.27344-0.14844-0.54688-0.375-0.27344-0.22657-0.57812-0.54688v0.85938q0 0.0625-0.0312 0.10937-0.0312 0.0469-0.10157 0.0781-0.0703 0.0234-0.17968 0.0391-0.10157 0.0156-0.26563 0.0156-0.15625 0-0.26562-0.0156-0.10938-0.0156-0.17969-0.0391-0.0703-0.0312-0.0937-0.0781t-0.0234-0.10937v-10.438q0-0.0625 0.0234-0.10938 0.0312-0.0469 0.10156-0.0781 0.0781-0.0312 0.20313-0.0469 0.125-0.0156 0.3125-0.0156 0.19531 0 0.32031 0.0156t0.19531 0.0469q0.0703 0.0312 0.10156 0.0781 0.0312 0.0469 0.0312 0.10938v4.2109q0.3125-0.32031 0.60157-0.53906 0.29687-0.21875 0.57812-0.35156 0.28125-0.14063 0.5625-0.20313t0.59375-0.0625q0.76563 0 1.3047 0.30469 0.54687 0.30469 0.88281 0.82031 0.34375 0.50782 0.5 1.1953t0.15625 1.4531zm-1.3594 0.14844q0-0.53906-0.0859-1.0469-0.0781-0.50781-0.28125-0.89843-0.20313-0.39063-0.53906-0.625-0.33594-0.24219-0.83594-0.24219-0.25 0-0.49219 0.0703t-0.49219 0.23438q-0.25 0.16406-0.52343 0.42187-0.26563 0.25781-0.57032 0.64844v2.8047q0.53125 0.64843 1.0156 0.99218 0.48437 0.33594 1.0078 0.33594 0.48438 0 0.82813-0.23437 0.34375-0.23438 0.55468-0.61719 0.21875-0.39063 0.3125-0.86719 0.10157-0.48437 0.10157-0.97656z"/>
    <path d="m185.27 358.23q0 0.17188-8e-3 0.28907-8e-3 0.11718-0.0312 0.1875-0.0234 0.0625-0.0625 0.10156-0.0312 0.0312-0.0937 0.0312t-0.15625-0.0312q-0.0859-0.0391-0.20312-0.0703-0.10938-0.0391-0.25-0.0703-0.14063-0.0312-0.30469-0.0312-0.19531 0-0.38281 0.0781t-0.39844 0.25781q-0.20312 0.17969-0.42969 0.47656-0.22656 0.29688-0.5 0.72657v4.625q0 0.0625-0.0312 0.10937-0.0312 0.0391-0.10156 0.0703-0.0703 0.0312-0.19531 0.0469-0.125 0.0156-0.32031 0.0156-0.1875 0-0.3125-0.0156t-0.20313-0.0469q-0.0703-0.0312-0.10156-0.0703-0.0234-0.0469-0.0234-0.10937v-7.0312q0-0.0625 0.0234-0.10157 0.0234-0.0469 0.0937-0.0781 0.0703-0.0391 0.17969-0.0469 0.10937-0.0156 0.28906-0.0156 0.17187 0 0.28125 0.0156 0.11719 8e-3 0.17969 0.0469 0.0625 0.0312 0.0859 0.0781 0.0312 0.0391 0.0312 0.10157v1.0234q0.28907-0.42187 0.53907-0.6875 0.25781-0.26562 0.48437-0.41406 0.22656-0.15625 0.44531-0.21094 0.22657-0.0625 0.45313-0.0625 0.10156 0 0.22656 0.0156 0.13281 8e-3 0.27344 0.0391 0.14062 0.0312 0.25 0.0703 0.11719 0.0391 0.16406 0.0781 0.0469 0.0391 0.0625 0.0781 0.0156 0.0312 0.0234 0.0859 0.0156 0.0547 0.0156 0.16406 8e-3 0.10157 8e-3 0.28125z"/>
    <path d="m191.74 364.81q0 0.0937-0.0625 0.14062-0.0625 0.0469-0.17188 0.0703-0.10937 0.0234-0.32031 0.0234-0.20313 0-0.32813-0.0234-0.11718-0.0234-0.17187-0.0703-0.0547-0.0469-0.0547-0.14062v-0.70313q-0.46094 0.49219-1.0312 0.76563-0.5625 0.27344-1.1953 0.27344-0.55469 0-1.0078-0.14844-0.44532-0.14063-0.76563-0.41406-0.3125-0.27344-0.49219-0.67188-0.17187-0.39844-0.17187-0.90625 0-0.59375 0.24219-1.0312 0.24218-0.4375 0.69531-0.72656 0.45312-0.28906 1.1094-0.42969 0.65625-0.14844 1.4766-0.14844h0.96875v-0.54687q0-0.40625-0.0859-0.71875t-0.28125-0.51563q-0.1875-0.21093-0.49219-0.3125-0.30469-0.10937-0.75-0.10937-0.47656 0-0.85937 0.11719-0.375 0.10937-0.66407 0.25-0.28125 0.13281-0.47656 0.25-0.1875 0.10937-0.28125 0.10937-0.0625 0-0.10937-0.0312-0.0469-0.0312-0.0859-0.0937-0.0312-0.0625-0.0469-0.15625-0.0156-0.10156-0.0156-0.21875 0-0.19531 0.0234-0.30469 0.0312-0.11718 0.13281-0.21875 0.10937-0.10156 0.36719-0.23437 0.25781-0.14063 0.59375-0.25 0.33593-0.11719 0.73437-0.1875 0.39844-0.0781 0.80469-0.0781 0.75781 0 1.2891 0.17188 0.53125 0.17187 0.85938 0.50781 0.32812 0.32813 0.47656 0.82031 0.14844 0.49219 0.14844 1.1484zm-1.2812-3.2109h-1.1016q-0.53125 0-0.92187 0.0937-0.39063 0.0859-0.64844 0.26563-0.25781 0.17187-0.38281 0.42187-0.11719 0.24219-0.11719 0.5625 0 0.54688 0.34375 0.875 0.35156 0.32031 0.97656 0.32031 0.50782 0 0.9375-0.25781 0.4375-0.25781 0.91407-0.78906z"/>
    <path d="m200.06 357.57q0.23437 0 0.32031 0.10938 0.0859 0.10156 0.0859 0.30468v6.8203q0 0.0625-0.0312 0.10937-0.0312 0.0391-0.10938 0.0703-0.0703 0.0312-0.19531 0.0469-0.125 0.0156-0.30469 0.0156-0.19531 0-0.32031-0.0156t-0.20312-0.0469q-0.0703-0.0312-0.10157-0.0703-0.0312-0.0469-0.0312-0.10937v-6.1641h-3.6328v3.9219q0 0.72656 0.21094 1.1016 0.21875 0.36719 0.77344 0.36719 0.17968 0 0.32031-0.0312 0.14062-0.0391 0.25-0.0781 0.10937-0.0391 0.1875-0.0703 0.0781-0.0391 0.14062-0.0391 0.0391 0 0.0703 0.0234 0.0391 0.0156 0.0547 0.0703 0.0234 0.0547 0.0391 0.14844 0.0156 0.0937 0.0156 0.23437 0 0.22656-0.0312 0.35938-0.0312 0.125-0.0937 0.19531-0.0625 0.0625-0.1875 0.11719-0.125 0.0547-0.28906 0.0859-0.15625 0.0391-0.33594 0.0625t-0.35937 0.0234q-0.54688 0-0.9375-0.14062-0.39063-0.14844-0.64063-0.4375-0.25-0.29688-0.36719-0.74219-0.10937-0.45313-0.10937-1.0625v-4.1094h-0.98438q-0.11718 0-0.1875-0.125-0.0703-0.125-0.0703-0.40625 0-0.14843 0.0156-0.25 0.0234-0.10156 0.0547-0.16406 0.0312-0.0703 0.0781-0.0937 0.0547-0.0312 0.11719-0.0312h0.97656v-1.6719q0-0.0547 0.0234-0.10157 0.0312-0.0469 0.10156-0.0781 0.0781-0.0391 0.20312-0.0547 0.125-0.0156 0.3125-0.0156 0.19532 0 0.32032 0.0156t0.19531 0.0547q0.0703 0.0312 0.10156 0.0781 0.0312 0.0469 0.0312 0.10157v1.6719zm0.55469-2.1719q0 0.45312-0.17188 0.61718-0.17187 0.16407-0.63281 0.16407-0.45313 0-0.625-0.15625-0.16406-0.16407-0.16406-0.60938 0-0.45312 0.17187-0.61719 0.17188-0.16406 0.63281-0.16406 0.45313 0 0.61719 0.16406 0.17188 0.15625 0.17188 0.60157zm-2.6328 2.1719z"/>
    <path d="m209.39 361.21q0 0.85937-0.22656 1.5859-0.22656 0.71875-0.67969 1.2422-0.44531 0.52344-1.125 0.82031-0.67187 0.28907-1.5625 0.28907-0.86718 0-1.5156-0.25782-0.64063-0.25781-1.0703-0.75-0.42969-0.49218-0.64063-1.1953-0.21094-0.70312-0.21094-1.5938 0-0.85937 0.21875-1.5781 0.22657-0.72657 0.67188-1.25 0.45312-0.52344 1.125-0.8125 0.67187-0.28907 1.5703-0.28907 0.86719 0 1.5078 0.25782 0.64844 0.25781 1.0781 0.75 0.42969 0.49218 0.64062 1.1953 0.21875 0.70312 0.21875 1.5859zm-1.3594 0.0859q0-0.57031-0.10938-1.0781-0.10156-0.50781-0.34375-0.89063-0.24218-0.38281-0.65625-0.60156-0.41406-0.22656-1.0312-0.22656-0.57031 0-0.98437 0.20312-0.40625 0.20313-0.67188 0.57813-0.26562 0.36719-0.39843 0.875-0.125 0.50781-0.125 1.1094 0 0.57813 0.10156 1.0859 0.10937 0.50781 0.35156 0.89063 0.25 0.375 0.66406 0.60156 0.41407 0.21875 1.0312 0.21875 0.5625 0 0.97657-0.20313 0.41406-0.20312 0.67968-0.57031 0.26563-0.36719 0.39063-0.875t0.125-1.1172z"/>
    <path d="m217.34 364.8q0 0.0625-0.0312 0.10937-0.0312 0.0391-0.10156 0.0703-0.0703 0.0312-0.19532 0.0469-0.125 0.0156-0.3125 0.0156-0.19531 0-0.32031-0.0156t-0.19531-0.0469q-0.0703-0.0312-0.10156-0.0703-0.0312-0.0469-0.0312-0.10937v-4.1172q0-0.60156-0.0937-0.96875t-0.27344-0.63281q-0.17969-0.26563-0.46875-0.40625-0.28125-0.14063-0.65625-0.14063-0.48438 0-0.96875 0.34375-0.48438 0.34375-1.0156 1.0078v4.9141q0 0.0625-0.0312 0.10937-0.0312 0.0391-0.10156 0.0703-0.0703 0.0312-0.19531 0.0469-0.125 0.0156-0.32031 0.0156-0.1875 0-0.3125-0.0156t-0.20313-0.0469q-0.0703-0.0312-0.10156-0.0703-0.0234-0.0469-0.0234-0.10937v-7.0312q0-0.0625 0.0234-0.10157 0.0234-0.0469 0.0937-0.0781 0.0703-0.0391 0.17969-0.0469 0.10937-0.0156 0.28906-0.0156 0.17187 0 0.28125 0.0156 0.11719 8e-3 0.17969 0.0469 0.0625 0.0312 0.0859 0.0781 0.0312 0.0391 0.0312 0.10157v0.92968q0.59375-0.66406 1.1797-0.96875 0.59375-0.3125 1.1953-0.3125 0.70313 0 1.1797 0.24219 0.48438 0.23438 0.78125 0.63281 0.29688 0.39844 0.42188 0.9375 0.13281 0.53125 0.13281 1.2812z"/>
    <path d="m309.72 355.47q0 0.14844-0.0156 0.25781-0.0156 0.10938-0.0547 0.17969-0.0312 0.0625-0.0859 0.0937-0.0469 0.0312-0.10938 0.0312h-2.8438v8.7656q0 0.0625-0.0312 0.10938-0.0312 0.0469-0.10937 0.0781-0.0781 0.0234-0.21094 0.0391-0.125 0.0234-0.32031 0.0234-0.1875 0-0.32032-0.0234-0.13281-0.0156-0.21093-0.0391-0.0781-0.0312-0.10938-0.0781-0.0312-0.0469-0.0312-0.10938v-8.7656h-2.8438q-0.0625 0-0.11719-0.0312-0.0469-0.0312-0.0781-0.0937-0.0312-0.0703-0.0547-0.17969-0.0156-0.10937-0.0156-0.25781t0.0156-0.25781q0.0234-0.11719 0.0547-0.1875 0.0312-0.0703 0.0781-0.10157 0.0547-0.0312 0.11719-0.0312h7.0312q0.0625 0 0.10938 0.0312 0.0547 0.0312 0.0859 0.10157 0.0391 0.0703 0.0547 0.1875 0.0156 0.10937 0.0156 0.25781z"/>
    <path d="m315.64 360.98q0 0.30469-0.15625 0.4375-0.14844 0.125-0.34375 0.125h-4.6094q0 0.58594 0.11718 1.0547 0.11719 0.46875 0.39063 0.80469t0.71094 0.51562q0.4375 0.17969 1.0703 0.17969 0.5 0 0.89062-0.0781 0.39063-0.0859 0.67188-0.1875 0.28906-0.10157 0.46875-0.17969 0.1875-0.0859 0.28125-0.0859 0.0547 0 0.0937 0.0312 0.0469 0.0234 0.0703 0.0781t0.0312 0.15625q0.0156 0.0937 0.0156 0.23437 0 0.10156-8e-3 0.17969-8e-3 0.0703-0.0234 0.13281-8e-3 0.0547-0.0391 0.10156-0.0234 0.0469-0.0703 0.0937-0.0391 0.0391-0.25 0.14063-0.21094 0.0937-0.54687 0.1875-0.33594 0.0937-0.78125 0.16406-0.4375 0.0781-0.9375 0.0781-0.86719 0-1.5234-0.24219-0.64844-0.24219-1.0938-0.71875t-0.67188-1.1953q-0.22656-0.71875-0.22656-1.6719 0-0.90625 0.23438-1.625 0.23437-0.72656 0.67187-1.2266 0.44531-0.50781 1.0703-0.77344 0.625-0.27344 1.3984-0.27344 0.82813 0 1.4062 0.26563 0.58594 0.26562 0.96094 0.71875 0.375 0.44531 0.54687 1.0547 0.17969 0.60156 0.17969 1.2891zm-1.2969-0.38281q0.0234-1.0156-0.45313-1.5938-0.46875-0.57812-1.3984-0.57812-0.47656 0-0.83593 0.17968-0.35938 0.17969-0.60157 0.47657-0.24218 0.29687-0.375 0.69531-0.13281 0.39062-0.14843 0.82031z"/>
    <path d="m328.04 364.8q0 0.0625-0.0312 0.10937-0.0312 0.0391-0.10156 0.0703-0.0703 0.0312-0.19532 0.0469-0.125 0.0156-0.3125 0.0156-0.19531 0-0.32031-0.0156t-0.20312-0.0469q-0.0703-0.0312-0.10157-0.0703-0.0312-0.0469-0.0312-0.10937v-4.2734q0-0.44531-0.0781-0.8125t-0.25-0.63281q-0.17188-0.26563-0.4375-0.40625-0.26563-0.14063-0.625-0.14063-0.44531 0-0.89844 0.34375-0.44531 0.34375-0.98437 1.0078v4.9141q0 0.0625-0.0312 0.10937-0.0312 0.0391-0.10938 0.0703-0.0703 0.0312-0.19531 0.0469-0.125 0.0156-0.3125 0.0156-0.17969 0-0.3125-0.0156-0.125-0.0156-0.20313-0.0469-0.0703-0.0312-0.10156-0.0703-0.0234-0.0469-0.0234-0.10937v-4.2734q0-0.44531-0.0859-0.8125t-0.25782-0.63281q-0.17187-0.26563-0.4375-0.40625-0.25781-0.14063-0.61718-0.14063-0.44532 0-0.89844 0.34375-0.45313 0.34375-0.98438 1.0078v4.9141q0 0.0625-0.0312 0.10937-0.0312 0.0391-0.10156 0.0703-0.0703 0.0312-0.19531 0.0469-0.125 0.0156-0.32031 0.0156-0.1875 0-0.3125-0.0156t-0.20313-0.0469q-0.0703-0.0312-0.10156-0.0703-0.0234-0.0469-0.0234-0.10937v-7.0312q0-0.0625 0.0234-0.10157 0.0234-0.0469 0.0937-0.0781 0.0703-0.0391 0.17969-0.0469 0.10937-0.0156 0.28906-0.0156 0.17187 0 0.28125 0.0156 0.11719 8e-3 0.17969 0.0469 0.0625 0.0312 0.0859 0.0781 0.0312 0.0391 0.0312 0.10157v0.92968q0.59375-0.66406 1.1484-0.96875 0.5625-0.3125 1.1328-0.3125 0.4375 0 0.78125 0.10157 0.35157 0.10156 0.61719 0.28906 0.26563 0.17969 0.45313 0.4375 0.1875 0.25 0.3125 0.5625 0.35156-0.38281 0.66406-0.64844 0.32031-0.26562 0.60937-0.42969 0.29688-0.16406 0.57032-0.23437 0.28125-0.0781 0.5625-0.0781 0.67968 0 1.1406 0.24219 0.46094 0.23438 0.74219 0.63281 0.28906 0.39844 0.40625 0.9375 0.125 0.53125 0.125 1.125z"/>
    <path d="m336.86 361.18q0 0.92187-0.20312 1.6562-0.19532 0.73437-0.58594 1.25-0.38281 0.50781-0.95313 0.78906-0.57031 0.27344-1.3047 0.27344-0.3125 0-0.57813-0.0625-0.26562-0.0625-0.52344-0.19532-0.25-0.13281-0.5-0.33593-0.25-0.20313-0.53125-0.47657v3.5156q0 0.0625-0.0312 0.10937-0.0312 0.0469-0.10156 0.0781-0.0703 0.0312-0.19531 0.0469-0.125 0.0156-0.32031 0.0156-0.1875 0-0.3125-0.0156t-0.20313-0.0469q-0.0703-0.0312-0.10156-0.0781-0.0234-0.0469-0.0234-0.10937v-9.8203q0-0.0703 0.0234-0.10938 0.0234-0.0469 0.0937-0.0781t0.17969-0.0391q0.10937-0.0156 0.26562-0.0156 0.16406 0 0.26563 0.0156 0.10937 8e-3 0.17968 0.0391 0.0703 0.0312 0.0937 0.0781 0.0312 0.0391 0.0312 0.10938v0.94531q0.32032-0.32813 0.61719-0.57031 0.29688-0.24219 0.59375-0.39844 0.30469-0.16406 0.61719-0.24219 0.32031-0.0859 0.67187-0.0859 0.76563 0 1.3047 0.29688 0.53906 0.29687 0.875 0.8125 0.34375 0.51562 0.5 1.2031 0.15625 0.67969 0.15625 1.4453zm-1.3594 0.14843q0-0.53906-0.0859-1.0391-0.0781-0.50781-0.28125-0.89844-0.19531-0.39062-0.53125-0.625-0.33594-0.23437-0.83594-0.23437-0.25 0-0.49219 0.0781-0.24218 0.0703-0.49218 0.23438-0.25 0.15625-0.52344 0.42187-0.27344 0.25782-0.57813 0.64063v2.7969q0.53125 0.64844 1.0078 0.99219 0.47656 0.34375 1 0.34375 0.48437 0 0.82812-0.23437 0.35156-0.23438 0.5625-0.625 0.21875-0.39063 0.32031-0.875 0.10157-0.48438 0.10157-0.97657z"/>
    <path d="m344.8 360.98q0 0.30469-0.15625 0.4375-0.14844 0.125-0.34375 0.125h-4.6094q0 0.58594 0.11718 1.0547 0.11719 0.46875 0.39063 0.80469t0.71094 0.51562q0.4375 0.17969 1.0703 0.17969 0.5 0 0.89062-0.0781 0.39063-0.0859 0.67188-0.1875 0.28906-0.10157 0.46875-0.17969 0.1875-0.0859 0.28125-0.0859 0.0547 0 0.0937 0.0312 0.0469 0.0234 0.0703 0.0781t0.0312 0.15625q0.0156 0.0937 0.0156 0.23437 0 0.10156-8e-3 0.17969-8e-3 0.0703-0.0234 0.13281-8e-3 0.0547-0.0391 0.10156-0.0234 0.0469-0.0703 0.0937-0.0391 0.0391-0.25 0.14063-0.21094 0.0937-0.54687 0.1875-0.33594 0.0937-0.78125 0.16406-0.4375 0.0781-0.9375 0.0781-0.86719 0-1.5234-0.24219-0.64844-0.24219-1.0938-0.71875t-0.67188-1.1953q-0.22656-0.71875-0.22656-1.6719 0-0.90625 0.23438-1.625 0.23437-0.72656 0.67187-1.2266 0.44531-0.50781 1.0703-0.77344 0.625-0.27344 1.3984-0.27344 0.82813 0 1.4062 0.26563 0.58594 0.26562 0.96094 0.71875 0.375 0.44531 0.54687 1.0547 0.17969 0.60156 0.17969 1.2891zm-1.2969-0.38281q0.0234-1.0156-0.45313-1.5938-0.46875-0.57812-1.3984-0.57812-0.47656 0-0.83593 0.17968-0.35938 0.17969-0.60157 0.47657-0.24218 0.29687-0.375 0.69531-0.13281 0.39062-0.14843 0.82031z"/>
    <path d="m350.88 358.23q0 0.17188-8e-3 0.28907-8e-3 0.11718-0.0312 0.1875-0.0234 0.0625-0.0625 0.10156-0.0312 0.0312-0.0937 0.0312t-0.15625-0.0312q-0.0859-0.0391-0.20312-0.0703-0.10938-0.0391-0.25-0.0703-0.14063-0.0312-0.30469-0.0312-0.19531 0-0.38281 0.0781t-0.39844 0.25781q-0.20312 0.17969-0.42969 0.47656-0.22656 0.29688-0.5 0.72657v4.625q0 0.0625-0.0312 0.10937-0.0312 0.0391-0.10156 0.0703-0.0703 0.0312-0.19531 0.0469-0.125 0.0156-0.32031 0.0156-0.1875 0-0.3125-0.0156t-0.20313-0.0469q-0.0703-0.0312-0.10156-0.0703-0.0234-0.0469-0.0234-0.10937v-7.0312q0-0.0625 0.0234-0.10157 0.0234-0.0469 0.0937-0.0781 0.0703-0.0391 0.17969-0.0469 0.10937-0.0156 0.28906-0.0156 0.17187 0 0.28125 0.0156 0.11719 8e-3 0.17969 0.0469 0.0625 0.0312 0.0859 0.0781 0.0312 0.0391 0.0312 0.10157v1.0234q0.28907-0.42187 0.53907-0.6875 0.25781-0.26562 0.48437-0.41406 0.22656-0.15625 0.44531-0.21094 0.22657-0.0625 0.45313-0.0625 0.10156 0 0.22656 0.0156 0.13281 8e-3 0.27344 0.0391 0.14062 0.0312 0.25 0.0703 0.11719 0.0391 0.16406 0.0781 0.0469 0.0391 0.0625 0.0781 0.0156 0.0312 0.0234 0.0859 0.0156 0.0547 0.0156 0.16406 8e-3 0.10157 8e-3 0.28125z"/>
    <path d="m357.35 364.81q0 0.0937-0.0625 0.14062-0.0625 0.0469-0.17188 0.0703-0.10937 0.0234-0.32031 0.0234-0.20313 0-0.32813-0.0234-0.11718-0.0234-0.17187-0.0703-0.0547-0.0469-0.0547-0.14062v-0.70313q-0.46094 0.49219-1.0312 0.76563-0.5625 0.27344-1.1953 0.27344-0.55469 0-1.0078-0.14844-0.44532-0.14063-0.76563-0.41406-0.3125-0.27344-0.49219-0.67188-0.17187-0.39844-0.17187-0.90625 0-0.59375 0.24219-1.0312 0.24218-0.4375 0.69531-0.72656 0.45312-0.28906 1.1094-0.42969 0.65625-0.14844 1.4766-0.14844h0.96875v-0.54687q0-0.40625-0.0859-0.71875t-0.28125-0.51563q-0.1875-0.21093-0.49219-0.3125-0.30469-0.10937-0.75-0.10937-0.47656 0-0.85937 0.11719-0.375 0.10937-0.66407 0.25-0.28125 0.13281-0.47656 0.25-0.1875 0.10937-0.28125 0.10937-0.0625 0-0.10937-0.0312-0.0469-0.0312-0.0859-0.0937-0.0312-0.0625-0.0469-0.15625-0.0156-0.10156-0.0156-0.21875 0-0.19531 0.0234-0.30469 0.0312-0.11718 0.13281-0.21875 0.10937-0.10156 0.36719-0.23437 0.25781-0.14063 0.59375-0.25 0.33593-0.11719 0.73437-0.1875 0.39844-0.0781 0.80469-0.0781 0.75781 0 1.2891 0.17188 0.53125 0.17187 0.85938 0.50781 0.32812 0.32813 0.47656 0.82031 0.14844 0.49219 0.14844 1.1484zm-1.2812-3.2109h-1.1016q-0.53125 0-0.92187 0.0937-0.39063 0.0859-0.64844 0.26563-0.25781 0.17187-0.38281 0.42187-0.11719 0.24219-0.11719 0.5625 0 0.54688 0.34375 0.875 0.35156 0.32031 0.97656 0.32031 0.50782 0 0.9375-0.25781 0.4375-0.25781 0.91407-0.78906z"/>
    <path d="m363.21 364.29q0 0.22656-0.0312 0.35938-0.0312 0.13281-0.0937 0.19531t-0.1875 0.11719q-0.125 0.0547-0.28906 0.0859-0.15625 0.0391-0.33594 0.0625t-0.35937 0.0234q-0.54688 0-0.9375-0.14062-0.39063-0.14844-0.64063-0.4375-0.25-0.29688-0.36719-0.74219-0.10937-0.45313-0.10937-1.0625v-4.1094h-0.98438q-0.11718 0-0.1875-0.125-0.0703-0.125-0.0703-0.40625 0-0.14843 0.0156-0.25 0.0234-0.10156 0.0547-0.16406 0.0312-0.0703 0.0781-0.0937 0.0547-0.0312 0.11719-0.0312h0.97656v-1.6719q0-0.0547 0.0234-0.10157 0.0312-0.0469 0.10156-0.0781 0.0781-0.0391 0.20312-0.0547 0.125-0.0156 0.3125-0.0156 0.19532 0 0.32032 0.0156t0.19531 0.0547q0.0703 0.0312 0.10156 0.0781 0.0312 0.0469 0.0312 0.10157v1.6719h1.8047q0.0625 0 0.10937 0.0312 0.0469 0.0234 0.0781 0.0937 0.0391 0.0625 0.0547 0.16406 0.0156 0.10157 0.0156 0.25 0 0.28125-0.0703 0.40625t-0.1875 0.125h-1.8047v3.9219q0 0.72656 0.21094 1.1016 0.21875 0.36719 0.77344 0.36719 0.17968 0 0.32031-0.0312 0.14062-0.0391 0.25-0.0781 0.10937-0.0391 0.1875-0.0703 0.0781-0.0391 0.14062-0.0391 0.0391 0 0.0703 0.0234 0.0391 0.0156 0.0547 0.0703 0.0234 0.0547 0.0391 0.14844 0.0156 0.0937 0.0156 0.23437z"/>
    <path d="m370.95 364.8q0 0.0625-0.0312 0.10937-0.0234 0.0391-0.0937 0.0703t-0.1875 0.0469q-0.10938 0.0156-0.27344 0.0156-0.17969 0-0.29687-0.0156-0.10938-0.0156-0.17969-0.0469-0.0625-0.0312-0.0859-0.0703-0.0234-0.0469-0.0234-0.10937v-0.92969q-0.60156 0.66406-1.1875 0.96875-0.58593 0.30469-1.1875 0.30469-0.70312 0-1.1875-0.23438-0.47656-0.23437-0.77343-0.63281-0.29688-0.40625-0.42969-0.9375-0.125-0.53906-0.125-1.3047v-4.2656q0-0.0625 0.0234-0.10157 0.0312-0.0469 0.10937-0.0781 0.0781-0.0391 0.20313-0.0469 0.125-0.0156 0.3125-0.0156t0.3125 0.0156q0.125 8e-3 0.19531 0.0469 0.0781 0.0312 0.10937 0.0781 0.0312 0.0391 0.0312 0.10157v4.0938q0 0.61718 0.0859 0.99218 0.0937 0.36719 0.27344 0.63282 0.1875 0.25781 0.46875 0.40625 0.28125 0.14062 0.65625 0.14062 0.48437 0 0.96094-0.34375 0.48437-0.34375 1.0234-1.0078v-4.9141q0-0.0625 0.0234-0.10157 0.0312-0.0469 0.10938-0.0781 0.0781-0.0391 0.19531-0.0469 0.125-0.0156 0.32031-0.0156 0.1875 0 0.3125 0.0156 0.125 8e-3 0.19531 0.0469 0.0703 0.0312 0.10157 0.0781 0.0391 0.0391 0.0391 0.10157z"/>
    <path d="m377.44 358.23q0 0.17188-8e-3 0.28907-8e-3 0.11718-0.0312 0.1875-0.0234 0.0625-0.0625 0.10156-0.0312 0.0312-0.0937 0.0312t-0.15625-0.0312q-0.0859-0.0391-0.20312-0.0703-0.10938-0.0391-0.25-0.0703-0.14063-0.0312-0.30469-0.0312-0.19531 0-0.38281 0.0781t-0.39844 0.25781q-0.20312 0.17969-0.42969 0.47656-0.22656 0.29688-0.5 0.72657v4.625q0 0.0625-0.0312 0.10937-0.0312 0.0391-0.10156 0.0703-0.0703 0.0312-0.19531 0.0469-0.125 0.0156-0.32031 0.0156-0.1875 0-0.3125-0.0156t-0.20313-0.0469q-0.0703-0.0312-0.10156-0.0703-0.0234-0.0469-0.0234-0.10937v-7.0312q0-0.0625 0.0234-0.10157 0.0234-0.0469 0.0937-0.0781 0.0703-0.0391 0.17969-0.0469 0.10937-0.0156 0.28906-0.0156 0.17187 0 0.28125 0.0156 0.11719 8e-3 0.17969 0.0469 0.0625 0.0312 0.0859 0.0781 0.0312 0.0391 0.0312 0.10157v1.0234q0.28907-0.42187 0.53907-0.6875 0.25781-0.26562 0.48437-0.41406 0.22656-0.15625 0.44531-0.21094 0.22657-0.0625 0.45313-0.0625 0.10156 0 0.22656 0.0156 0.13281 8e-3 0.27344 0.0391 0.14062 0.0312 0.25 0.0703 0.11719 0.0391 0.16406 0.0781 0.0469 0.0391 0.0625 0.0781 0.0156 0.0312 0.0234 0.0859 0.0156 0.0547 0.0156 0.16406 8e-3 0.10157 8e-3 0.28125z"/>
    <path d="m384.71 360.98q0 0.30469-0.15625 0.4375-0.14844 0.125-0.34375 0.125h-4.6094q0 0.58594 0.11718 1.0547 0.11719 0.46875 0.39063 0.80469t0.71094 0.51562q0.4375 0.17969 1.0703 0.17969 0.5 0 0.89062-0.0781 0.39063-0.0859 0.67188-0.1875 0.28906-0.10157 0.46875-0.17969 0.1875-0.0859 0.28125-0.0859 0.0547 0 0.0937 0.0312 0.0469 0.0234 0.0703 0.0781t0.0312 0.15625q0.0156 0.0937 0.0156 0.23437 0 0.10156-8e-3 0.17969-8e-3 0.0703-0.0234 0.13281-8e-3 0.0547-0.0391 0.10156-0.0234 0.0469-0.0703 0.0937-0.0391 0.0391-0.25 0.14063-0.21094 0.0937-0.54687 0.1875-0.33594 0.0937-0.78125 0.16406-0.4375 0.0781-0.9375 0.0781-0.86719 0-1.5234-0.24219-0.64844-0.24219-1.0938-0.71875t-0.67188-1.1953q-0.22656-0.71875-0.22656-1.6719 0-0.90625 0.23438-1.625 0.23437-0.72656 0.67187-1.2266 0.44531-0.50781 1.0703-0.77344 0.625-0.27344 1.3984-0.27344 0.82813 0 1.4062 0.26563 0.58594 0.26562 0.96094 0.71875 0.375 0.44531 0.54687 1.0547 0.17969 0.60156 0.17969 1.2891zm-1.2969-0.38281q0.0234-1.0156-0.45313-1.5938-0.46875-0.57812-1.3984-0.57812-0.47656 0-0.83593 0.17968-0.35938 0.17969-0.60157 0.47657-0.24218 0.29687-0.375 0.69531-0.13281 0.39062-0.14843 0.82031z"/>
    <path d="m469.86 358.85q0 0.75781-0.25 1.3672-0.25 0.60937-0.71875 1.0391-0.46094 0.42969-1.1406 0.66406-0.67187 0.23438-1.6094 0.23438h-1.1484v3.6406q0 0.0625-0.0391 0.10938-0.0312 0.0469-0.10938 0.0781-0.0703 0.0234-0.20312 0.0391-0.125 0.0234-0.32032 0.0234-0.19531 0-0.32812-0.0234-0.125-0.0156-0.20313-0.0391-0.0781-0.0312-0.10937-0.0781-0.0312-0.0469-0.0312-0.10938v-9.3281q0-0.3125 0.16406-0.44531 0.16406-0.13282 0.36719-0.13282h2.1641q0.32813 0 0.625 0.0312 0.30469 0.0234 0.71094 0.11719 0.41406 0.0859 0.83594 0.33594 0.42968 0.24219 0.72656 0.60156 0.29687 0.35938 0.45312 0.83594 0.16407 0.46875 0.16407 1.0391zm-1.4141 0.10938q0-0.61719-0.23437-1.0312-0.22656-0.41407-0.57031-0.61719-0.33594-0.20313-0.70313-0.25781-0.35937-0.05469-0.70312-0.05469h-1.2422v4.0547h1.2109q0.60937 0 1.0078-0.15625 0.40625-0.15625 0.67969-0.42969 0.27343-0.28125 0.41406-0.66406 0.14062-0.39063 0.14062-0.84375z"/>
    <path d="m475.89 359.23q0 0.17188-8e-3 0.28907-8e-3 0.11718-0.0312 0.1875-0.0234 0.0625-0.0625 0.10156-0.0312 0.0312-0.0937 0.0312t-0.15625-0.0312q-0.0859-0.0391-0.20312-0.0703-0.10938-0.0391-0.25-0.0703-0.14063-0.0312-0.30469-0.0312-0.19531 0-0.38281 0.0781t-0.39844 0.25781q-0.20312 0.17969-0.42969 0.47656-0.22656 0.29688-0.5 0.72657v4.625q0 0.0625-0.0312 0.10937-0.0312 0.0391-0.10156 0.0703-0.0703 0.0312-0.19531 0.0469-0.125 0.0156-0.32031 0.0156-0.1875 0-0.3125-0.0156t-0.20313-0.0469q-0.0703-0.0312-0.10156-0.0703-0.0234-0.0469-0.0234-0.10937v-7.0312q0-0.0625 0.0234-0.10157 0.0234-0.0469 0.0937-0.0781 0.0703-0.0391 0.17969-0.0469 0.10937-0.0156 0.28906-0.0156 0.17187 0 0.28125 0.0156 0.11719 8e-3 0.17969 0.0469 0.0625 0.0312 0.0859 0.0781 0.0312 0.0391 0.0312 0.10157v1.0234q0.28907-0.42187 0.53907-0.6875 0.25781-0.26562 0.48437-0.41406 0.22656-0.15625 0.44531-0.21094 0.22657-0.0625 0.45313-0.0625 0.10156 0 0.22656 0.0156 0.13281 8e-3 0.27344 0.0391 0.14062 0.0312 0.25 0.0703 0.11719 0.0391 0.16406 0.0781 0.0469 0.0391 0.0625 0.0781 0.0156 0.0312 0.0234 0.0859 0.0156 0.0547 0.0156 0.16406 8e-3 0.10157 8e-3 0.28125z"/>
    <path d="m483.16 361.98q0 0.30469-0.15625 0.4375-0.14844 0.125-0.34375 0.125h-4.6094q0 0.58594 0.11718 1.0547 0.11719 0.46875 0.39063 0.80469t0.71094 0.51562q0.4375 0.17969 1.0703 0.17969 0.5 0 0.89062-0.0781 0.39063-0.0859 0.67188-0.1875 0.28906-0.10157 0.46875-0.17969 0.1875-0.0859 0.28125-0.0859 0.0547 0 0.0937 0.0312 0.0469 0.0234 0.0703 0.0781t0.0312 0.15625q0.0156 0.0937 0.0156 0.23437 0 0.10156-8e-3 0.17969-8e-3 0.0703-0.0234 0.13281-8e-3 0.0547-0.0391 0.10156-0.0234 0.0469-0.0703 0.0937-0.0391 0.0391-0.25 0.14063-0.21094 0.0937-0.54687 0.1875-0.33594 0.0937-0.78125 0.16406-0.4375 0.0781-0.9375 0.0781-0.86719 0-1.5234-0.24219-0.64844-0.24219-1.0938-0.71875t-0.67188-1.1953q-0.22656-0.71875-0.22656-1.6719 0-0.90625 0.23438-1.625 0.23437-0.72656 0.67187-1.2266 0.44531-0.50781 1.0703-0.77344 0.625-0.27344 1.3984-0.27344 0.82813 0 1.4062 0.26563 0.58594 0.26562 0.96094 0.71875 0.375 0.44531 0.54687 1.0547 0.17969 0.60156 0.17969 1.2891zm-1.2969-0.38281q0.0234-1.0156-0.45313-1.5938-0.46875-0.57812-1.3984-0.57812-0.47656 0-0.83593 0.17968-0.35938 0.17969-0.60157 0.47657-0.24218 0.29687-0.375 0.69531-0.13281 0.39062-0.14843 0.82031z"/>
    <path d="m489.54 363.89q0 0.53907-0.20312 0.96094-0.19531 0.42188-0.5625 0.71094t-0.875 0.4375-1.1172 0.14844q-0.375 0-0.71875-0.0625-0.33594-0.0547-0.60937-0.14063-0.26563-0.0937-0.45313-0.1875-0.1875-0.10156-0.27344-0.17969-0.0859-0.0781-0.125-0.21875-0.0391-0.14062-0.0391-0.38281 0-0.14844 0.0156-0.25t0.0391-0.16406q0.0234-0.0625 0.0625-0.0859 0.0469-0.0312 0.10156-0.0312 0.0859 0 0.25 0.10938 0.17188 0.10156 0.41406 0.22656 0.25 0.125 0.58594 0.23437 0.33594 0.10157 0.77344 0.10157 0.32812 0 0.59375-0.0703 0.26562-0.0703 0.46094-0.20312 0.19531-0.14063 0.29687-0.35156 0.10938-0.21094 0.10938-0.5 0-0.29688-0.15625-0.5-0.14844-0.20313-0.39844-0.35938t-0.5625-0.27344q-0.3125-0.125-0.64844-0.25781-0.32812-0.13281-0.64844-0.29687-0.3125-0.17188-0.5625-0.41407-0.25-0.24218-0.40625-0.57812-0.14843-0.33594-0.14843-0.80469 0-0.41406 0.15625-0.78906 0.16406-0.38281 0.48437-0.66406 0.32031-0.28907 0.79688-0.46094 0.48437-0.17188 1.125-0.17188 0.28125 0 0.5625 0.0469t0.50781 0.11719q0.22656 0.0703 0.38281 0.15625 0.16406 0.0781 0.24219 0.14062 0.0859 0.0625 0.10937 0.10938 0.0312 0.0469 0.0391 0.10937 0.0156 0.0547 0.0234 0.14063 0.0156 0.0859 0.0156 0.21093 0 0.13282-0.0156 0.23438-8e-3 0.0937-0.0391 0.15625-0.0234 0.0625-0.0625 0.0937-0.0391 0.0234-0.0859 0.0234-0.0703 0-0.20312-0.0859-0.13281-0.0859-0.34375-0.17969-0.21094-0.10156-0.5-0.1875-0.28125-0.0859-0.64844-0.0859-0.32812 0-0.57812 0.0781-0.25 0.0703-0.41407 0.21094-0.15625 0.13281-0.24218 0.32031-0.0781 0.1875-0.0781 0.40625 0 0.30469 0.15625 0.51562 0.15625 0.20313 0.40625 0.35938t0.57031 0.28125q0.32032 0.125 0.64844 0.25781 0.33594 0.13281 0.65625 0.29688 0.32813 0.16406 0.57813 0.39843 0.25 0.23438 0.39843 0.5625 0.15625 0.32813 0.15625 0.78125z"/>
    <path d="m495.79 363.89q0 0.53907-0.20312 0.96094-0.19531 0.42188-0.5625 0.71094t-0.875 0.4375-1.1172 0.14844q-0.375 0-0.71875-0.0625-0.33594-0.0547-0.60937-0.14063-0.26563-0.0937-0.45313-0.1875-0.1875-0.10156-0.27344-0.17969-0.0859-0.0781-0.125-0.21875-0.0391-0.14062-0.0391-0.38281 0-0.14844 0.0156-0.25t0.0391-0.16406q0.0234-0.0625 0.0625-0.0859 0.0469-0.0312 0.10156-0.0312 0.0859 0 0.25 0.10938 0.17188 0.10156 0.41406 0.22656 0.25 0.125 0.58594 0.23437 0.33594 0.10157 0.77344 0.10157 0.32812 0 0.59375-0.0703 0.26562-0.0703 0.46094-0.20312 0.19531-0.14063 0.29687-0.35156 0.10938-0.21094 0.10938-0.5 0-0.29688-0.15625-0.5-0.14844-0.20313-0.39844-0.35938t-0.5625-0.27344q-0.3125-0.125-0.64844-0.25781-0.32812-0.13281-0.64844-0.29687-0.3125-0.17188-0.5625-0.41407-0.25-0.24218-0.40625-0.57812-0.14843-0.33594-0.14843-0.80469 0-0.41406 0.15625-0.78906 0.16406-0.38281 0.48437-0.66406 0.32031-0.28907 0.79688-0.46094 0.48437-0.17188 1.125-0.17188 0.28125 0 0.5625 0.0469t0.50781 0.11719q0.22656 0.0703 0.38281 0.15625 0.16406 0.0781 0.24219 0.14062 0.0859 0.0625 0.10937 0.10938 0.0312 0.0469 0.0391 0.10937 0.0156 0.0547 0.0234 0.14063 0.0156 0.0859 0.0156 0.21093 0 0.13282-0.0156 0.23438-8e-3 0.0937-0.0391 0.15625-0.0234 0.0625-0.0625 0.0937-0.0391 0.0234-0.0859 0.0234-0.0703 0-0.20312-0.0859-0.13281-0.0859-0.34375-0.17969-0.21094-0.10156-0.5-0.1875-0.28125-0.0859-0.64844-0.0859-0.32812 0-0.57812 0.0781-0.25 0.0703-0.41407 0.21094-0.15625 0.13281-0.24218 0.32031-0.0781 0.1875-0.0781 0.40625 0 0.30469 0.15625 0.51562 0.15625 0.20313 0.40625 0.35938t0.57031 0.28125q0.32032 0.125 0.64844 0.25781 0.33594 0.13281 0.65625 0.29688 0.32813 0.16406 0.57813 0.39843 0.25 0.23438 0.39843 0.5625 0.15625 0.32813 0.15625 0.78125z"/>
    <path d="m503.65 365.8q0 0.0625-0.0312 0.10937-0.0234 0.0391-0.0937 0.0703t-0.1875 0.0469q-0.10938 0.0156-0.27344 0.0156-0.17969 0-0.29687-0.0156-0.10938-0.0156-0.17969-0.0469-0.0625-0.0312-0.0859-0.0703-0.0234-0.0469-0.0234-0.10937v-0.92969q-0.60156 0.66406-1.1875 0.96875-0.58593 0.30469-1.1875 0.30469-0.70312 0-1.1875-0.23438-0.47656-0.23437-0.77343-0.63281-0.29688-0.40625-0.42969-0.9375-0.125-0.53906-0.125-1.3047v-4.2656q0-0.0625 0.0234-0.10157 0.0312-0.0469 0.10937-0.0781 0.0781-0.0391 0.20313-0.0469 0.125-0.0156 0.3125-0.0156t0.3125 0.0156q0.125 8e-3 0.19531 0.0469 0.0781 0.0312 0.10937 0.0781 0.0312 0.0391 0.0312 0.10157v4.0938q0 0.61718 0.0859 0.99218 0.0937 0.36719 0.27344 0.63282 0.1875 0.25781 0.46875 0.40625 0.28125 0.14062 0.65625 0.14062 0.48437 0 0.96094-0.34375 0.48437-0.34375 1.0234-1.0078v-4.9141q0-0.0625 0.0234-0.10157 0.0312-0.0469 0.10938-0.0781 0.0781-0.0391 0.19531-0.0469 0.125-0.0156 0.32031-0.0156 0.1875 0 0.3125 0.0156 0.125 8e-3 0.19531 0.0469 0.0703 0.0312 0.10157 0.0781 0.0391 0.0391 0.0391 0.10157z"/>
    <path d="m510.14 359.23q0 0.17188-8e-3 0.28907-8e-3 0.11718-0.0312 0.1875-0.0234 0.0625-0.0625 0.10156-0.0312 0.0312-0.0937 0.0312t-0.15625-0.0312q-0.0859-0.0391-0.20312-0.0703-0.10938-0.0391-0.25-0.0703-0.14063-0.0312-0.30469-0.0312-0.19531 0-0.38281 0.0781t-0.39844 0.25781q-0.20312 0.17969-0.42969 0.47656-0.22656 0.29688-0.5 0.72657v4.625q0 0.0625-0.0312 0.10937-0.0312 0.0391-0.10156 0.0703-0.0703 0.0312-0.19531 0.0469-0.125 0.0156-0.32031 0.0156-0.1875 0-0.3125-0.0156t-0.20313-0.0469q-0.0703-0.0312-0.10156-0.0703-0.0234-0.0469-0.0234-0.10937v-7.0312q0-0.0625 0.0234-0.10157 0.0234-0.0469 0.0937-0.0781 0.0703-0.0391 0.17969-0.0469 0.10937-0.0156 0.28906-0.0156 0.17187 0 0.28125 0.0156 0.11719 8e-3 0.17969 0.0469 0.0625 0.0312 0.0859 0.0781 0.0312 0.0391 0.0312 0.10157v1.0234q0.28907-0.42187 0.53907-0.6875 0.25781-0.26562 0.48437-0.41406 0.22656-0.15625 0.44531-0.21094 0.22657-0.0625 0.45313-0.0625 0.10156 0 0.22656 0.0156 0.13281 8e-3 0.27344 0.0391 0.14062 0.0312 0.25 0.0703 0.11719 0.0391 0.16406 0.0781 0.0469 0.0391 0.0625 0.0781 0.0156 0.0312 0.0234 0.0859 0.0156 0.0547 0.0156 0.16406 8e-3 0.10157 8e-3 0.28125z"/>
    <path d="m517.41 361.98q0 0.30469-0.15625 0.4375-0.14844 0.125-0.34375 0.125h-4.6094q0 0.58594 0.11718 1.0547 0.11719 0.46875 0.39063 0.80469t0.71094 0.51562q0.4375 0.17969 1.0703 0.17969 0.5 0 0.89062-0.0781 0.39063-0.0859 0.67188-0.1875 0.28906-0.10157 0.46875-0.17969 0.1875-0.0859 0.28125-0.0859 0.0547 0 0.0937 0.0312 0.0469 0.0234 0.0703 0.0781t0.0312 0.15625q0.0156 0.0937 0.0156 0.23437 0 0.10156-8e-3 0.17969-8e-3 0.0703-0.0234 0.13281-8e-3 0.0547-0.0391 0.10156-0.0234 0.0469-0.0703 0.0937-0.0391 0.0391-0.25 0.14063-0.21094 0.0937-0.54687 0.1875-0.33594 0.0937-0.78125 0.16406-0.4375 0.0781-0.9375 0.0781-0.86719 0-1.5234-0.24219-0.64844-0.24219-1.0938-0.71875t-0.67188-1.1953q-0.22656-0.71875-0.22656-1.6719 0-0.90625 0.23438-1.625 0.23437-0.72656 0.67187-1.2266 0.44531-0.50781 1.0703-0.77344 0.625-0.27344 1.3984-0.27344 0.82813 0 1.4062 0.26563 0.58594 0.26562 0.96094 0.71875 0.375 0.44531 0.54687 1.0547 0.17969 0.60156 0.17969 1.2891zm-1.2969-0.38281q0.0234-1.0156-0.45313-1.5938-0.46875-0.57812-1.3984-0.57812-0.47656 0-0.83593 0.17968-0.35938 0.17969-0.60157 0.47657-0.24218 0.29687-0.375 0.69531-0.13281 0.39062-0.14843 0.82031z"/>
    <path d="m638 363.16q0 0.71094-0.26562 1.2656-0.25782 0.55468-0.72657 0.94531-0.46093 0.38281-1.0938 0.57812-0.625 0.19532-1.3516 0.19532-0.50781 0-0.94531-0.0859-0.42969-0.0859-0.77344-0.21094-0.33594-0.125-0.57031-0.25781-0.22656-0.13281-0.32031-0.22656-0.0859-0.0937-0.13282-0.23438-0.0391-0.14844-0.0391-0.39062 0-0.17188 0.0156-0.28125 0.0156-0.11719 0.0469-0.1875 0.0312-0.0703 0.0781-0.0937 0.0469-0.0312 0.10937-0.0312 0.10938 0 0.30469 0.13281 0.20312 0.13281 0.51562 0.28906t0.75 0.29688q0.44532 0.13281 1.0234 0.13281 0.4375 0 0.79688-0.11719 0.36718-0.11719 0.625-0.32812 0.26562-0.21875 0.40625-0.53125 0.14062-0.3125 0.14062-0.71094 0-0.42969-0.19531-0.73438-0.19531-0.30468-0.51563-0.53125-0.32031-0.23437-0.73437-0.42187-0.40625-0.19531-0.83594-0.39063-0.42969-0.20312-0.83594-0.44531t-0.72656-0.57031q-0.32031-0.32813-0.52344-0.76563-0.19531-0.44531-0.19531-1.0625 0-0.63281 0.22656-1.125 0.23438-0.5 0.64063-0.83593 0.41406-0.33594 0.97656-0.50782 0.57031-0.17968 1.2266-0.17968 0.33594 0 0.67188 0.0625 0.34375 0.0547 0.64062 0.15625 0.30469 0.0937 0.53907 0.21875 0.23437 0.11718 0.30468 0.19531 0.0781 0.0703 0.10157 0.11719 0.0234 0.0391 0.0391 0.10937 0.0156 0.0625 0.0234 0.15625 8e-3 0.0937 8e-3 0.24219 0 0.14062-0.0156 0.25-8e-3 0.10937-0.0312 0.1875-0.0234 0.0703-0.0703 0.10937-0.0391 0.0312-0.0937 0.0312-0.0859 0-0.27344-0.10937-0.17968-0.10938-0.44531-0.24219-0.26562-0.14062-0.63281-0.25-0.35938-0.11719-0.8125-0.11719-0.42188 0-0.73438 0.11719-0.3125 0.10938-0.51562 0.29688-0.20313 0.1875-0.30469 0.44531t-0.10156 0.54687q0 0.42188 0.19531 0.72657 0.19531 0.30468 0.51563 0.53906 0.32812 0.23437 0.74218 0.42969 0.41407 0.19531 0.84375 0.39843 0.42969 0.19532 0.84375 0.4375 0.41407 0.23438 0.73438 0.5625 0.32812 0.32032 0.52344 0.76563 0.20312 0.4375 0.20312 1.0391z"/>
    <path d="m646.3 362.21q0 0.85937-0.22656 1.5859-0.22657 0.71875-0.67969 1.2422-0.44531 0.52344-1.125 0.82031-0.67188 0.28907-1.5625 0.28907-0.86719 0-1.5156-0.25782-0.64062-0.25781-1.0703-0.75-0.42969-0.49218-0.64062-1.1953-0.21094-0.70312-0.21094-1.5938 0-0.85937 0.21875-1.5781 0.22656-0.72657 0.67187-1.25 0.45313-0.52344 1.125-0.8125 0.67188-0.28907 1.5703-0.28907 0.86718 0 1.5078 0.25782 0.64844 0.25781 1.0781 0.75 0.42969 0.49218 0.64063 1.1953 0.21875 0.70312 0.21875 1.5859zm-1.3594 0.0859q0-0.57031-0.10937-1.0781-0.10156-0.50781-0.34375-0.89063-0.24219-0.38281-0.65625-0.60156-0.41406-0.22656-1.0312-0.22656-0.57031 0-0.98438 0.20312-0.40625 0.20313-0.67187 0.57813-0.26563 0.36719-0.39844 0.875-0.125 0.50781-0.125 1.1094 0 0.57813 0.10156 1.0859 0.10938 0.50781 0.35157 0.89063 0.25 0.375 0.66406 0.60156 0.41406 0.21875 1.0312 0.21875 0.5625 0 0.97656-0.20313 0.41406-0.20312 0.67969-0.57031 0.26562-0.36719 0.39062-0.875t0.125-1.1172z"/>
    <path d="m654.23 365.8q0 0.0625-0.0312 0.10937-0.0234 0.0391-0.0937 0.0703t-0.1875 0.0469q-0.10937 0.0156-0.27343 0.0156-0.17969 0-0.29688-0.0156-0.10937-0.0156-0.17969-0.0469-0.0625-0.0312-0.0859-0.0703-0.0234-0.0469-0.0234-0.10937v-0.92969q-0.60156 0.66406-1.1875 0.96875t-1.1875 0.30469q-0.70313 0-1.1875-0.23438-0.47656-0.23437-0.77344-0.63281-0.29687-0.40625-0.42969-0.9375-0.125-0.53906-0.125-1.3047v-4.2656q0-0.0625 0.0234-0.10157 0.0312-0.0469 0.10938-0.0781 0.0781-0.0391 0.20312-0.0469 0.125-0.0156 0.3125-0.0156t0.3125 0.0156q0.125 8e-3 0.19531 0.0469 0.0781 0.0312 0.10938 0.0781 0.0312 0.0391 0.0312 0.10157v4.0938q0 0.61718 0.0859 0.99218 0.0937 0.36719 0.27343 0.63282 0.1875 0.25781 0.46875 0.40625 0.28125 0.14062 0.65625 0.14062 0.48438 0 0.96094-0.34375 0.48438-0.34375 1.0234-1.0078v-4.9141q0-0.0625 0.0234-0.10157 0.0312-0.0469 0.10937-0.0781 0.0781-0.0391 0.19531-0.0469 0.125-0.0156 0.32032-0.0156 0.1875 0 0.3125 0.0156 0.125 8e-3 0.19531 0.0469 0.0703 0.0312 0.10156 0.0781 0.0391 0.0391 0.0391 0.10157z"/>
    <path d="m662.66 365.8q0 0.0625-0.0312 0.10937-0.0312 0.0391-0.10156 0.0703-0.0703 0.0312-0.19531 0.0469-0.125 0.0156-0.3125 0.0156-0.19531 0-0.32031-0.0156t-0.19532-0.0469q-0.0703-0.0312-0.10156-0.0703-0.0312-0.0469-0.0312-0.10937v-4.1172q0-0.60156-0.0937-0.96875t-0.27344-0.63281q-0.17968-0.26563-0.46875-0.40625-0.28125-0.14063-0.65625-0.14063-0.48437 0-0.96875 0.34375-0.48437 0.34375-1.0156 1.0078v4.9141q0 0.0625-0.0312 0.10937-0.0312 0.0391-0.10156 0.0703-0.0703 0.0312-0.19532 0.0469-0.125 0.0156-0.32031 0.0156-0.1875 0-0.3125-0.0156t-0.20312-0.0469q-0.0703-0.0312-0.10157-0.0703-0.0234-0.0469-0.0234-0.10937v-7.0312q0-0.0625 0.0234-0.10157 0.0234-0.0469 0.0937-0.0781 0.0703-0.0391 0.17969-0.0469 0.10938-0.0156 0.28906-0.0156 0.17188 0 0.28125 0.0156 0.11719 8e-3 0.17969 0.0469 0.0625 0.0312 0.0859 0.0781 0.0312 0.0391 0.0312 0.10157v0.92968q0.59375-0.66406 1.1797-0.96875 0.59375-0.3125 1.1953-0.3125 0.70312 0 1.1797 0.24219 0.48437 0.23438 0.78125 0.63281 0.29687 0.39844 0.42187 0.9375 0.13281 0.53125 0.13281 1.2812z"/>
    <path d="m671.04 365.8q0 0.0625-0.0312 0.10937-0.0234 0.0469-0.0937 0.0781-0.0625 0.0234-0.17187 0.0391-0.10938 0.0156-0.26563 0.0156-0.16406 0-0.27343-0.0156-0.10938-0.0156-0.17969-0.0391-0.0703-0.0312-0.10156-0.0781-0.0312-0.0469-0.0312-0.10937v-0.92969q-0.55469 0.60156-1.1562 0.9375-0.59375 0.33594-1.3047 0.33594-0.77344 0-1.3203-0.29688-0.54688-0.30469-0.89063-0.8125-0.33594-0.51562-0.49219-1.2031-0.15625-0.69532-0.15625-1.4609 0-0.90625 0.19532-1.6328 0.19531-0.73438 0.57812-1.25 0.38281-0.51563 0.94531-0.78907 0.57032-0.28125 1.3125-0.28125 0.61719 0 1.125 0.27344 0.51563 0.26563 1.0156 0.78906v-4.0859q0-0.0547 0.0234-0.10157 0.0312-0.0547 0.10937-0.0781 0.0781-0.0312 0.19531-0.0469 0.125-0.0234 0.3125-0.0234 0.19532 0 0.32032 0.0234 0.125 0.0156 0.19531 0.0469 0.0703 0.0234 0.10156 0.0781 0.0391 0.0469 0.0391 0.10157zm-1.2969-4.9453q-0.52344-0.64843-1.0156-0.98437-0.48437-0.34375-1.0156-0.34375-0.49219 0-0.83594 0.23437-0.34375 0.23438-0.5625 0.61719-0.21094 0.38281-0.3125 0.86719-0.0937 0.48437-0.0937 0.98437 0 0.53125 0.0781 1.0391 0.0859 0.50781 0.28906 0.90625 0.20312 0.39062 0.53906 0.63281 0.33594 0.23437 0.84375 0.23437 0.25781 0 0.49219-0.0703 0.24219-0.0703 0.49219-0.23437t0.52343-0.42188q0.27344-0.26562 0.57813-0.64844z"/>
   </g>
   <g transform="translate(0,-130)" aria-label="Power">
    <path d="m790.03 359.85q0 0.75781-0.25 1.3672-0.25 0.60937-0.71875 1.0391-0.46093 0.42969-1.1406 0.66406-0.67188 0.23438-1.6094 0.23438h-1.1484v3.6406q0 0.0625-0.0391 0.10938-0.0312 0.0469-0.10937 0.0781-0.0703 0.0234-0.20313 0.0391-0.125 0.0234-0.32031 0.0234t-0.32812-0.0234q-0.125-0.0156-0.20313-0.0391-0.0781-0.0312-0.10937-0.0781-0.0312-0.0469-0.0312-0.10938v-9.3281q0-0.3125 0.16406-0.44531 0.16406-0.13282 0.36719-0.13282h2.1641q0.32812 0 0.625 0.0312 0.30469 0.0234 0.71094 0.11719 0.41406 0.0859 0.83593 0.33594 0.42969 0.24219 0.72657 0.60156 0.29687 0.35938 0.45312 0.83594 0.16406 0.46875 0.16406 1.0391zm-1.4141 0.10938q0-0.61719-0.23437-1.0312-0.22657-0.41407-0.57032-0.61719-0.33593-0.20313-0.70312-0.25781-0.35938-0.05469-0.70313-0.05469h-1.2422v4.0547h1.2109q0.60938 0 1.0078-0.15625 0.40625-0.15625 0.67968-0.42969 0.27344-0.28125 0.41407-0.66406 0.14062-0.39063 0.14062-0.84375z"/>
    <path d="m798.18 363.21q0 0.85937-0.22656 1.5859-0.22656 0.71875-0.67969 1.2422-0.44531 0.52344-1.125 0.82031-0.67187 0.28907-1.5625 0.28907-0.86719 0-1.5156-0.25782-0.64063-0.25781-1.0703-0.75-0.42968-0.49218-0.64062-1.1953-0.21094-0.70312-0.21094-1.5938 0-0.85937 0.21875-1.5781 0.22656-0.72657 0.67188-1.25 0.45312-0.52344 1.125-0.8125 0.67187-0.28907 1.5703-0.28907 0.86719 0 1.5078 0.25782 0.64844 0.25781 1.0781 0.75 0.42968 0.49218 0.64062 1.1953 0.21875 0.70312 0.21875 1.5859zm-1.3594 0.0859q0-0.57031-0.10938-1.0781-0.10156-0.50781-0.34375-0.89063-0.24219-0.38281-0.65625-0.60156-0.41406-0.22656-1.0312-0.22656-0.57031 0-0.98437 0.20312-0.40625 0.20313-0.67188 0.57813-0.26562 0.36719-0.39844 0.875-0.125 0.50781-0.125 1.1094 0 0.57813 0.10157 1.0859 0.10937 0.50781 0.35156 0.89063 0.25 0.375 0.66406 0.60156 0.41406 0.21875 1.0312 0.21875 0.5625 0 0.97656-0.20313 0.41407-0.20312 0.67969-0.57031 0.26563-0.36719 0.39063-0.875t0.125-1.1172z"/>
    <path d="m809.85 359.76q0 0.0547-0.0156 0.13281-0.0156 0.0781-0.0547 0.19532l-2.0703 6.6797q-0.0234 0.0859-0.0781 0.14063-0.0469 0.0547-0.14063 0.0859-0.0859 0.0312-0.24219 0.0391-0.15625 0.0156-0.39062 0.0156-0.24219 0-0.40625-0.0156t-0.26563-0.0469q-0.0937-0.0312-0.14062-0.0859-0.0469-0.0547-0.0703-0.13282l-1.4766-5.1016-0.0156-0.0703-0.0156 0.0703-1.3672 5.1016q-0.0234 0.0859-0.0781 0.14063-0.0469 0.0547-0.14844 0.0859-0.10156 0.0312-0.26562 0.0391-0.15625 0.0156-0.39063 0.0156-0.24218 0-0.39843-0.0156-0.14844-0.0156-0.25-0.0469-0.0937-0.0312-0.14063-0.0859-0.0469-0.0547-0.0703-0.13282l-2.0547-6.6797q-0.0391-0.11719-0.0547-0.19532-0.0156-0.0781-0.0156-0.13281 0-0.0703 0.0312-0.10937 0.0312-0.0469 0.10156-0.0703 0.0781-0.0312 0.20313-0.0391 0.125-8e-3 0.30468-8e-3 0.21875 0 0.35157 0.0156 0.13281 8e-3 0.20312 0.0391 0.0703 0.0234 0.10156 0.0781 0.0312 0.0469 0.0547 0.11719l1.6953 5.7969 0.0156 0.0703 0.0156-0.0703 1.5547-5.7969q0.0156-0.0703 0.0469-0.11719 0.0391-0.0547 0.10937-0.0781 0.0703-0.0312 0.1875-0.0391 0.125-0.0156 0.32031-0.0156 0.1875 0 0.30469 0.0156 0.125 8e-3 0.19531 0.0391 0.0703 0.0234 0.10157 0.0703 0.0312 0.0469 0.0469 0.10937l1.6797 5.8125 0.0156 0.0703 8e-3 -0.0703 1.6719-5.7969q0.0156-0.0703 0.0469-0.11719 0.0391-0.0547 0.10937-0.0781 0.0781-0.0312 0.20313-0.0391 0.13281-0.0156 0.33593-0.0156 0.1875 0 0.29688 8e-3 0.11719 8e-3 0.17969 0.0391 0.0703 0.0312 0.0937 0.0703 0.0312 0.0391 0.0312 0.10937z"/>
    <path d="m817.33 362.98q0 0.30469-0.15625 0.4375-0.14844 0.125-0.34375 0.125h-4.6094q0 0.58594 0.11719 1.0547t0.39063 0.80469q0.27343 0.33594 0.71093 0.51562 0.4375 0.17969 1.0703 0.17969 0.5 0 0.89062-0.0781 0.39063-0.0859 0.67188-0.1875 0.28906-0.10157 0.46875-0.17969 0.1875-0.0859 0.28125-0.0859 0.0547 0 0.0937 0.0312 0.0469 0.0234 0.0703 0.0781t0.0312 0.15625q0.0156 0.0937 0.0156 0.23437 0 0.10156-8e-3 0.17969-8e-3 0.0703-0.0234 0.13281-8e-3 0.0547-0.0391 0.10156-0.0234 0.0469-0.0703 0.0937-0.0391 0.0391-0.25 0.14063-0.21094 0.0937-0.54688 0.1875-0.33593 0.0937-0.78125 0.16406-0.4375 0.0781-0.9375 0.0781-0.86718 0-1.5234-0.24219-0.64844-0.24219-1.0938-0.71875-0.44532-0.47656-0.67188-1.1953t-0.22656-1.6719q0-0.90625 0.23437-1.625 0.23438-0.72656 0.67188-1.2266 0.44531-0.50781 1.0703-0.77344 0.625-0.27344 1.3984-0.27344 0.82812 0 1.4062 0.26563 0.58594 0.26562 0.96094 0.71875 0.375 0.44531 0.54687 1.0547 0.17969 0.60156 0.17969 1.2891zm-1.2969-0.38281q0.0234-1.0156-0.45312-1.5938-0.46875-0.57812-1.3984-0.57812-0.47656 0-0.83594 0.17968-0.35937 0.17969-0.60156 0.47657-0.24219 0.29687-0.375 0.69531-0.13281 0.39062-0.14844 0.82031z"/>
    <path d="m823.6 360.23q0 0.17188-8e-3 0.28907-8e-3 0.11718-0.0312 0.1875-0.0234 0.0625-0.0625 0.10156-0.0312 0.0312-0.0937 0.0312t-0.15625-0.0312q-0.0859-0.0391-0.20313-0.0703-0.10937-0.0391-0.25-0.0703-0.14062-0.0312-0.30469-0.0312-0.19531 0-0.38281 0.0781t-0.39844 0.25781q-0.20312 0.17969-0.42968 0.47656-0.22657 0.29688-0.5 0.72657v4.625q0 0.0625-0.0312 0.10937-0.0312 0.0391-0.10157 0.0703-0.0703 0.0312-0.19531 0.0469-0.125 0.0156-0.32031 0.0156-0.1875 0-0.3125-0.0156t-0.20313-0.0469q-0.0703-0.0312-0.10156-0.0703-0.0234-0.0469-0.0234-0.10937v-7.0312q0-0.0625 0.0234-0.10157 0.0234-0.0469 0.0937-0.0781 0.0703-0.0391 0.17969-0.0469 0.10937-0.0156 0.28906-0.0156 0.17188 0 0.28125 0.0156 0.11719 8e-3 0.17969 0.0469 0.0625 0.0312 0.0859 0.0781 0.0312 0.0391 0.0312 0.10157v1.0234q0.28906-0.42187 0.53906-0.6875 0.25781-0.26562 0.48437-0.41406 0.22657-0.15625 0.44532-0.21094 0.22656-0.0625 0.45312-0.0625 0.10156 0 0.22656 0.0156 0.13282 8e-3 0.27344 0.0391 0.14063 0.0312 0.25 0.0703 0.11719 0.0391 0.16406 0.0781 0.0469 0.0391 0.0625 0.0781 0.0156 0.0312 0.0234 0.0859 0.0156 0.0547 0.0156 0.16406 8e-3 0.10157 8e-3 0.28125z"/>
   </g>
   <path d="m136.22 299.91h11.54l15.952 20.689 19.685-66.977 18.328 76.445 17.649-55.055 7.4668 24.196 33.94-0.35067" fill="none" stroke="#000" stroke-linejoin="round" stroke-width="7.2504"/>
  </g>
 </g>
</svg>
