<?xml version="1.0" encoding="UTF-8" standalone="no"?>
<svg
   xmlns:dc="http://purl.org/dc/elements/1.1/"
   xmlns:cc="http://creativecommons.org/ns#"
   xmlns:rdf="http://www.w3.org/1999/02/22-rdf-syntax-ns#"
   xmlns:svg="http://www.w3.org/2000/svg"
   xmlns="http://www.w3.org/2000/svg"
   xmlns:sodipodi="http://sodipodi.sourceforge.net/DTD/sodipodi-0.dtd"
   xmlns:inkscape="http://www.inkscape.org/namespaces/inkscape"
   width="689.78003"
   height="114.88281"
   overflow="hidden"
   version="1.1"
   id="svg112"
   sodipodi:docname="condition_monitoring_web.svg"
   inkscape:version="1.0 (4035a4fb49, 2020-05-01)">
  <sodipodi:namedview
     inkscape:document-rotation="0"
     pagecolor="#ffffff"
     bordercolor="#666666"
     borderopacity="1"
     objecttolerance="10"
     gridtolerance="10"
     guidetolerance="10"
     inkscape:pageopacity="0"
     inkscape:pageshadow="2"
     inkscape:window-width="1920"
     inkscape:window-height="1017"
     id="namedview114"
     showgrid="false"
     fit-margin-top="0"
     fit-margin-left="0"
     fit-margin-right="0"
     fit-margin-bottom="0"
     inkscape:zoom="1.0753501"
     inkscape:cx="432.23194"
     inkscape:cy="127.55987"
     inkscape:window-x="-8"
     inkscape:window-y="-8"
     inkscape:window-maximized="1"
     inkscape:current-layer="g110" />
  <metadata
     id="metadata2">
    <rdf:RDF>
      <cc:Work
         rdf:about="">
        <dc:format>image/svg+xml</dc:format>
        <dc:type
           rdf:resource="http://purl.org/dc/dcmitype/StillImage" />
        <dc:title />
      </cc:Work>
    </rdf:RDF>
  </metadata>
  <defs
     id="defs40">
    <clipPath
       id="clip1">
      <rect
         x="296"
         y="239"
         width="96"
         height="96"
         id="rect4" />
    </clipPath>
    <clipPath
       id="clip2">
      <rect
         x="296"
         y="239"
         width="96"
         height="96"
         id="rect7" />
    </clipPath>
    <clipPath
       id="clip3">
      <rect
         x="296"
         y="239"
         width="96"
         height="96"
         id="rect10" />
    </clipPath>
    <clipPath
       id="clip4">
      <rect
         x="442"
         y="239"
         width="96"
         height="96"
         id="rect13" />
    </clipPath>
    <clipPath
       id="clip5">
      <rect
         x="442"
         y="239"
         width="96"
         height="96"
         id="rect16" />
    </clipPath>
    <clipPath
       id="clip6">
      <rect
         x="442"
         y="239"
         width="96"
         height="96"
         id="rect19" />
    </clipPath>
    <clipPath
       id="clip7">
      <rect
         x="594"
         y="224"
         width="137"
         height="137"
         id="rect22" />
    </clipPath>
    <clipPath
       id="clip8">
      <rect
         x="594"
         y="224"
         width="137"
         height="137"
         id="rect25" />
    </clipPath>
    <clipPath
       id="clip9">
      <rect
         x="594"
         y="224"
         width="137"
         height="137"
         id="rect28" />
    </clipPath>
    <clipPath
       id="clip13">
      <rect
         x="758"
         y="250"
         width="96"
         height="96"
         id="rect31" />
    </clipPath>
    <clipPath
       id="clip14">
      <rect
         x="758"
         y="250"
         width="96"
         height="96"
         id="rect34" />
    </clipPath>
    <clipPath
       id="clip15">
      <rect
         x="758"
         y="250"
         width="96"
         height="96"
         id="rect37" />
    </clipPath>
  </defs>
  <g
     transform="translate(-136.22,-224.11719)"
     id="g110">
    <g
       id="g945"
       transform="translate(0,-130)" />
    <g
       id="g1071">
      <g
         id="g50"
         clip-path="url(#clip1)">
        <g
           id="g48"
           clip-path="url(#clip2)">
          <g
             id="g46"
             clip-path="url(#clip3)">
            <path
               id="path42"
               d="m 344,325.3 c -6.5,0 -12.2,-4.6 -13.6,-10.9 -1.5,-6.4 1.7,-12.9 7.6,-15.7 v -44 c 0,-3.3 2.7,-6 6,-6 3.3,0 6,2.7 6,6 v 44 c 5.9,2.8 9,9.3 7.6,15.7 -1.5,6.3 -7.1,10.8 -13.6,10.9 z m 12,-30 v -40.6 c 0,-6.6 -5.4,-12 -12,-12 -6.6,0 -12,5.3 -12,12 v 40.6 c -6.9,5.2 -9.7,14.2 -7,22.3 2.7,8.2 10.4,13.7 19,13.7 8.6,0 16.3,-5.5 19,-13.7 2.7,-8.1 -0.1,-17.1 -7,-22.3 z" />
            <path
               id="path44"
               d="m 346,301.5 v -24.2 h -4 v 24.2 c -5,1 -8.5,5.7 -7.9,10.8 0.5,5.1 4.8,9 9.9,9 5.1,0 9.4,-3.9 9.9,-9 0.6,-5.1 -2.9,-9.8 -7.9,-10.8 z" />
          </g>
        </g>
      </g>
      <g
         id="g62"
         clip-path="url(#clip4)">
        <g
           id="g60"
           clip-path="url(#clip5)">
          <g
             id="g58"
             clip-path="url(#clip6)">
            <path
               id="path52"
               d="m 488,269.1 v 4 c 0.7,0 1.3,-0.1 2,-0.1 0.7,0 1.3,0 2,0.1 v -4 c 3.9,0.2 7.6,1 11,2.3 l -1.5,3.6 c 1.3,0.5 2.5,1 3.7,1.6 l 1.5,-3.7 c 1.9,0.9 3.6,2 5.3,3.2 l 4.3,-4.3 C 509,266.3 499.9,263 490,263 c -24.3,0 -44,19.7 -44,44 v 4 h 6 v -4 c 0,-4.1 0.7,-8.1 1.9,-11.8 l 3.7,1.5 c 0.4,-1.3 0.9,-2.5 1.4,-3.7 l -3.7,-1.5 c 1.5,-3.4 3.6,-6.6 6,-9.3 l 2.8,2.8 c 0.9,-1 1.8,-2 2.8,-2.9 l -2.8,-2.8 c 2.7,-2.5 5.8,-4.7 9.2,-6.4 l 1.5,3.7 c 1.2,-0.6 2.4,-1.1 3.7,-1.6 l -1.5,-3.7 c 3.4,-1.3 7.1,-2 11,-2.2 z" />
            <path
               id="path54"
               d="m 526.1,281.8 -4.3,4.3 c 1.1,1.7 2.1,3.5 2.9,5.3 L 521,293 c 0.5,1.2 1,2.5 1.4,3.7 l 3.7,-1.5 c 1.2,3.7 1.9,7.7 1.9,11.8 v 4 h 6 v -4 c 0,-9.4 -2.9,-18 -7.9,-25.2 z" />
            <path
               id="path56"
               d="m 487.2,305.2 c -0.2,0.1 -0.3,0.3 -0.5,0.5 -1.4,1.7 -1.2,4.2 0.5,5.7 1.7,1.4 4.2,1.2 5.7,-0.5 L 524,274 Z" />
          </g>
        </g>
      </g>
      <g
         id="g86"
         clip-path="url(#clip7)">
        <g
           id="g84"
           clip-path="url(#clip8)">
          <g
             id="g82"
             clip-path="url(#clip9)">
            <path
               id="path64"
               d="m 715.3,285.79 h 8.563 v 13.272 H 715.3 Z" />
            <path
               id="path66"
               d="m 686.76,285.79 h 8.563 v 13.272 h -8.563 z" />
            <path
               id="path68"
               d="m 601.14,285.79 h 8.563 v 13.272 h -8.563 z" />
            <path
               id="path70"
               d="m 701.03,279.23 h 8.563 v 26.687 h -8.563 z" />
            <path
               id="path72"
               d="m 672.49,279.23 h 8.562 v 26.687 h -8.562 z" />
            <path
               id="path74"
               d="m 615.41,279.23 h 8.563 v 26.687 h -8.563 z" />
            <path
               id="path76"
               d="m 658.22,272.52 h 8.562 v 39.958 h -8.562 z" />
            <path
               id="path78"
               d="m 629.68,265.81 h 8.563 v 53.23 h -8.563 z" />
            <path
               id="path80"
               d="m 643.95,252.54 h 8.562 v 79.916 h -8.562 z" />
          </g>
        </g>
      </g>
      <g
         id="g102"
         clip-path="url(#clip13)">
        <g
           id="g100"
           clip-path="url(#clip14)">
          <g
             id="g98"
             clip-path="url(#clip15)">
            <path
               id="path96"
               d="m 792,339 11,-37 h -17 l 8.42,-44.76 h 25.16 L 809,290 h 17 z" />
          </g>
        </g>
      </g>
      <g
         transform="translate(0,-130)"
         aria-label="VibrationTemperaturePressureSound"
         id="text94"
         style="font-weight:400;font-size:16px;font-family:Calibri, Calibri_MSFontService, sans-serif">
        <path
           d="m 164.20969,364.76562 q -0.0312,0.0859 -0.0859,0.14063 -0.0547,0.0547 -0.15625,0.0859 -0.0937,0.0312 -0.25,0.0391 -0.14844,0.0156 -0.375,0.0156 -0.17188,0 -0.30469,-0.008 -0.125,0 -0.21875,-0.0156 -0.0937,-0.0156 -0.16406,-0.0312 -0.0625,-0.0234 -0.10938,-0.0547 -0.0469,-0.0312 -0.0781,-0.0703 -0.0234,-0.0469 -0.0469,-0.10938 l -3.30468,-9.39062 q -0.0625,-0.17188 -0.0703,-0.27344 0,-0.10938 0.0703,-0.16406 0.0703,-0.0547 0.22656,-0.0703 0.15625,-0.0156 0.42187,-0.0156 0.21875,0 0.34375,0.0156 0.13282,0.008 0.20313,0.0391 0.0703,0.0312 0.10156,0.0859 0.0391,0.0469 0.0703,0.125 l 2.89844,8.50782 h 0.008 l 2.82032,-8.49219 q 0.0234,-0.0859 0.0547,-0.14063 0.0312,-0.0547 0.10938,-0.0859 0.0781,-0.0312 0.21875,-0.0391 0.14062,-0.0156 0.375,-0.0156 0.24219,0 0.38281,0.0234 0.14063,0.0156 0.1875,0.0703 0.0547,0.0547 0.0391,0.16406 -0.008,0.10156 -0.0703,0.27344 z"
           style="font-weight:400;font-size:16px;font-family:Calibri, Calibri_MSFontService, sans-serif"
           id="path889" />
        <path
           d="m 170.35812,364.80469 q 0,0.0625 -0.0312,0.10937 -0.0312,0.0391 -0.10156,0.0703 -0.0703,0.0312 -0.19531,0.0469 -0.125,0.0156 -0.32031,0.0156 -0.1875,0 -0.3125,-0.0156 -0.125,-0.0156 -0.20313,-0.0469 -0.0703,-0.0312 -0.10156,-0.0703 -0.0234,-0.0469 -0.0234,-0.10937 v -7.03125 q 0,-0.0547 0.0234,-0.10157 0.0312,-0.0469 0.10156,-0.0781 0.0781,-0.0312 0.20313,-0.0469 0.125,-0.0156 0.3125,-0.0156 0.19531,0 0.32031,0.0156 0.125,0.0156 0.19531,0.0469 0.0703,0.0312 0.10156,0.0781 0.0312,0.0469 0.0312,0.10157 z m 0.14844,-9.40625 q 0,0.45312 -0.17187,0.61718 -0.17188,0.16407 -0.63282,0.16407 -0.45312,0 -0.625,-0.15625 -0.16406,-0.16407 -0.16406,-0.60938 0,-0.45312 0.17188,-0.61719 0.17187,-0.16406 0.63281,-0.16406 0.45312,0 0.61719,0.16406 0.17187,0.15625 0.17187,0.60157 z"
           style="font-weight:400;font-size:16px;font-family:Calibri, Calibri_MSFontService, sans-serif"
           id="path891" />
        <path
           d="m 179.22531,361.19531 q 0,0.91406 -0.20312,1.64844 -0.19532,0.72656 -0.58594,1.24219 -0.38281,0.51562 -0.94531,0.78906 -0.5625,0.27344 -1.28907,0.27344 -0.33593,0 -0.625,-0.0703 -0.28125,-0.0625 -0.55468,-0.21093 -0.27344,-0.14844 -0.54688,-0.375 -0.27344,-0.22657 -0.57812,-0.54688 v 0.85938 q 0,0.0625 -0.0312,0.10937 -0.0312,0.0469 -0.10157,0.0781 -0.0703,0.0234 -0.17968,0.0391 -0.10157,0.0156 -0.26563,0.0156 -0.15625,0 -0.26562,-0.0156 -0.10938,-0.0156 -0.17969,-0.0391 -0.0703,-0.0312 -0.0937,-0.0781 -0.0234,-0.0469 -0.0234,-0.10937 v -10.4375 q 0,-0.0625 0.0234,-0.10938 0.0312,-0.0469 0.10156,-0.0781 0.0781,-0.0312 0.20313,-0.0469 0.125,-0.0156 0.3125,-0.0156 0.19531,0 0.32031,0.0156 0.125,0.0156 0.19531,0.0469 0.0703,0.0312 0.10156,0.0781 0.0312,0.0469 0.0312,0.10938 v 4.21093 q 0.3125,-0.32031 0.60157,-0.53906 0.29687,-0.21875 0.57812,-0.35156 0.28125,-0.14063 0.5625,-0.20313 0.28125,-0.0625 0.59375,-0.0625 0.76563,0 1.30469,0.30469 0.54687,0.30469 0.88281,0.82031 0.34375,0.50782 0.5,1.19532 0.15625,0.6875 0.15625,1.45312 z m -1.35937,0.14844 q 0,-0.53906 -0.0859,-1.04688 -0.0781,-0.50781 -0.28125,-0.89843 -0.20313,-0.39063 -0.53906,-0.625 -0.33594,-0.24219 -0.83594,-0.24219 -0.25,0 -0.49219,0.0703 -0.24219,0.0703 -0.49219,0.23438 -0.25,0.16406 -0.52343,0.42187 -0.26563,0.25781 -0.57032,0.64844 v 2.80469 q 0.53125,0.64843 1.01563,0.99218 0.48437,0.33594 1.00781,0.33594 0.48438,0 0.82813,-0.23437 0.34375,-0.23438 0.55468,-0.61719 0.21875,-0.39063 0.3125,-0.86719 0.10157,-0.48437 0.10157,-0.97656 z"
           style="font-weight:400;font-size:16px;font-family:Calibri, Calibri_MSFontService, sans-serif"
           id="path893" />
        <path
           d="m 185.27219,358.23437 q 0,0.17188 -0.008,0.28907 -0.008,0.11718 -0.0312,0.1875 -0.0234,0.0625 -0.0625,0.10156 -0.0312,0.0312 -0.0937,0.0312 -0.0625,0 -0.15625,-0.0312 -0.0859,-0.0391 -0.20312,-0.0703 -0.10938,-0.0391 -0.25,-0.0703 -0.14063,-0.0312 -0.30469,-0.0312 -0.19531,0 -0.38281,0.0781 -0.1875,0.0781 -0.39844,0.25781 -0.20312,0.17969 -0.42969,0.47656 -0.22656,0.29688 -0.5,0.72657 v 4.625 q 0,0.0625 -0.0312,0.10937 -0.0312,0.0391 -0.10156,0.0703 -0.0703,0.0312 -0.19531,0.0469 -0.125,0.0156 -0.32031,0.0156 -0.1875,0 -0.3125,-0.0156 -0.125,-0.0156 -0.20313,-0.0469 -0.0703,-0.0312 -0.10156,-0.0703 -0.0234,-0.0469 -0.0234,-0.10937 v -7.03125 q 0,-0.0625 0.0234,-0.10157 0.0234,-0.0469 0.0937,-0.0781 0.0703,-0.0391 0.17969,-0.0469 0.10937,-0.0156 0.28906,-0.0156 0.17187,0 0.28125,0.0156 0.11719,0.008 0.17969,0.0469 0.0625,0.0312 0.0859,0.0781 0.0312,0.0391 0.0312,0.10157 v 1.02343 q 0.28907,-0.42187 0.53907,-0.6875 0.25781,-0.26562 0.48437,-0.41406 0.22656,-0.15625 0.44531,-0.21094 0.22657,-0.0625 0.45313,-0.0625 0.10156,0 0.22656,0.0156 0.13281,0.008 0.27344,0.0391 0.14062,0.0312 0.25,0.0703 0.11719,0.0391 0.16406,0.0781 0.0469,0.0391 0.0625,0.0781 0.0156,0.0312 0.0234,0.0859 0.0156,0.0547 0.0156,0.16406 0.008,0.10157 0.008,0.28125 z"
           style="font-weight:400;font-size:16px;font-family:Calibri, Calibri_MSFontService, sans-serif"
           id="path895" />
        <path
           d="m 191.74094,364.8125 q 0,0.0937 -0.0625,0.14062 -0.0625,0.0469 -0.17188,0.0703 -0.10937,0.0234 -0.32031,0.0234 -0.20313,0 -0.32813,-0.0234 -0.11718,-0.0234 -0.17187,-0.0703 -0.0547,-0.0469 -0.0547,-0.14062 v -0.70313 q -0.46094,0.49219 -1.03125,0.76563 -0.5625,0.27344 -1.19531,0.27344 -0.55469,0 -1.00781,-0.14844 -0.44532,-0.14063 -0.76563,-0.41406 -0.3125,-0.27344 -0.49219,-0.67188 -0.17187,-0.39844 -0.17187,-0.90625 0,-0.59375 0.24219,-1.03125 0.24218,-0.4375 0.69531,-0.72656 0.45312,-0.28906 1.10937,-0.42969 0.65625,-0.14844 1.47657,-0.14844 h 0.96875 V 360.125 q 0,-0.40625 -0.0859,-0.71875 -0.0859,-0.3125 -0.28125,-0.51563 -0.1875,-0.21093 -0.49219,-0.3125 -0.30469,-0.10937 -0.75,-0.10937 -0.47656,0 -0.85937,0.11719 -0.375,0.10937 -0.66407,0.25 -0.28125,0.13281 -0.47656,0.25 -0.1875,0.10937 -0.28125,0.10937 -0.0625,0 -0.10937,-0.0312 -0.0469,-0.0312 -0.0859,-0.0937 -0.0312,-0.0625 -0.0469,-0.15625 -0.0156,-0.10156 -0.0156,-0.21875 0,-0.19531 0.0234,-0.30469 0.0312,-0.11718 0.13281,-0.21875 0.10937,-0.10156 0.36719,-0.23437 0.25781,-0.14063 0.59375,-0.25 0.33593,-0.11719 0.73437,-0.1875 0.39844,-0.0781 0.80469,-0.0781 0.75781,0 1.28906,0.17188 0.53125,0.17187 0.85938,0.50781 0.32812,0.32813 0.47656,0.82031 0.14844,0.49219 0.14844,1.14844 z m -1.28125,-3.21094 h -1.10157 q -0.53125,0 -0.92187,0.0937 -0.39063,0.0859 -0.64844,0.26563 -0.25781,0.17187 -0.38281,0.42187 -0.11719,0.24219 -0.11719,0.5625 0,0.54688 0.34375,0.875 0.35156,0.32031 0.97656,0.32031 0.50782,0 0.9375,-0.25781 0.4375,-0.25781 0.91407,-0.78906 z"
           style="font-weight:400;font-size:16px;font-family:Calibri, Calibri_MSFontService, sans-serif"
           id="path897" />
        <path
           d="m 200.06125,357.57031 q 0.23437,0 0.32031,0.10938 0.0859,0.10156 0.0859,0.30468 v 6.82032 q 0,0.0625 -0.0312,0.10937 -0.0312,0.0391 -0.10938,0.0703 -0.0703,0.0312 -0.19531,0.0469 -0.125,0.0156 -0.30469,0.0156 -0.19531,0 -0.32031,-0.0156 -0.125,-0.0156 -0.20312,-0.0469 -0.0703,-0.0312 -0.10157,-0.0703 -0.0312,-0.0469 -0.0312,-0.10937 v -6.16407 h -3.63281 v 3.92188 q 0,0.72656 0.21094,1.10156 0.21875,0.36719 0.77344,0.36719 0.17968,0 0.32031,-0.0312 0.14062,-0.0391 0.25,-0.0781 0.10937,-0.0391 0.1875,-0.0703 0.0781,-0.0391 0.14062,-0.0391 0.0391,0 0.0703,0.0234 0.0391,0.0156 0.0547,0.0703 0.0234,0.0547 0.0391,0.14844 0.0156,0.0937 0.0156,0.23437 0,0.22656 -0.0312,0.35938 -0.0312,0.125 -0.0937,0.19531 -0.0625,0.0625 -0.1875,0.11719 -0.125,0.0547 -0.28906,0.0859 -0.15625,0.0391 -0.33594,0.0625 -0.17969,0.0234 -0.35937,0.0234 -0.54688,0 -0.9375,-0.14062 -0.39063,-0.14844 -0.64063,-0.4375 -0.25,-0.29688 -0.36719,-0.74219 -0.10937,-0.45313 -0.10937,-1.0625 v -4.10938 h -0.98438 q -0.11718,0 -0.1875,-0.125 -0.0703,-0.125 -0.0703,-0.40625 0,-0.14843 0.0156,-0.25 0.0234,-0.10156 0.0547,-0.16406 0.0312,-0.0703 0.0781,-0.0937 0.0547,-0.0312 0.11719,-0.0312 h 0.97656 v -1.67187 q 0,-0.0547 0.0234,-0.10157 0.0312,-0.0469 0.10156,-0.0781 0.0781,-0.0391 0.20312,-0.0547 0.125,-0.0156 0.3125,-0.0156 0.19532,0 0.32032,0.0156 0.125,0.0156 0.19531,0.0547 0.0703,0.0312 0.10156,0.0781 0.0312,0.0469 0.0312,0.10157 v 1.67187 z m 0.55469,-2.17187 q 0,0.45312 -0.17188,0.61718 -0.17187,0.16407 -0.63281,0.16407 -0.45313,0 -0.625,-0.15625 -0.16406,-0.16407 -0.16406,-0.60938 0,-0.45312 0.17187,-0.61719 0.17188,-0.16406 0.63281,-0.16406 0.45313,0 0.61719,0.16406 0.17188,0.15625 0.17188,0.60157 z m -2.63282,2.17187 z"
           style="font-weight:400;font-size:16px;font-family:Calibri, Calibri_MSFontService, sans-serif"
           id="path899" />
        <path
           d="m 209.38937,361.21094 q 0,0.85937 -0.22656,1.58593 -0.22656,0.71875 -0.67969,1.24219 -0.44531,0.52344 -1.125,0.82031 -0.67187,0.28907 -1.5625,0.28907 -0.86718,0 -1.51562,-0.25782 -0.64063,-0.25781 -1.07031,-0.75 -0.42969,-0.49218 -0.64063,-1.19531 -0.21094,-0.70312 -0.21094,-1.59375 0,-0.85937 0.21875,-1.57812 0.22657,-0.72657 0.67188,-1.25 0.45312,-0.52344 1.125,-0.8125 0.67187,-0.28907 1.57031,-0.28907 0.86719,0 1.50781,0.25782 0.64844,0.25781 1.07813,0.75 0.42969,0.49218 0.64062,1.19531 0.21875,0.70312 0.21875,1.58594 z m -1.35937,0.0859 q 0,-0.57031 -0.10938,-1.07812 -0.10156,-0.50781 -0.34375,-0.89063 -0.24218,-0.38281 -0.65625,-0.60156 -0.41406,-0.22656 -1.03125,-0.22656 -0.57031,0 -0.98437,0.20312 -0.40625,0.20313 -0.67188,0.57813 -0.26562,0.36719 -0.39843,0.875 -0.125,0.50781 -0.125,1.10937 0,0.57813 0.10156,1.08594 0.10937,0.50781 0.35156,0.89063 0.25,0.375 0.66406,0.60156 0.41407,0.21875 1.03125,0.21875 0.5625,0 0.97657,-0.20313 0.41406,-0.20312 0.67968,-0.57031 0.26563,-0.36719 0.39063,-0.875 0.125,-0.50781 0.125,-1.11719 z"
           style="font-weight:400;font-size:16px;font-family:Calibri, Calibri_MSFontService, sans-serif"
           id="path901" />
        <path
           d="m 217.3425,364.80469 q 0,0.0625 -0.0312,0.10937 -0.0312,0.0391 -0.10156,0.0703 -0.0703,0.0312 -0.19532,0.0469 -0.125,0.0156 -0.3125,0.0156 -0.19531,0 -0.32031,-0.0156 -0.125,-0.0156 -0.19531,-0.0469 -0.0703,-0.0312 -0.10156,-0.0703 -0.0312,-0.0469 -0.0312,-0.10937 v -4.11719 q 0,-0.60156 -0.0937,-0.96875 -0.0937,-0.36719 -0.27344,-0.63281 -0.17969,-0.26563 -0.46875,-0.40625 -0.28125,-0.14063 -0.65625,-0.14063 -0.48438,0 -0.96875,0.34375 -0.48438,0.34375 -1.01563,1.00781 v 4.91407 q 0,0.0625 -0.0312,0.10937 -0.0312,0.0391 -0.10156,0.0703 -0.0703,0.0312 -0.19531,0.0469 -0.125,0.0156 -0.32031,0.0156 -0.1875,0 -0.3125,-0.0156 -0.125,-0.0156 -0.20313,-0.0469 -0.0703,-0.0312 -0.10156,-0.0703 -0.0234,-0.0469 -0.0234,-0.10937 v -7.03125 q 0,-0.0625 0.0234,-0.10157 0.0234,-0.0469 0.0937,-0.0781 0.0703,-0.0391 0.17969,-0.0469 0.10937,-0.0156 0.28906,-0.0156 0.17187,0 0.28125,0.0156 0.11719,0.008 0.17969,0.0469 0.0625,0.0312 0.0859,0.0781 0.0312,0.0391 0.0312,0.10157 v 0.92968 q 0.59375,-0.66406 1.17969,-0.96875 0.59375,-0.3125 1.19531,-0.3125 0.70313,0 1.17969,0.24219 0.48438,0.23438 0.78125,0.63281 0.29688,0.39844 0.42188,0.9375 0.13281,0.53125 0.13281,1.28125 z"
           style="font-weight:400;font-size:16px;font-family:Calibri, Calibri_MSFontService, sans-serif"
           id="path903" />
        <path
           d="m 309.72269,355.46875 q 0,0.14844 -0.0156,0.25781 -0.0156,0.10938 -0.0547,0.17969 -0.0312,0.0625 -0.0859,0.0937 -0.0469,0.0312 -0.10938,0.0312 h -2.84375 v 8.76562 q 0,0.0625 -0.0312,0.10938 -0.0312,0.0469 -0.10937,0.0781 -0.0781,0.0234 -0.21094,0.0391 -0.125,0.0234 -0.32031,0.0234 -0.1875,0 -0.32032,-0.0234 -0.13281,-0.0156 -0.21093,-0.0391 -0.0781,-0.0312 -0.10938,-0.0781 -0.0312,-0.0469 -0.0312,-0.10938 v -8.76562 h -2.84375 q -0.0625,0 -0.11719,-0.0312 -0.0469,-0.0312 -0.0781,-0.0937 -0.0312,-0.0703 -0.0547,-0.17969 -0.0156,-0.10937 -0.0156,-0.25781 0,-0.14844 0.0156,-0.25781 0.0234,-0.11719 0.0547,-0.1875 0.0312,-0.0703 0.0781,-0.10157 0.0547,-0.0312 0.11719,-0.0312 h 7.03125 q 0.0625,0 0.10938,0.0312 0.0547,0.0312 0.0859,0.10157 0.0391,0.0703 0.0547,0.1875 0.0156,0.10937 0.0156,0.25781 z"
           id="path905" />
        <path
           d="m 315.64456,360.98437 q 0,0.30469 -0.15625,0.4375 -0.14844,0.125 -0.34375,0.125 h -4.60937 q 0,0.58594 0.11718,1.05469 0.11719,0.46875 0.39063,0.80469 0.27344,0.33594 0.71094,0.51562 0.4375,0.17969 1.07031,0.17969 0.5,0 0.89062,-0.0781 0.39063,-0.0859 0.67188,-0.1875 0.28906,-0.10157 0.46875,-0.17969 0.1875,-0.0859 0.28125,-0.0859 0.0547,0 0.0937,0.0312 0.0469,0.0234 0.0703,0.0781 0.0234,0.0547 0.0312,0.15625 0.0156,0.0937 0.0156,0.23437 0,0.10156 -0.008,0.17969 -0.008,0.0703 -0.0234,0.13281 -0.008,0.0547 -0.0391,0.10156 -0.0234,0.0469 -0.0703,0.0937 -0.0391,0.0391 -0.25,0.14063 -0.21094,0.0937 -0.54687,0.1875 -0.33594,0.0937 -0.78125,0.16406 -0.4375,0.0781 -0.9375,0.0781 -0.86719,0 -1.52344,-0.24219 -0.64844,-0.24219 -1.09375,-0.71875 -0.44531,-0.47656 -0.67188,-1.19531 -0.22656,-0.71875 -0.22656,-1.67188 0,-0.90625 0.23438,-1.625 0.23437,-0.72656 0.67187,-1.22656 0.44531,-0.50781 1.07031,-0.77344 0.625,-0.27344 1.39844,-0.27344 0.82813,0 1.40625,0.26563 0.58594,0.26562 0.96094,0.71875 0.375,0.44531 0.54687,1.05469 0.17969,0.60156 0.17969,1.28906 z m -1.29687,-0.38281 q 0.0234,-1.01562 -0.45313,-1.59375 -0.46875,-0.57812 -1.39844,-0.57812 -0.47656,0 -0.83593,0.17968 -0.35938,0.17969 -0.60157,0.47657 -0.24218,0.29687 -0.375,0.69531 -0.13281,0.39062 -0.14843,0.82031 z"
           id="path907" />
        <path
           d="m 328.043,364.80469 q 0,0.0625 -0.0312,0.10937 -0.0312,0.0391 -0.10156,0.0703 -0.0703,0.0312 -0.19532,0.0469 -0.125,0.0156 -0.3125,0.0156 -0.19531,0 -0.32031,-0.0156 -0.125,-0.0156 -0.20312,-0.0469 -0.0703,-0.0312 -0.10157,-0.0703 -0.0312,-0.0469 -0.0312,-0.10937 v -4.27344 q 0,-0.44531 -0.0781,-0.8125 -0.0781,-0.36719 -0.25,-0.63281 -0.17188,-0.26563 -0.4375,-0.40625 -0.26563,-0.14063 -0.625,-0.14063 -0.44531,0 -0.89844,0.34375 -0.44531,0.34375 -0.98437,1.00781 v 4.91407 q 0,0.0625 -0.0312,0.10937 -0.0312,0.0391 -0.10938,0.0703 -0.0703,0.0312 -0.19531,0.0469 -0.125,0.0156 -0.3125,0.0156 -0.17969,0 -0.3125,-0.0156 -0.125,-0.0156 -0.20313,-0.0469 -0.0703,-0.0312 -0.10156,-0.0703 -0.0234,-0.0469 -0.0234,-0.10937 v -4.27344 q 0,-0.44531 -0.0859,-0.8125 -0.0859,-0.36719 -0.25782,-0.63281 -0.17187,-0.26563 -0.4375,-0.40625 -0.25781,-0.14063 -0.61718,-0.14063 -0.44532,0 -0.89844,0.34375 -0.45313,0.34375 -0.98438,1.00781 v 4.91407 q 0,0.0625 -0.0312,0.10937 -0.0312,0.0391 -0.10156,0.0703 -0.0703,0.0312 -0.19531,0.0469 -0.125,0.0156 -0.32031,0.0156 -0.1875,0 -0.3125,-0.0156 -0.125,-0.0156 -0.20313,-0.0469 -0.0703,-0.0312 -0.10156,-0.0703 -0.0234,-0.0469 -0.0234,-0.10937 v -7.03125 q 0,-0.0625 0.0234,-0.10157 0.0234,-0.0469 0.0937,-0.0781 0.0703,-0.0391 0.17969,-0.0469 0.10937,-0.0156 0.28906,-0.0156 0.17187,0 0.28125,0.0156 0.11719,0.008 0.17969,0.0469 0.0625,0.0312 0.0859,0.0781 0.0312,0.0391 0.0312,0.10157 v 0.92968 q 0.59375,-0.66406 1.14844,-0.96875 0.5625,-0.3125 1.13281,-0.3125 0.4375,0 0.78125,0.10157 0.35157,0.10156 0.61719,0.28906 0.26563,0.17969 0.45313,0.4375 0.1875,0.25 0.3125,0.5625 0.35156,-0.38281 0.66406,-0.64844 0.32031,-0.26562 0.60937,-0.42969 0.29688,-0.16406 0.57032,-0.23437 0.28125,-0.0781 0.5625,-0.0781 0.67968,0 1.14062,0.24219 0.46094,0.23438 0.74219,0.63281 0.28906,0.39844 0.40625,0.9375 0.125,0.53125 0.125,1.125 z"
           id="path909" />
        <path
           d="m 336.86331,361.17969 q 0,0.92187 -0.20312,1.65625 -0.19532,0.73437 -0.58594,1.25 -0.38281,0.50781 -0.95313,0.78906 -0.57031,0.27344 -1.30468,0.27344 -0.3125,0 -0.57813,-0.0625 -0.26562,-0.0625 -0.52344,-0.19532 -0.25,-0.13281 -0.5,-0.33593 -0.25,-0.20313 -0.53125,-0.47657 v 3.51563 q 0,0.0625 -0.0312,0.10937 -0.0312,0.0469 -0.10156,0.0781 -0.0703,0.0312 -0.19531,0.0469 -0.125,0.0156 -0.32031,0.0156 -0.1875,0 -0.3125,-0.0156 -0.125,-0.0156 -0.20313,-0.0469 -0.0703,-0.0312 -0.10156,-0.0781 -0.0234,-0.0469 -0.0234,-0.10937 v -9.82031 q 0,-0.0703 0.0234,-0.10938 0.0234,-0.0469 0.0937,-0.0781 0.0703,-0.0312 0.17969,-0.0391 0.10937,-0.0156 0.26562,-0.0156 0.16406,0 0.26563,0.0156 0.10937,0.008 0.17968,0.0391 0.0703,0.0312 0.0937,0.0781 0.0312,0.0391 0.0312,0.10938 v 0.94531 q 0.32032,-0.32813 0.61719,-0.57031 0.29688,-0.24219 0.59375,-0.39844 0.30469,-0.16406 0.61719,-0.24219 0.32031,-0.0859 0.67187,-0.0859 0.76563,0 1.30469,0.29688 0.53906,0.29687 0.875,0.8125 0.34375,0.51562 0.5,1.20312 0.15625,0.67969 0.15625,1.44532 z m -1.35937,0.14843 q 0,-0.53906 -0.0859,-1.03906 -0.0781,-0.50781 -0.28125,-0.89844 -0.19531,-0.39062 -0.53125,-0.625 -0.33594,-0.23437 -0.83594,-0.23437 -0.25,0 -0.49219,0.0781 -0.24218,0.0703 -0.49218,0.23438 -0.25,0.15625 -0.52344,0.42187 -0.27344,0.25782 -0.57813,0.64063 v 2.79687 q 0.53125,0.64844 1.00782,0.99219 0.47656,0.34375 1,0.34375 0.48437,0 0.82812,-0.23437 0.35156,-0.23438 0.5625,-0.625 0.21875,-0.39063 0.32031,-0.875 0.10157,-0.48438 0.10157,-0.97657 z"
           id="path911" />
        <path
           d="m 344.80081,360.98437 q 0,0.30469 -0.15625,0.4375 -0.14844,0.125 -0.34375,0.125 h -4.60937 q 0,0.58594 0.11718,1.05469 0.11719,0.46875 0.39063,0.80469 0.27344,0.33594 0.71094,0.51562 0.4375,0.17969 1.07031,0.17969 0.5,0 0.89062,-0.0781 0.39063,-0.0859 0.67188,-0.1875 0.28906,-0.10157 0.46875,-0.17969 0.1875,-0.0859 0.28125,-0.0859 0.0547,0 0.0937,0.0312 0.0469,0.0234 0.0703,0.0781 0.0234,0.0547 0.0312,0.15625 0.0156,0.0937 0.0156,0.23437 0,0.10156 -0.008,0.17969 -0.008,0.0703 -0.0234,0.13281 -0.008,0.0547 -0.0391,0.10156 -0.0234,0.0469 -0.0703,0.0937 -0.0391,0.0391 -0.25,0.14063 -0.21094,0.0937 -0.54687,0.1875 -0.33594,0.0937 -0.78125,0.16406 -0.4375,0.0781 -0.9375,0.0781 -0.86719,0 -1.52344,-0.24219 -0.64844,-0.24219 -1.09375,-0.71875 -0.44531,-0.47656 -0.67188,-1.19531 -0.22656,-0.71875 -0.22656,-1.67188 0,-0.90625 0.23438,-1.625 0.23437,-0.72656 0.67187,-1.22656 0.44531,-0.50781 1.07031,-0.77344 0.625,-0.27344 1.39844,-0.27344 0.82813,0 1.40625,0.26563 0.58594,0.26562 0.96094,0.71875 0.375,0.44531 0.54687,1.05469 0.17969,0.60156 0.17969,1.28906 z m -1.29687,-0.38281 q 0.0234,-1.01562 -0.45313,-1.59375 -0.46875,-0.57812 -1.39844,-0.57812 -0.47656,0 -0.83593,0.17968 -0.35938,0.17969 -0.60157,0.47657 -0.24218,0.29687 -0.375,0.69531 -0.13281,0.39062 -0.14843,0.82031 z"
           id="path913" />
        <path
           d="m 350.87894,358.23437 q 0,0.17188 -0.008,0.28907 -0.008,0.11718 -0.0312,0.1875 -0.0234,0.0625 -0.0625,0.10156 -0.0312,0.0312 -0.0937,0.0312 -0.0625,0 -0.15625,-0.0312 -0.0859,-0.0391 -0.20312,-0.0703 -0.10938,-0.0391 -0.25,-0.0703 -0.14063,-0.0312 -0.30469,-0.0312 -0.19531,0 -0.38281,0.0781 -0.1875,0.0781 -0.39844,0.25781 -0.20312,0.17969 -0.42969,0.47656 -0.22656,0.29688 -0.5,0.72657 v 4.625 q 0,0.0625 -0.0312,0.10937 -0.0312,0.0391 -0.10156,0.0703 -0.0703,0.0312 -0.19531,0.0469 -0.125,0.0156 -0.32031,0.0156 -0.1875,0 -0.3125,-0.0156 -0.125,-0.0156 -0.20313,-0.0469 -0.0703,-0.0312 -0.10156,-0.0703 -0.0234,-0.0469 -0.0234,-0.10937 v -7.03125 q 0,-0.0625 0.0234,-0.10157 0.0234,-0.0469 0.0937,-0.0781 0.0703,-0.0391 0.17969,-0.0469 0.10937,-0.0156 0.28906,-0.0156 0.17187,0 0.28125,0.0156 0.11719,0.008 0.17969,0.0469 0.0625,0.0312 0.0859,0.0781 0.0312,0.0391 0.0312,0.10157 v 1.02343 q 0.28907,-0.42187 0.53907,-0.6875 0.25781,-0.26562 0.48437,-0.41406 0.22656,-0.15625 0.44531,-0.21094 0.22657,-0.0625 0.45313,-0.0625 0.10156,0 0.22656,0.0156 0.13281,0.008 0.27344,0.0391 0.14062,0.0312 0.25,0.0703 0.11719,0.0391 0.16406,0.0781 0.0469,0.0391 0.0625,0.0781 0.0156,0.0312 0.0234,0.0859 0.0156,0.0547 0.0156,0.16406 0.008,0.10157 0.008,0.28125 z"
           id="path915" />
        <path
           d="m 357.34769,364.8125 q 0,0.0937 -0.0625,0.14062 -0.0625,0.0469 -0.17188,0.0703 -0.10937,0.0234 -0.32031,0.0234 -0.20313,0 -0.32813,-0.0234 -0.11718,-0.0234 -0.17187,-0.0703 -0.0547,-0.0469 -0.0547,-0.14062 v -0.70313 q -0.46094,0.49219 -1.03125,0.76563 -0.5625,0.27344 -1.19531,0.27344 -0.55469,0 -1.00781,-0.14844 -0.44532,-0.14063 -0.76563,-0.41406 -0.3125,-0.27344 -0.49219,-0.67188 -0.17187,-0.39844 -0.17187,-0.90625 0,-0.59375 0.24219,-1.03125 0.24218,-0.4375 0.69531,-0.72656 0.45312,-0.28906 1.10937,-0.42969 0.65625,-0.14844 1.47657,-0.14844 h 0.96875 V 360.125 q 0,-0.40625 -0.0859,-0.71875 -0.0859,-0.3125 -0.28125,-0.51563 -0.1875,-0.21093 -0.49219,-0.3125 -0.30469,-0.10937 -0.75,-0.10937 -0.47656,0 -0.85937,0.11719 -0.375,0.10937 -0.66407,0.25 -0.28125,0.13281 -0.47656,0.25 -0.1875,0.10937 -0.28125,0.10937 -0.0625,0 -0.10937,-0.0312 -0.0469,-0.0312 -0.0859,-0.0937 -0.0312,-0.0625 -0.0469,-0.15625 -0.0156,-0.10156 -0.0156,-0.21875 0,-0.19531 0.0234,-0.30469 0.0312,-0.11718 0.13281,-0.21875 0.10937,-0.10156 0.36719,-0.23437 0.25781,-0.14063 0.59375,-0.25 0.33593,-0.11719 0.73437,-0.1875 0.39844,-0.0781 0.80469,-0.0781 0.75781,0 1.28906,0.17188 0.53125,0.17187 0.85938,0.50781 0.32812,0.32813 0.47656,0.82031 0.14844,0.49219 0.14844,1.14844 z m -1.28125,-3.21094 h -1.10157 q -0.53125,0 -0.92187,0.0937 -0.39063,0.0859 -0.64844,0.26563 -0.25781,0.17187 -0.38281,0.42187 -0.11719,0.24219 -0.11719,0.5625 0,0.54688 0.34375,0.875 0.35156,0.32031 0.97656,0.32031 0.50782,0 0.9375,-0.25781 0.4375,-0.25781 0.91407,-0.78906 z"
           id="path917" />
        <path
           d="m 363.20706,364.28906 q 0,0.22656 -0.0312,0.35938 -0.0312,0.13281 -0.0937,0.19531 -0.0625,0.0625 -0.1875,0.11719 -0.125,0.0547 -0.28906,0.0859 -0.15625,0.0391 -0.33594,0.0625 -0.17969,0.0234 -0.35937,0.0234 -0.54688,0 -0.9375,-0.14062 -0.39063,-0.14844 -0.64063,-0.4375 -0.25,-0.29688 -0.36719,-0.74219 -0.10937,-0.45313 -0.10937,-1.0625 v -4.10938 h -0.98438 q -0.11718,0 -0.1875,-0.125 -0.0703,-0.125 -0.0703,-0.40625 0,-0.14843 0.0156,-0.25 0.0234,-0.10156 0.0547,-0.16406 0.0312,-0.0703 0.0781,-0.0937 0.0547,-0.0312 0.11719,-0.0312 h 0.97656 v -1.67187 q 0,-0.0547 0.0234,-0.10157 0.0312,-0.0469 0.10156,-0.0781 0.0781,-0.0391 0.20312,-0.0547 0.125,-0.0156 0.3125,-0.0156 0.19532,0 0.32032,0.0156 0.125,0.0156 0.19531,0.0547 0.0703,0.0312 0.10156,0.0781 0.0312,0.0469 0.0312,0.10157 v 1.67187 h 1.80469 q 0.0625,0 0.10937,0.0312 0.0469,0.0234 0.0781,0.0937 0.0391,0.0625 0.0547,0.16406 0.0156,0.10157 0.0156,0.25 0,0.28125 -0.0703,0.40625 -0.0703,0.125 -0.1875,0.125 h -1.80469 v 3.92188 q 0,0.72656 0.21094,1.10156 0.21875,0.36719 0.77344,0.36719 0.17968,0 0.32031,-0.0312 0.14062,-0.0391 0.25,-0.0781 0.10937,-0.0391 0.1875,-0.0703 0.0781,-0.0391 0.14062,-0.0391 0.0391,0 0.0703,0.0234 0.0391,0.0156 0.0547,0.0703 0.0234,0.0547 0.0391,0.14844 0.0156,0.0937 0.0156,0.23437 z"
           id="path919" />
        <path
           d="m 370.94925,364.80469 q 0,0.0625 -0.0312,0.10937 -0.0234,0.0391 -0.0937,0.0703 -0.0703,0.0312 -0.1875,0.0469 -0.10938,0.0156 -0.27344,0.0156 -0.17969,0 -0.29687,-0.0156 -0.10938,-0.0156 -0.17969,-0.0469 -0.0625,-0.0312 -0.0859,-0.0703 -0.0234,-0.0469 -0.0234,-0.10937 V 363.875 q -0.60156,0.66406 -1.1875,0.96875 -0.58593,0.30469 -1.1875,0.30469 -0.70312,0 -1.1875,-0.23438 -0.47656,-0.23437 -0.77343,-0.63281 -0.29688,-0.40625 -0.42969,-0.9375 -0.125,-0.53906 -0.125,-1.30469 v -4.26562 q 0,-0.0625 0.0234,-0.10157 0.0312,-0.0469 0.10937,-0.0781 0.0781,-0.0391 0.20313,-0.0469 0.125,-0.0156 0.3125,-0.0156 0.1875,0 0.3125,0.0156 0.125,0.008 0.19531,0.0469 0.0781,0.0312 0.10937,0.0781 0.0312,0.0391 0.0312,0.10157 v 4.09375 q 0,0.61718 0.0859,0.99218 0.0937,0.36719 0.27344,0.63282 0.1875,0.25781 0.46875,0.40625 0.28125,0.14062 0.65625,0.14062 0.48437,0 0.96094,-0.34375 0.48437,-0.34375 1.02343,-1.00781 v -4.91406 q 0,-0.0625 0.0234,-0.10157 0.0312,-0.0469 0.10938,-0.0781 0.0781,-0.0391 0.19531,-0.0469 0.125,-0.0156 0.32031,-0.0156 0.1875,0 0.3125,0.0156 0.125,0.008 0.19531,0.0469 0.0703,0.0312 0.10157,0.0781 0.0391,0.0391 0.0391,0.10157 z"
           id="path921" />
        <path
           d="m 377.44144,358.23437 q 0,0.17188 -0.008,0.28907 -0.008,0.11718 -0.0312,0.1875 -0.0234,0.0625 -0.0625,0.10156 -0.0312,0.0312 -0.0937,0.0312 -0.0625,0 -0.15625,-0.0312 -0.0859,-0.0391 -0.20312,-0.0703 -0.10938,-0.0391 -0.25,-0.0703 -0.14063,-0.0312 -0.30469,-0.0312 -0.19531,0 -0.38281,0.0781 -0.1875,0.0781 -0.39844,0.25781 -0.20312,0.17969 -0.42969,0.47656 -0.22656,0.29688 -0.5,0.72657 v 4.625 q 0,0.0625 -0.0312,0.10937 -0.0312,0.0391 -0.10156,0.0703 -0.0703,0.0312 -0.19531,0.0469 -0.125,0.0156 -0.32031,0.0156 -0.1875,0 -0.3125,-0.0156 -0.125,-0.0156 -0.20313,-0.0469 -0.0703,-0.0312 -0.10156,-0.0703 -0.0234,-0.0469 -0.0234,-0.10937 v -7.03125 q 0,-0.0625 0.0234,-0.10157 0.0234,-0.0469 0.0937,-0.0781 0.0703,-0.0391 0.17969,-0.0469 0.10937,-0.0156 0.28906,-0.0156 0.17187,0 0.28125,0.0156 0.11719,0.008 0.17969,0.0469 0.0625,0.0312 0.0859,0.0781 0.0312,0.0391 0.0312,0.10157 v 1.02343 q 0.28907,-0.42187 0.53907,-0.6875 0.25781,-0.26562 0.48437,-0.41406 0.22656,-0.15625 0.44531,-0.21094 0.22657,-0.0625 0.45313,-0.0625 0.10156,0 0.22656,0.0156 0.13281,0.008 0.27344,0.0391 0.14062,0.0312 0.25,0.0703 0.11719,0.0391 0.16406,0.0781 0.0469,0.0391 0.0625,0.0781 0.0156,0.0312 0.0234,0.0859 0.0156,0.0547 0.0156,0.16406 0.008,0.10157 0.008,0.28125 z"
           id="path923" />
        <path
           d="m 384.70706,360.98437 q 0,0.30469 -0.15625,0.4375 -0.14844,0.125 -0.34375,0.125 h -4.60937 q 0,0.58594 0.11718,1.05469 0.11719,0.46875 0.39063,0.80469 0.27344,0.33594 0.71094,0.51562 0.4375,0.17969 1.07031,0.17969 0.5,0 0.89062,-0.0781 0.39063,-0.0859 0.67188,-0.1875 0.28906,-0.10157 0.46875,-0.17969 0.1875,-0.0859 0.28125,-0.0859 0.0547,0 0.0937,0.0312 0.0469,0.0234 0.0703,0.0781 0.0234,0.0547 0.0312,0.15625 0.0156,0.0937 0.0156,0.23437 0,0.10156 -0.008,0.17969 -0.008,0.0703 -0.0234,0.13281 -0.008,0.0547 -0.0391,0.10156 -0.0234,0.0469 -0.0703,0.0937 -0.0391,0.0391 -0.25,0.14063 -0.21094,0.0937 -0.54687,0.1875 -0.33594,0.0937 -0.78125,0.16406 -0.4375,0.0781 -0.9375,0.0781 -0.86719,0 -1.52344,-0.24219 -0.64844,-0.24219 -1.09375,-0.71875 -0.44531,-0.47656 -0.67188,-1.19531 -0.22656,-0.71875 -0.22656,-1.67188 0,-0.90625 0.23438,-1.625 0.23437,-0.72656 0.67187,-1.22656 0.44531,-0.50781 1.07031,-0.77344 0.625,-0.27344 1.39844,-0.27344 0.82813,0 1.40625,0.26563 0.58594,0.26562 0.96094,0.71875 0.375,0.44531 0.54687,1.05469 0.17969,0.60156 0.17969,1.28906 z m -1.29687,-0.38281 q 0.0234,-1.01562 -0.45313,-1.59375 -0.46875,-0.57812 -1.39844,-0.57812 -0.47656,0 -0.83593,0.17968 -0.35938,0.17969 -0.60157,0.47657 -0.24218,0.29687 -0.375,0.69531 -0.13281,0.39062 -0.14843,0.82031 z"
           id="path925" />
        <path
           d="m 469.86069,358.85156 q 0,0.75781 -0.25,1.36719 -0.25,0.60937 -0.71875,1.03906 -0.46094,0.42969 -1.14063,0.66406 -0.67187,0.23438 -1.60937,0.23438 h -1.14844 v 3.64062 q 0,0.0625 -0.0391,0.10938 -0.0312,0.0469 -0.10938,0.0781 -0.0703,0.0234 -0.20312,0.0391 -0.125,0.0234 -0.32032,0.0234 -0.19531,0 -0.32812,-0.0234 -0.125,-0.0156 -0.20313,-0.0391 -0.0781,-0.0312 -0.10937,-0.0781 -0.0312,-0.0469 -0.0312,-0.10938 v -9.32812 q 0,-0.3125 0.16406,-0.44531 0.16406,-0.13282 0.36719,-0.13282 h 2.16406 q 0.32813,0 0.625,0.0312 0.30469,0.0234 0.71094,0.11719 0.41406,0.0859 0.83594,0.33594 0.42968,0.24219 0.72656,0.60156 0.29687,0.35938 0.45312,0.83594 0.16407,0.46875 0.16407,1.03906 z m -1.41407,0.10938 q 0,-0.61719 -0.23437,-1.03125 -0.22656,-0.41407 -0.57031,-0.61719 -0.33594,-0.20313 -0.70313,-0.25781 Q 466.57944,357 466.23569,357 h -1.24219 v 4.05469 h 1.21094 q 0.60937,0 1.00781,-0.15625 0.40625,-0.15625 0.67969,-0.42969 0.27343,-0.28125 0.41406,-0.66406 0.14062,-0.39063 0.14062,-0.84375 z"
           id="path927" />
        <path
           d="m 475.89194,359.23437 q 0,0.17188 -0.008,0.28907 -0.008,0.11718 -0.0312,0.1875 -0.0234,0.0625 -0.0625,0.10156 -0.0312,0.0312 -0.0937,0.0312 -0.0625,0 -0.15625,-0.0312 -0.0859,-0.0391 -0.20312,-0.0703 -0.10938,-0.0391 -0.25,-0.0703 -0.14063,-0.0312 -0.30469,-0.0312 -0.19531,0 -0.38281,0.0781 -0.1875,0.0781 -0.39844,0.25781 -0.20312,0.17969 -0.42969,0.47656 -0.22656,0.29688 -0.5,0.72657 v 4.625 q 0,0.0625 -0.0312,0.10937 -0.0312,0.0391 -0.10156,0.0703 -0.0703,0.0312 -0.19531,0.0469 -0.125,0.0156 -0.32031,0.0156 -0.1875,0 -0.3125,-0.0156 -0.125,-0.0156 -0.20313,-0.0469 -0.0703,-0.0312 -0.10156,-0.0703 -0.0234,-0.0469 -0.0234,-0.10937 v -7.03125 q 0,-0.0625 0.0234,-0.10157 0.0234,-0.0469 0.0937,-0.0781 0.0703,-0.0391 0.17969,-0.0469 0.10937,-0.0156 0.28906,-0.0156 0.17187,0 0.28125,0.0156 0.11719,0.008 0.17969,0.0469 0.0625,0.0312 0.0859,0.0781 0.0312,0.0391 0.0312,0.10157 v 1.02343 q 0.28907,-0.42187 0.53907,-0.6875 0.25781,-0.26562 0.48437,-0.41406 0.22656,-0.15625 0.44531,-0.21094 0.22657,-0.0625 0.45313,-0.0625 0.10156,0 0.22656,0.0156 0.13281,0.008 0.27344,0.0391 0.14062,0.0312 0.25,0.0703 0.11719,0.0391 0.16406,0.0781 0.0469,0.0391 0.0625,0.0781 0.0156,0.0312 0.0234,0.0859 0.0156,0.0547 0.0156,0.16406 0.008,0.10157 0.008,0.28125 z"
           id="path929" />
        <path
           d="m 483.15756,361.98437 q 0,0.30469 -0.15625,0.4375 -0.14844,0.125 -0.34375,0.125 h -4.60937 q 0,0.58594 0.11718,1.05469 0.11719,0.46875 0.39063,0.80469 0.27344,0.33594 0.71094,0.51562 0.4375,0.17969 1.07031,0.17969 0.5,0 0.89062,-0.0781 0.39063,-0.0859 0.67188,-0.1875 0.28906,-0.10157 0.46875,-0.17969 0.1875,-0.0859 0.28125,-0.0859 0.0547,0 0.0937,0.0312 0.0469,0.0234 0.0703,0.0781 0.0234,0.0547 0.0312,0.15625 0.0156,0.0937 0.0156,0.23437 0,0.10156 -0.008,0.17969 -0.008,0.0703 -0.0234,0.13281 -0.008,0.0547 -0.0391,0.10156 -0.0234,0.0469 -0.0703,0.0937 -0.0391,0.0391 -0.25,0.14063 -0.21094,0.0937 -0.54687,0.1875 -0.33594,0.0937 -0.78125,0.16406 -0.4375,0.0781 -0.9375,0.0781 -0.86719,0 -1.52344,-0.24219 -0.64844,-0.24219 -1.09375,-0.71875 -0.44531,-0.47656 -0.67188,-1.19531 -0.22656,-0.71875 -0.22656,-1.67188 0,-0.90625 0.23438,-1.625 0.23437,-0.72656 0.67187,-1.22656 0.44531,-0.50781 1.07031,-0.77344 0.625,-0.27344 1.39844,-0.27344 0.82813,0 1.40625,0.26563 0.58594,0.26562 0.96094,0.71875 0.375,0.44531 0.54687,1.05469 0.17969,0.60156 0.17969,1.28906 z m -1.29687,-0.38281 q 0.0234,-1.01562 -0.45313,-1.59375 -0.46875,-0.57812 -1.39844,-0.57812 -0.47656,0 -0.83593,0.17968 -0.35938,0.17969 -0.60157,0.47657 -0.24218,0.29687 -0.375,0.69531 -0.13281,0.39062 -0.14843,0.82031 z"
           id="path931" />
        <path
           d="m 489.54037,363.89062 q 0,0.53907 -0.20312,0.96094 -0.19531,0.42188 -0.5625,0.71094 -0.36719,0.28906 -0.875,0.4375 -0.50781,0.14844 -1.11719,0.14844 -0.375,0 -0.71875,-0.0625 -0.33594,-0.0547 -0.60937,-0.14063 -0.26563,-0.0937 -0.45313,-0.1875 -0.1875,-0.10156 -0.27344,-0.17969 -0.0859,-0.0781 -0.125,-0.21875 -0.0391,-0.14062 -0.0391,-0.38281 0,-0.14844 0.0156,-0.25 0.0156,-0.10156 0.0391,-0.16406 0.0234,-0.0625 0.0625,-0.0859 0.0469,-0.0312 0.10156,-0.0312 0.0859,0 0.25,0.10938 0.17188,0.10156 0.41406,0.22656 0.25,0.125 0.58594,0.23437 0.33594,0.10157 0.77344,0.10157 0.32812,0 0.59375,-0.0703 0.26562,-0.0703 0.46094,-0.20312 0.19531,-0.14063 0.29687,-0.35156 0.10938,-0.21094 0.10938,-0.5 0,-0.29688 -0.15625,-0.5 -0.14844,-0.20313 -0.39844,-0.35938 -0.25,-0.15625 -0.5625,-0.27344 -0.3125,-0.125 -0.64844,-0.25781 -0.32812,-0.13281 -0.64844,-0.29687 -0.3125,-0.17188 -0.5625,-0.41407 -0.25,-0.24218 -0.40625,-0.57812 -0.14843,-0.33594 -0.14843,-0.80469 0,-0.41406 0.15625,-0.78906 0.16406,-0.38281 0.48437,-0.66406 0.32031,-0.28907 0.79688,-0.46094 0.48437,-0.17188 1.125,-0.17188 0.28125,0 0.5625,0.0469 0.28125,0.0469 0.50781,0.11719 0.22656,0.0703 0.38281,0.15625 0.16406,0.0781 0.24219,0.14062 0.0859,0.0625 0.10937,0.10938 0.0312,0.0469 0.0391,0.10937 0.0156,0.0547 0.0234,0.14063 0.0156,0.0859 0.0156,0.21093 0,0.13282 -0.0156,0.23438 -0.008,0.0937 -0.0391,0.15625 -0.0234,0.0625 -0.0625,0.0937 -0.0391,0.0234 -0.0859,0.0234 -0.0703,0 -0.20312,-0.0859 -0.13281,-0.0859 -0.34375,-0.17969 -0.21094,-0.10156 -0.5,-0.1875 -0.28125,-0.0859 -0.64844,-0.0859 -0.32812,0 -0.57812,0.0781 -0.25,0.0703 -0.41407,0.21094 -0.15625,0.13281 -0.24218,0.32031 -0.0781,0.1875 -0.0781,0.40625 0,0.30469 0.15625,0.51562 0.15625,0.20313 0.40625,0.35938 0.25,0.15625 0.57031,0.28125 0.32032,0.125 0.64844,0.25781 0.33594,0.13281 0.65625,0.29688 0.32813,0.16406 0.57813,0.39843 0.25,0.23438 0.39843,0.5625 0.15625,0.32813 0.15625,0.78125 z"
           id="path933" />
        <path
           d="m 495.79037,363.89062 q 0,0.53907 -0.20312,0.96094 -0.19531,0.42188 -0.5625,0.71094 -0.36719,0.28906 -0.875,0.4375 -0.50781,0.14844 -1.11719,0.14844 -0.375,0 -0.71875,-0.0625 -0.33594,-0.0547 -0.60937,-0.14063 -0.26563,-0.0937 -0.45313,-0.1875 -0.1875,-0.10156 -0.27344,-0.17969 -0.0859,-0.0781 -0.125,-0.21875 -0.0391,-0.14062 -0.0391,-0.38281 0,-0.14844 0.0156,-0.25 0.0156,-0.10156 0.0391,-0.16406 0.0234,-0.0625 0.0625,-0.0859 0.0469,-0.0312 0.10156,-0.0312 0.0859,0 0.25,0.10938 0.17188,0.10156 0.41406,0.22656 0.25,0.125 0.58594,0.23437 0.33594,0.10157 0.77344,0.10157 0.32812,0 0.59375,-0.0703 0.26562,-0.0703 0.46094,-0.20312 0.19531,-0.14063 0.29687,-0.35156 0.10938,-0.21094 0.10938,-0.5 0,-0.29688 -0.15625,-0.5 -0.14844,-0.20313 -0.39844,-0.35938 -0.25,-0.15625 -0.5625,-0.27344 -0.3125,-0.125 -0.64844,-0.25781 -0.32812,-0.13281 -0.64844,-0.29687 -0.3125,-0.17188 -0.5625,-0.41407 -0.25,-0.24218 -0.40625,-0.57812 -0.14843,-0.33594 -0.14843,-0.80469 0,-0.41406 0.15625,-0.78906 0.16406,-0.38281 0.48437,-0.66406 0.32031,-0.28907 0.79688,-0.46094 0.48437,-0.17188 1.125,-0.17188 0.28125,0 0.5625,0.0469 0.28125,0.0469 0.50781,0.11719 0.22656,0.0703 0.38281,0.15625 0.16406,0.0781 0.24219,0.14062 0.0859,0.0625 0.10937,0.10938 0.0312,0.0469 0.0391,0.10937 0.0156,0.0547 0.0234,0.14063 0.0156,0.0859 0.0156,0.21093 0,0.13282 -0.0156,0.23438 -0.008,0.0937 -0.0391,0.15625 -0.0234,0.0625 -0.0625,0.0937 -0.0391,0.0234 -0.0859,0.0234 -0.0703,0 -0.20312,-0.0859 -0.13281,-0.0859 -0.34375,-0.17969 -0.21094,-0.10156 -0.5,-0.1875 -0.28125,-0.0859 -0.64844,-0.0859 -0.32812,0 -0.57812,0.0781 -0.25,0.0703 -0.41407,0.21094 -0.15625,0.13281 -0.24218,0.32031 -0.0781,0.1875 -0.0781,0.40625 0,0.30469 0.15625,0.51562 0.15625,0.20313 0.40625,0.35938 0.25,0.15625 0.57031,0.28125 0.32032,0.125 0.64844,0.25781 0.33594,0.13281 0.65625,0.29688 0.32813,0.16406 0.57813,0.39843 0.25,0.23438 0.39843,0.5625 0.15625,0.32813 0.15625,0.78125 z"
           id="path935" />
        <path
           d="m 503.64975,365.80469 q 0,0.0625 -0.0312,0.10937 -0.0234,0.0391 -0.0937,0.0703 -0.0703,0.0312 -0.1875,0.0469 -0.10938,0.0156 -0.27344,0.0156 -0.17969,0 -0.29687,-0.0156 -0.10938,-0.0156 -0.17969,-0.0469 -0.0625,-0.0312 -0.0859,-0.0703 -0.0234,-0.0469 -0.0234,-0.10937 V 364.875 q -0.60156,0.66406 -1.1875,0.96875 -0.58593,0.30469 -1.1875,0.30469 -0.70312,0 -1.1875,-0.23438 -0.47656,-0.23437 -0.77343,-0.63281 -0.29688,-0.40625 -0.42969,-0.9375 -0.125,-0.53906 -0.125,-1.30469 v -4.26562 q 0,-0.0625 0.0234,-0.10157 0.0312,-0.0469 0.10937,-0.0781 0.0781,-0.0391 0.20313,-0.0469 0.125,-0.0156 0.3125,-0.0156 0.1875,0 0.3125,0.0156 0.125,0.008 0.19531,0.0469 0.0781,0.0312 0.10937,0.0781 0.0312,0.0391 0.0312,0.10157 v 4.09375 q 0,0.61718 0.0859,0.99218 0.0937,0.36719 0.27344,0.63282 0.1875,0.25781 0.46875,0.40625 0.28125,0.14062 0.65625,0.14062 0.48437,0 0.96094,-0.34375 0.48437,-0.34375 1.02343,-1.00781 v -4.91406 q 0,-0.0625 0.0234,-0.10157 0.0312,-0.0469 0.10938,-0.0781 0.0781,-0.0391 0.19531,-0.0469 0.125,-0.0156 0.32031,-0.0156 0.1875,0 0.3125,0.0156 0.125,0.008 0.19531,0.0469 0.0703,0.0312 0.10157,0.0781 0.0391,0.0391 0.0391,0.10157 z"
           id="path937" />
        <path
           d="m 510.14194,359.23437 q 0,0.17188 -0.008,0.28907 -0.008,0.11718 -0.0312,0.1875 -0.0234,0.0625 -0.0625,0.10156 -0.0312,0.0312 -0.0937,0.0312 -0.0625,0 -0.15625,-0.0312 -0.0859,-0.0391 -0.20312,-0.0703 -0.10938,-0.0391 -0.25,-0.0703 -0.14063,-0.0312 -0.30469,-0.0312 -0.19531,0 -0.38281,0.0781 -0.1875,0.0781 -0.39844,0.25781 -0.20312,0.17969 -0.42969,0.47656 -0.22656,0.29688 -0.5,0.72657 v 4.625 q 0,0.0625 -0.0312,0.10937 -0.0312,0.0391 -0.10156,0.0703 -0.0703,0.0312 -0.19531,0.0469 -0.125,0.0156 -0.32031,0.0156 -0.1875,0 -0.3125,-0.0156 -0.125,-0.0156 -0.20313,-0.0469 -0.0703,-0.0312 -0.10156,-0.0703 -0.0234,-0.0469 -0.0234,-0.10937 v -7.03125 q 0,-0.0625 0.0234,-0.10157 0.0234,-0.0469 0.0937,-0.0781 0.0703,-0.0391 0.17969,-0.0469 0.10937,-0.0156 0.28906,-0.0156 0.17187,0 0.28125,0.0156 0.11719,0.008 0.17969,0.0469 0.0625,0.0312 0.0859,0.0781 0.0312,0.0391 0.0312,0.10157 v 1.02343 q 0.28907,-0.42187 0.53907,-0.6875 0.25781,-0.26562 0.48437,-0.41406 0.22656,-0.15625 0.44531,-0.21094 0.22657,-0.0625 0.45313,-0.0625 0.10156,0 0.22656,0.0156 0.13281,0.008 0.27344,0.0391 0.14062,0.0312 0.25,0.0703 0.11719,0.0391 0.16406,0.0781 0.0469,0.0391 0.0625,0.0781 0.0156,0.0312 0.0234,0.0859 0.0156,0.0547 0.0156,0.16406 0.008,0.10157 0.008,0.28125 z"
           id="path939" />
        <path
           d="m 517.40756,361.98437 q 0,0.30469 -0.15625,0.4375 -0.14844,0.125 -0.34375,0.125 h -4.60937 q 0,0.58594 0.11718,1.05469 0.11719,0.46875 0.39063,0.80469 0.27344,0.33594 0.71094,0.51562 0.4375,0.17969 1.07031,0.17969 0.5,0 0.89062,-0.0781 0.39063,-0.0859 0.67188,-0.1875 0.28906,-0.10157 0.46875,-0.17969 0.1875,-0.0859 0.28125,-0.0859 0.0547,0 0.0937,0.0312 0.0469,0.0234 0.0703,0.0781 0.0234,0.0547 0.0312,0.15625 0.0156,0.0937 0.0156,0.23437 0,0.10156 -0.008,0.17969 -0.008,0.0703 -0.0234,0.13281 -0.008,0.0547 -0.0391,0.10156 -0.0234,0.0469 -0.0703,0.0937 -0.0391,0.0391 -0.25,0.14063 -0.21094,0.0937 -0.54687,0.1875 -0.33594,0.0937 -0.78125,0.16406 -0.4375,0.0781 -0.9375,0.0781 -0.86719,0 -1.52344,-0.24219 -0.64844,-0.24219 -1.09375,-0.71875 -0.44531,-0.47656 -0.67188,-1.19531 -0.22656,-0.71875 -0.22656,-1.67188 0,-0.90625 0.23438,-1.625 0.23437,-0.72656 0.67187,-1.22656 0.44531,-0.50781 1.07031,-0.77344 0.625,-0.27344 1.39844,-0.27344 0.82813,0 1.40625,0.26563 0.58594,0.26562 0.96094,0.71875 0.375,0.44531 0.54687,1.05469 0.17969,0.60156 0.17969,1.28906 z m -1.29687,-0.38281 q 0.0234,-1.01562 -0.45313,-1.59375 -0.46875,-0.57812 -1.39844,-0.57812 -0.47656,0 -0.83593,0.17968 -0.35938,0.17969 -0.60157,0.47657 -0.24218,0.29687 -0.375,0.69531 -0.13281,0.39062 -0.14843,0.82031 z"
           id="path941" />
        <path
           d="m 637.99945,363.16406 q 0,0.71094 -0.26562,1.26563 -0.25782,0.55468 -0.72657,0.94531 -0.46093,0.38281 -1.09375,0.57812 -0.625,0.19532 -1.35156,0.19532 -0.50781,0 -0.94531,-0.0859 -0.42969,-0.0859 -0.77344,-0.21094 -0.33594,-0.125 -0.57031,-0.25781 -0.22656,-0.13281 -0.32031,-0.22656 -0.0859,-0.0937 -0.13282,-0.23438 -0.0391,-0.14844 -0.0391,-0.39062 0,-0.17188 0.0156,-0.28125 0.0156,-0.11719 0.0469,-0.1875 0.0312,-0.0703 0.0781,-0.0937 0.0469,-0.0312 0.10937,-0.0312 0.10938,0 0.30469,0.13281 0.20312,0.13281 0.51562,0.28906 0.3125,0.15625 0.75,0.29688 0.44532,0.13281 1.02344,0.13281 0.4375,0 0.79688,-0.11719 0.36718,-0.11719 0.625,-0.32812 0.26562,-0.21875 0.40625,-0.53125 0.14062,-0.3125 0.14062,-0.71094 0,-0.42969 -0.19531,-0.73438 -0.19531,-0.30468 -0.51563,-0.53125 -0.32031,-0.23437 -0.73437,-0.42187 -0.40625,-0.19531 -0.83594,-0.39063 -0.42969,-0.20312 -0.83594,-0.44531 -0.40625,-0.24219 -0.72656,-0.57031 -0.32031,-0.32813 -0.52344,-0.76563 -0.19531,-0.44531 -0.19531,-1.0625 0,-0.63281 0.22656,-1.125 0.23438,-0.5 0.64063,-0.83593 0.41406,-0.33594 0.97656,-0.50782 0.57031,-0.17968 1.22656,-0.17968 0.33594,0 0.67188,0.0625 0.34375,0.0547 0.64062,0.15625 0.30469,0.0937 0.53907,0.21875 0.23437,0.11718 0.30468,0.19531 0.0781,0.0703 0.10157,0.11719 0.0234,0.0391 0.0391,0.10937 0.0156,0.0625 0.0234,0.15625 0.008,0.0937 0.008,0.24219 0,0.14062 -0.0156,0.25 -0.008,0.10937 -0.0312,0.1875 -0.0234,0.0703 -0.0703,0.10937 -0.0391,0.0312 -0.0937,0.0312 -0.0859,0 -0.27344,-0.10937 -0.17968,-0.10938 -0.44531,-0.24219 -0.26562,-0.14062 -0.63281,-0.25 -0.35938,-0.11719 -0.8125,-0.11719 -0.42188,0 -0.73438,0.11719 -0.3125,0.10938 -0.51562,0.29688 -0.20313,0.1875 -0.30469,0.44531 -0.10156,0.25781 -0.10156,0.54687 0,0.42188 0.19531,0.72657 0.19531,0.30468 0.51563,0.53906 0.32812,0.23437 0.74218,0.42969 0.41407,0.19531 0.84375,0.39843 0.42969,0.19532 0.84375,0.4375 0.41407,0.23438 0.73438,0.5625 0.32812,0.32032 0.52344,0.76563 0.20312,0.4375 0.20312,1.03906 z"
           id="path943" />
        <path
           d="m 646.30414,362.21094 q 0,0.85937 -0.22656,1.58593 -0.22657,0.71875 -0.67969,1.24219 -0.44531,0.52344 -1.125,0.82031 -0.67188,0.28907 -1.5625,0.28907 -0.86719,0 -1.51563,-0.25782 -0.64062,-0.25781 -1.07031,-0.75 -0.42969,-0.49218 -0.64062,-1.19531 -0.21094,-0.70312 -0.21094,-1.59375 0,-0.85937 0.21875,-1.57812 0.22656,-0.72657 0.67187,-1.25 0.45313,-0.52344 1.125,-0.8125 0.67188,-0.28907 1.57032,-0.28907 0.86718,0 1.50781,0.25782 0.64844,0.25781 1.07812,0.75 0.42969,0.49218 0.64063,1.19531 0.21875,0.70312 0.21875,1.58594 z m -1.35938,0.0859 q 0,-0.57031 -0.10937,-1.07812 -0.10156,-0.50781 -0.34375,-0.89063 -0.24219,-0.38281 -0.65625,-0.60156 -0.41406,-0.22656 -1.03125,-0.22656 -0.57031,0 -0.98438,0.20312 -0.40625,0.20313 -0.67187,0.57813 -0.26563,0.36719 -0.39844,0.875 -0.125,0.50781 -0.125,1.10937 0,0.57813 0.10156,1.08594 0.10938,0.50781 0.35157,0.89063 0.25,0.375 0.66406,0.60156 0.41406,0.21875 1.03125,0.21875 0.5625,0 0.97656,-0.20313 0.41406,-0.20312 0.67969,-0.57031 0.26562,-0.36719 0.39062,-0.875 0.125,-0.50781 0.125,-1.11719 z"
           id="path945" />
        <path
           d="m 654.22601,365.80469 q 0,0.0625 -0.0312,0.10937 -0.0234,0.0391 -0.0937,0.0703 -0.0703,0.0312 -0.1875,0.0469 -0.10937,0.0156 -0.27343,0.0156 -0.17969,0 -0.29688,-0.0156 -0.10937,-0.0156 -0.17969,-0.0469 -0.0625,-0.0312 -0.0859,-0.0703 -0.0234,-0.0469 -0.0234,-0.10937 V 364.875 q -0.60156,0.66406 -1.1875,0.96875 -0.58594,0.30469 -1.1875,0.30469 -0.70313,0 -1.1875,-0.23438 -0.47656,-0.23437 -0.77344,-0.63281 -0.29687,-0.40625 -0.42969,-0.9375 -0.125,-0.53906 -0.125,-1.30469 v -4.26562 q 0,-0.0625 0.0234,-0.10157 0.0312,-0.0469 0.10938,-0.0781 0.0781,-0.0391 0.20312,-0.0469 0.125,-0.0156 0.3125,-0.0156 0.1875,0 0.3125,0.0156 0.125,0.008 0.19531,0.0469 0.0781,0.0312 0.10938,0.0781 0.0312,0.0391 0.0312,0.10157 v 4.09375 q 0,0.61718 0.0859,0.99218 0.0937,0.36719 0.27343,0.63282 0.1875,0.25781 0.46875,0.40625 0.28125,0.14062 0.65625,0.14062 0.48438,0 0.96094,-0.34375 0.48438,-0.34375 1.02344,-1.00781 v -4.91406 q 0,-0.0625 0.0234,-0.10157 0.0312,-0.0469 0.10937,-0.0781 0.0781,-0.0391 0.19531,-0.0469 0.125,-0.0156 0.32032,-0.0156 0.1875,0 0.3125,0.0156 0.125,0.008 0.19531,0.0469 0.0703,0.0312 0.10156,0.0781 0.0391,0.0391 0.0391,0.10157 z"
           id="path947" />
        <path
           d="m 662.66351,365.80469 q 0,0.0625 -0.0312,0.10937 -0.0312,0.0391 -0.10156,0.0703 -0.0703,0.0312 -0.19531,0.0469 -0.125,0.0156 -0.3125,0.0156 -0.19531,0 -0.32031,-0.0156 -0.125,-0.0156 -0.19532,-0.0469 -0.0703,-0.0312 -0.10156,-0.0703 -0.0312,-0.0469 -0.0312,-0.10937 v -4.11719 q 0,-0.60156 -0.0937,-0.96875 -0.0937,-0.36719 -0.27344,-0.63281 -0.17968,-0.26563 -0.46875,-0.40625 -0.28125,-0.14063 -0.65625,-0.14063 -0.48437,0 -0.96875,0.34375 -0.48437,0.34375 -1.01562,1.00781 v 4.91407 q 0,0.0625 -0.0312,0.10937 -0.0312,0.0391 -0.10156,0.0703 -0.0703,0.0312 -0.19532,0.0469 -0.125,0.0156 -0.32031,0.0156 -0.1875,0 -0.3125,-0.0156 -0.125,-0.0156 -0.20312,-0.0469 -0.0703,-0.0312 -0.10157,-0.0703 -0.0234,-0.0469 -0.0234,-0.10937 v -7.03125 q 0,-0.0625 0.0234,-0.10157 0.0234,-0.0469 0.0937,-0.0781 0.0703,-0.0391 0.17969,-0.0469 0.10938,-0.0156 0.28906,-0.0156 0.17188,0 0.28125,0.0156 0.11719,0.008 0.17969,0.0469 0.0625,0.0312 0.0859,0.0781 0.0312,0.0391 0.0312,0.10157 v 0.92968 q 0.59375,-0.66406 1.17969,-0.96875 0.59375,-0.3125 1.19531,-0.3125 0.70312,0 1.17969,0.24219 0.48437,0.23438 0.78125,0.63281 0.29687,0.39844 0.42187,0.9375 0.13281,0.53125 0.13281,1.28125 z"
           id="path949" />
        <path
           d="m 671.03851,365.80469 q 0,0.0625 -0.0312,0.10937 -0.0234,0.0469 -0.0937,0.0781 -0.0625,0.0234 -0.17187,0.0391 -0.10938,0.0156 -0.26563,0.0156 -0.16406,0 -0.27343,-0.0156 -0.10938,-0.0156 -0.17969,-0.0391 -0.0703,-0.0312 -0.10156,-0.0781 -0.0312,-0.0469 -0.0312,-0.10937 V 364.875 q -0.55469,0.60156 -1.15625,0.9375 -0.59375,0.33594 -1.30469,0.33594 -0.77344,0 -1.32031,-0.29688 -0.54688,-0.30469 -0.89063,-0.8125 -0.33594,-0.51562 -0.49219,-1.20312 -0.15625,-0.69532 -0.15625,-1.46094 0,-0.90625 0.19532,-1.63281 0.19531,-0.73438 0.57812,-1.25 0.38281,-0.51563 0.94531,-0.78907 0.57032,-0.28125 1.3125,-0.28125 0.61719,0 1.125,0.27344 0.51563,0.26563 1.01563,0.78906 v -4.08593 q 0,-0.0547 0.0234,-0.10157 0.0312,-0.0547 0.10937,-0.0781 0.0781,-0.0312 0.19531,-0.0469 0.125,-0.0234 0.3125,-0.0234 0.19532,0 0.32032,0.0234 0.125,0.0156 0.19531,0.0469 0.0703,0.0234 0.10156,0.0781 0.0391,0.0469 0.0391,0.10157 z m -1.29687,-4.94532 q -0.52344,-0.64843 -1.01563,-0.98437 -0.48437,-0.34375 -1.01562,-0.34375 -0.49219,0 -0.83594,0.23437 -0.34375,0.23438 -0.5625,0.61719 -0.21094,0.38281 -0.3125,0.86719 -0.0937,0.48437 -0.0937,0.98437 0,0.53125 0.0781,1.03907 0.0859,0.50781 0.28906,0.90625 0.20312,0.39062 0.53906,0.63281 0.33594,0.23437 0.84375,0.23437 0.25781,0 0.49219,-0.0703 0.24219,-0.0703 0.49219,-0.23437 0.25,-0.16407 0.52343,-0.42188 0.27344,-0.26562 0.57813,-0.64844 z"
           style="font-weight:400;font-size:16px;font-family:Calibri, Calibri_MSFontService, sans-serif"
           id="path951" />
      </g>
      <g
         transform="translate(0,-130)"
         aria-label="Power"
         id="text106"
         style="font-weight:400;font-size:16px;font-family:Calibri, Calibri_MSFontService, sans-serif">
        <path
           d="m 790.03271,359.85156 q 0,0.75781 -0.25,1.36719 -0.25,0.60937 -0.71875,1.03906 -0.46093,0.42969 -1.14062,0.66406 -0.67188,0.23438 -1.60938,0.23438 h -1.14843 v 3.64062 q 0,0.0625 -0.0391,0.10938 -0.0312,0.0469 -0.10937,0.0781 -0.0703,0.0234 -0.20313,0.0391 -0.125,0.0234 -0.32031,0.0234 -0.19531,0 -0.32812,-0.0234 -0.125,-0.0156 -0.20313,-0.0391 -0.0781,-0.0312 -0.10937,-0.0781 -0.0312,-0.0469 -0.0312,-0.10938 v -9.32812 q 0,-0.3125 0.16406,-0.44531 0.16406,-0.13282 0.36719,-0.13282 h 2.16406 q 0.32812,0 0.625,0.0312 0.30469,0.0234 0.71094,0.11719 0.41406,0.0859 0.83593,0.33594 0.42969,0.24219 0.72657,0.60156 0.29687,0.35938 0.45312,0.83594 0.16406,0.46875 0.16406,1.03906 z m -1.41406,0.10938 q 0,-0.61719 -0.23437,-1.03125 -0.22657,-0.41407 -0.57032,-0.61719 -0.33593,-0.20313 -0.70312,-0.25781 Q 786.75146,358 786.40771,358 h -1.24218 v 4.05469 h 1.21093 q 0.60938,0 1.00782,-0.15625 0.40625,-0.15625 0.67968,-0.42969 0.27344,-0.28125 0.41407,-0.66406 0.14062,-0.39063 0.14062,-0.84375 z"
           style="font-weight:400;font-size:16px;font-family:Calibri, Calibri_MSFontService, sans-serif"
           id="path954" />
        <path
           d="m 798.18115,363.21094 q 0,0.85937 -0.22656,1.58593 -0.22656,0.71875 -0.67969,1.24219 -0.44531,0.52344 -1.125,0.82031 -0.67187,0.28907 -1.5625,0.28907 -0.86719,0 -1.51562,-0.25782 -0.64063,-0.25781 -1.07032,-0.75 -0.42968,-0.49218 -0.64062,-1.19531 -0.21094,-0.70312 -0.21094,-1.59375 0,-0.85937 0.21875,-1.57812 0.22656,-0.72657 0.67188,-1.25 0.45312,-0.52344 1.125,-0.8125 0.67187,-0.28907 1.57031,-0.28907 0.86719,0 1.50781,0.25782 0.64844,0.25781 1.07813,0.75 0.42968,0.49218 0.64062,1.19531 0.21875,0.70312 0.21875,1.58594 z m -1.35937,0.0859 q 0,-0.57031 -0.10938,-1.07812 -0.10156,-0.50781 -0.34375,-0.89063 -0.24219,-0.38281 -0.65625,-0.60156 -0.41406,-0.22656 -1.03125,-0.22656 -0.57031,0 -0.98437,0.20312 -0.40625,0.20313 -0.67188,0.57813 -0.26562,0.36719 -0.39844,0.875 -0.125,0.50781 -0.125,1.10937 0,0.57813 0.10157,1.08594 0.10937,0.50781 0.35156,0.89063 0.25,0.375 0.66406,0.60156 0.41406,0.21875 1.03125,0.21875 0.5625,0 0.97656,-0.20313 0.41407,-0.20312 0.67969,-0.57031 0.26563,-0.36719 0.39063,-0.875 0.125,-0.50781 0.125,-1.11719 z"
           style="font-weight:400;font-size:16px;font-family:Calibri, Calibri_MSFontService, sans-serif"
           id="path956" />
        <path
           d="m 809.85303,359.75781 q 0,0.0547 -0.0156,0.13281 -0.0156,0.0781 -0.0547,0.19532 l -2.07031,6.67968 q -0.0234,0.0859 -0.0781,0.14063 -0.0469,0.0547 -0.14063,0.0859 -0.0859,0.0312 -0.24219,0.0391 -0.15625,0.0156 -0.39062,0.0156 -0.24219,0 -0.40625,-0.0156 -0.16406,-0.0156 -0.26563,-0.0469 -0.0937,-0.0312 -0.14062,-0.0859 -0.0469,-0.0547 -0.0703,-0.13282 l -1.47657,-5.10156 -0.0156,-0.0703 -0.0156,0.0703 -1.36718,5.10156 q -0.0234,0.0859 -0.0781,0.14063 -0.0469,0.0547 -0.14844,0.0859 -0.10156,0.0312 -0.26562,0.0391 -0.15625,0.0156 -0.39063,0.0156 -0.24218,0 -0.39843,-0.0156 -0.14844,-0.0156 -0.25,-0.0469 -0.0937,-0.0312 -0.14063,-0.0859 -0.0469,-0.0547 -0.0703,-0.13282 l -2.05469,-6.67968 q -0.0391,-0.11719 -0.0547,-0.19532 -0.0156,-0.0781 -0.0156,-0.13281 0,-0.0703 0.0312,-0.10937 0.0312,-0.0469 0.10156,-0.0703 0.0781,-0.0312 0.20313,-0.0391 0.125,-0.008 0.30468,-0.008 0.21875,0 0.35157,0.0156 0.13281,0.008 0.20312,0.0391 0.0703,0.0234 0.10156,0.0781 0.0312,0.0469 0.0547,0.11719 l 1.69531,5.79687 0.0156,0.0703 0.0156,-0.0703 1.55469,-5.79687 q 0.0156,-0.0703 0.0469,-0.11719 0.0391,-0.0547 0.10937,-0.0781 0.0703,-0.0312 0.1875,-0.0391 0.125,-0.0156 0.32031,-0.0156 0.1875,0 0.30469,0.0156 0.125,0.008 0.19531,0.0391 0.0703,0.0234 0.10157,0.0703 0.0312,0.0469 0.0469,0.10937 l 1.67969,5.8125 0.0156,0.0703 0.008,-0.0703 1.67187,-5.79687 q 0.0156,-0.0703 0.0469,-0.11719 0.0391,-0.0547 0.10937,-0.0781 0.0781,-0.0312 0.20313,-0.0391 0.13281,-0.0156 0.33593,-0.0156 0.1875,0 0.29688,0.008 0.11719,0.008 0.17969,0.0391 0.0703,0.0312 0.0937,0.0703 0.0312,0.0391 0.0312,0.10937 z"
           style="font-weight:400;font-size:16px;font-family:Calibri, Calibri_MSFontService, sans-serif"
           id="path958" />
        <path
           d="m 817.32959,362.98437 q 0,0.30469 -0.15625,0.4375 -0.14844,0.125 -0.34375,0.125 h -4.60938 q 0,0.58594 0.11719,1.05469 0.11719,0.46875 0.39063,0.80469 0.27343,0.33594 0.71093,0.51562 0.4375,0.17969 1.07032,0.17969 0.5,0 0.89062,-0.0781 0.39063,-0.0859 0.67188,-0.1875 0.28906,-0.10157 0.46875,-0.17969 0.1875,-0.0859 0.28125,-0.0859 0.0547,0 0.0937,0.0312 0.0469,0.0234 0.0703,0.0781 0.0234,0.0547 0.0312,0.15625 0.0156,0.0937 0.0156,0.23437 0,0.10156 -0.008,0.17969 -0.008,0.0703 -0.0234,0.13281 -0.008,0.0547 -0.0391,0.10156 -0.0234,0.0469 -0.0703,0.0937 -0.0391,0.0391 -0.25,0.14063 -0.21094,0.0937 -0.54688,0.1875 -0.33593,0.0937 -0.78125,0.16406 -0.4375,0.0781 -0.9375,0.0781 -0.86718,0 -1.52343,-0.24219 -0.64844,-0.24219 -1.09375,-0.71875 -0.44532,-0.47656 -0.67188,-1.19531 -0.22656,-0.71875 -0.22656,-1.67188 0,-0.90625 0.23437,-1.625 0.23438,-0.72656 0.67188,-1.22656 0.44531,-0.50781 1.07031,-0.77344 0.625,-0.27344 1.39844,-0.27344 0.82812,0 1.40625,0.26563 0.58594,0.26562 0.96094,0.71875 0.375,0.44531 0.54687,1.05469 0.17969,0.60156 0.17969,1.28906 z m -1.29688,-0.38281 q 0.0234,-1.01562 -0.45312,-1.59375 -0.46875,-0.57812 -1.39844,-0.57812 -0.47656,0 -0.83594,0.17968 -0.35937,0.17969 -0.60156,0.47657 -0.24219,0.29687 -0.375,0.69531 -0.13281,0.39062 -0.14844,0.82031 z"
           style="font-weight:400;font-size:16px;font-family:Calibri, Calibri_MSFontService, sans-serif"
           id="path960" />
        <path
           d="m 823.59607,360.23437 q 0,0.17188 -0.008,0.28907 -0.008,0.11718 -0.0312,0.1875 -0.0234,0.0625 -0.0625,0.10156 -0.0312,0.0312 -0.0937,0.0312 -0.0625,0 -0.15625,-0.0312 -0.0859,-0.0391 -0.20313,-0.0703 -0.10937,-0.0391 -0.25,-0.0703 -0.14062,-0.0312 -0.30469,-0.0312 -0.19531,0 -0.38281,0.0781 -0.1875,0.0781 -0.39844,0.25781 -0.20312,0.17969 -0.42968,0.47656 -0.22657,0.29688 -0.5,0.72657 v 4.625 q 0,0.0625 -0.0312,0.10937 -0.0312,0.0391 -0.10157,0.0703 -0.0703,0.0312 -0.19531,0.0469 -0.125,0.0156 -0.32031,0.0156 -0.1875,0 -0.3125,-0.0156 -0.125,-0.0156 -0.20313,-0.0469 -0.0703,-0.0312 -0.10156,-0.0703 -0.0234,-0.0469 -0.0234,-0.10937 v -7.03125 q 0,-0.0625 0.0234,-0.10157 0.0234,-0.0469 0.0937,-0.0781 0.0703,-0.0391 0.17969,-0.0469 0.10937,-0.0156 0.28906,-0.0156 0.17188,0 0.28125,0.0156 0.11719,0.008 0.17969,0.0469 0.0625,0.0312 0.0859,0.0781 0.0312,0.0391 0.0312,0.10157 v 1.02343 q 0.28906,-0.42187 0.53906,-0.6875 0.25781,-0.26562 0.48437,-0.41406 0.22657,-0.15625 0.44532,-0.21094 0.22656,-0.0625 0.45312,-0.0625 0.10156,0 0.22656,0.0156 0.13282,0.008 0.27344,0.0391 0.14063,0.0312 0.25,0.0703 0.11719,0.0391 0.16406,0.0781 0.0469,0.0391 0.0625,0.0781 0.0156,0.0312 0.0234,0.0859 0.0156,0.0547 0.0156,0.16406 0.008,0.10157 0.008,0.28125 z"
           id="path962" />
      </g>
      <path
         id="path108"
         stroke-width="7.2504"
         stroke-linejoin="round"
         stroke="#000000"
         fill="none"
         d="m 136.22,299.91 h 11.54 l 15.952,20.689 19.685,-66.977 18.328,76.445 17.649,-55.055 7.4668,24.196 33.94,-0.35067" />
    </g>
  </g>
</svg>
