<?xml version="1.0" encoding="utf-8" standalone="no"?>
<!DOCTYPE svg PUBLIC "-//W3C//DTD SVG 1.1//EN"
  "http://www.w3.org/Graphics/SVG/1.1/DTD/svg11.dtd">
<!-- Created with matplotlib (https://matplotlib.org/) -->
<svg height="497.077812pt" version="1.1" viewBox="0 0 761.75375 497.077812" width="761.75375pt" xmlns="http://www.w3.org/2000/svg" xmlns:xlink="http://www.w3.org/1999/xlink">
 <defs>
  <style type="text/css">
*{stroke-linecap:butt;stroke-linejoin:round;}
  </style>
 </defs>
 <g id="figure_1">
  <g id="patch_1">
   <path d="M 0 497.077812 
L 761.75375 497.077812 
L 761.75375 0 
L 0 0 
z
" style="fill:#ffffff;"/>
  </g>
  <g id="axes_1">
   <g id="patch_2">
    <path d="M 46.31125 196.118125 
L 754.55375 196.118125 
L 754.55375 22.318125 
L 46.31125 22.318125 
z
" style="fill:#ffffff;"/>
   </g>
   <g id="matplotlib.axis_1">
    <g id="xtick_1">
     <g id="text_1">
      <!-- 0.0 -->
      <defs>
       <path d="M 31.78125 66.40625 
Q 24.171875 66.40625 20.328125 58.90625 
Q 16.5 51.421875 16.5 36.375 
Q 16.5 21.390625 20.328125 13.890625 
Q 24.171875 6.390625 31.78125 6.390625 
Q 39.453125 6.390625 43.28125 13.890625 
Q 47.125 21.390625 47.125 36.375 
Q 47.125 51.421875 43.28125 58.90625 
Q 39.453125 66.40625 31.78125 66.40625 
z
M 31.78125 74.21875 
Q 44.046875 74.21875 50.515625 64.515625 
Q 56.984375 54.828125 56.984375 36.375 
Q 56.984375 17.96875 50.515625 8.265625 
Q 44.046875 -1.421875 31.78125 -1.421875 
Q 19.53125 -1.421875 13.0625 8.265625 
Q 6.59375 17.96875 6.59375 36.375 
Q 6.59375 54.828125 13.0625 64.515625 
Q 19.53125 74.21875 31.78125 74.21875 
z
" id="DejaVuSans-48"/>
       <path d="M 10.6875 12.40625 
L 21 12.40625 
L 21 0 
L 10.6875 0 
z
" id="DejaVuSans-46"/>
      </defs>
      <g style="fill:#262626;" transform="translate(69.757372 213.976406)scale(0.11 -0.11)">
       <use xlink:href="#DejaVuSans-48"/>
       <use x="63.623047" xlink:href="#DejaVuSans-46"/>
       <use x="95.410156" xlink:href="#DejaVuSans-48"/>
      </g>
     </g>
    </g>
    <g id="xtick_2">
     <g id="text_2">
      <!-- 0.2 -->
      <defs>
       <path d="M 19.1875 8.296875 
L 53.609375 8.296875 
L 53.609375 0 
L 7.328125 0 
L 7.328125 8.296875 
Q 12.9375 14.109375 22.625 23.890625 
Q 32.328125 33.6875 34.8125 36.53125 
Q 39.546875 41.84375 41.421875 45.53125 
Q 43.3125 49.21875 43.3125 52.78125 
Q 43.3125 58.59375 39.234375 62.25 
Q 35.15625 65.921875 28.609375 65.921875 
Q 23.96875 65.921875 18.8125 64.3125 
Q 13.671875 62.703125 7.8125 59.421875 
L 7.8125 69.390625 
Q 13.765625 71.78125 18.9375 73 
Q 24.125 74.21875 28.421875 74.21875 
Q 39.75 74.21875 46.484375 68.546875 
Q 53.21875 62.890625 53.21875 53.421875 
Q 53.21875 48.921875 51.53125 44.890625 
Q 49.859375 40.875 45.40625 35.40625 
Q 44.1875 33.984375 37.640625 27.21875 
Q 31.109375 20.453125 19.1875 8.296875 
z
" id="DejaVuSans-50"/>
      </defs>
      <g style="fill:#262626;" transform="translate(154.475375 213.976406)scale(0.11 -0.11)">
       <use xlink:href="#DejaVuSans-48"/>
       <use x="63.623047" xlink:href="#DejaVuSans-46"/>
       <use x="95.410156" xlink:href="#DejaVuSans-50"/>
      </g>
     </g>
    </g>
    <g id="xtick_3">
     <g id="text_3">
      <!-- 0.4 -->
      <defs>
       <path d="M 37.796875 64.3125 
L 12.890625 25.390625 
L 37.796875 25.390625 
z
M 35.203125 72.90625 
L 47.609375 72.90625 
L 47.609375 25.390625 
L 58.015625 25.390625 
L 58.015625 17.1875 
L 47.609375 17.1875 
L 47.609375 0 
L 37.796875 0 
L 37.796875 17.1875 
L 4.890625 17.1875 
L 4.890625 26.703125 
z
" id="DejaVuSans-52"/>
      </defs>
      <g style="fill:#262626;" transform="translate(239.193377 213.976406)scale(0.11 -0.11)">
       <use xlink:href="#DejaVuSans-48"/>
       <use x="63.623047" xlink:href="#DejaVuSans-46"/>
       <use x="95.410156" xlink:href="#DejaVuSans-52"/>
      </g>
     </g>
    </g>
    <g id="xtick_4">
     <g id="text_4">
      <!-- 0.6 -->
      <defs>
       <path d="M 33.015625 40.375 
Q 26.375 40.375 22.484375 35.828125 
Q 18.609375 31.296875 18.609375 23.390625 
Q 18.609375 15.53125 22.484375 10.953125 
Q 26.375 6.390625 33.015625 6.390625 
Q 39.65625 6.390625 43.53125 10.953125 
Q 47.40625 15.53125 47.40625 23.390625 
Q 47.40625 31.296875 43.53125 35.828125 
Q 39.65625 40.375 33.015625 40.375 
z
M 52.59375 71.296875 
L 52.59375 62.3125 
Q 48.875 64.0625 45.09375 64.984375 
Q 41.3125 65.921875 37.59375 65.921875 
Q 27.828125 65.921875 22.671875 59.328125 
Q 17.53125 52.734375 16.796875 39.40625 
Q 19.671875 43.65625 24.015625 45.921875 
Q 28.375 48.1875 33.59375 48.1875 
Q 44.578125 48.1875 50.953125 41.515625 
Q 57.328125 34.859375 57.328125 23.390625 
Q 57.328125 12.15625 50.6875 5.359375 
Q 44.046875 -1.421875 33.015625 -1.421875 
Q 20.359375 -1.421875 13.671875 8.265625 
Q 6.984375 17.96875 6.984375 36.375 
Q 6.984375 53.65625 15.1875 63.9375 
Q 23.390625 74.21875 37.203125 74.21875 
Q 40.921875 74.21875 44.703125 73.484375 
Q 48.484375 72.75 52.59375 71.296875 
z
" id="DejaVuSans-54"/>
      </defs>
      <g style="fill:#262626;" transform="translate(323.911379 213.976406)scale(0.11 -0.11)">
       <use xlink:href="#DejaVuSans-48"/>
       <use x="63.623047" xlink:href="#DejaVuSans-46"/>
       <use x="95.410156" xlink:href="#DejaVuSans-54"/>
      </g>
     </g>
    </g>
    <g id="xtick_5">
     <g id="text_5">
      <!-- 0.8 -->
      <defs>
       <path d="M 31.78125 34.625 
Q 24.75 34.625 20.71875 30.859375 
Q 16.703125 27.09375 16.703125 20.515625 
Q 16.703125 13.921875 20.71875 10.15625 
Q 24.75 6.390625 31.78125 6.390625 
Q 38.8125 6.390625 42.859375 10.171875 
Q 46.921875 13.96875 46.921875 20.515625 
Q 46.921875 27.09375 42.890625 30.859375 
Q 38.875 34.625 31.78125 34.625 
z
M 21.921875 38.8125 
Q 15.578125 40.375 12.03125 44.71875 
Q 8.5 49.078125 8.5 55.328125 
Q 8.5 64.0625 14.71875 69.140625 
Q 20.953125 74.21875 31.78125 74.21875 
Q 42.671875 74.21875 48.875 69.140625 
Q 55.078125 64.0625 55.078125 55.328125 
Q 55.078125 49.078125 51.53125 44.71875 
Q 48 40.375 41.703125 38.8125 
Q 48.828125 37.15625 52.796875 32.3125 
Q 56.78125 27.484375 56.78125 20.515625 
Q 56.78125 9.90625 50.3125 4.234375 
Q 43.84375 -1.421875 31.78125 -1.421875 
Q 19.734375 -1.421875 13.25 4.234375 
Q 6.78125 9.90625 6.78125 20.515625 
Q 6.78125 27.484375 10.78125 32.3125 
Q 14.796875 37.15625 21.921875 38.8125 
z
M 18.3125 54.390625 
Q 18.3125 48.734375 21.84375 45.5625 
Q 25.390625 42.390625 31.78125 42.390625 
Q 38.140625 42.390625 41.71875 45.5625 
Q 45.3125 48.734375 45.3125 54.390625 
Q 45.3125 60.0625 41.71875 63.234375 
Q 38.140625 66.40625 31.78125 66.40625 
Q 25.390625 66.40625 21.84375 63.234375 
Q 18.3125 60.0625 18.3125 54.390625 
z
" id="DejaVuSans-56"/>
      </defs>
      <g style="fill:#262626;" transform="translate(408.629382 213.976406)scale(0.11 -0.11)">
       <use xlink:href="#DejaVuSans-48"/>
       <use x="63.623047" xlink:href="#DejaVuSans-46"/>
       <use x="95.410156" xlink:href="#DejaVuSans-56"/>
      </g>
     </g>
    </g>
    <g id="xtick_6">
     <g id="text_6">
      <!-- 1.0 -->
      <defs>
       <path d="M 12.40625 8.296875 
L 28.515625 8.296875 
L 28.515625 63.921875 
L 10.984375 60.40625 
L 10.984375 69.390625 
L 28.421875 72.90625 
L 38.28125 72.90625 
L 38.28125 8.296875 
L 54.390625 8.296875 
L 54.390625 0 
L 12.40625 0 
z
" id="DejaVuSans-49"/>
      </defs>
      <g style="fill:#262626;" transform="translate(493.347384 213.976406)scale(0.11 -0.11)">
       <use xlink:href="#DejaVuSans-49"/>
       <use x="63.623047" xlink:href="#DejaVuSans-46"/>
       <use x="95.410156" xlink:href="#DejaVuSans-48"/>
      </g>
     </g>
    </g>
    <g id="xtick_7">
     <g id="text_7">
      <!-- 1.2 -->
      <g style="fill:#262626;" transform="translate(578.065387 213.976406)scale(0.11 -0.11)">
       <use xlink:href="#DejaVuSans-49"/>
       <use x="63.623047" xlink:href="#DejaVuSans-46"/>
       <use x="95.410156" xlink:href="#DejaVuSans-50"/>
      </g>
     </g>
    </g>
    <g id="xtick_8">
     <g id="text_8">
      <!-- 1.4 -->
      <g style="fill:#262626;" transform="translate(662.783389 213.976406)scale(0.11 -0.11)">
       <use xlink:href="#DejaVuSans-49"/>
       <use x="63.623047" xlink:href="#DejaVuSans-46"/>
       <use x="95.410156" xlink:href="#DejaVuSans-52"/>
      </g>
     </g>
    </g>
    <g id="text_9">
     <!-- Time (seconds) -->
     <defs>
      <path d="M -0.296875 72.90625 
L 61.375 72.90625 
L 61.375 64.59375 
L 35.5 64.59375 
L 35.5 0 
L 25.59375 0 
L 25.59375 64.59375 
L -0.296875 64.59375 
z
" id="DejaVuSans-84"/>
      <path d="M 9.421875 54.6875 
L 18.40625 54.6875 
L 18.40625 0 
L 9.421875 0 
z
M 9.421875 75.984375 
L 18.40625 75.984375 
L 18.40625 64.59375 
L 9.421875 64.59375 
z
" id="DejaVuSans-105"/>
      <path d="M 52 44.1875 
Q 55.375 50.25 60.0625 53.125 
Q 64.75 56 71.09375 56 
Q 79.640625 56 84.28125 50.015625 
Q 88.921875 44.046875 88.921875 33.015625 
L 88.921875 0 
L 79.890625 0 
L 79.890625 32.71875 
Q 79.890625 40.578125 77.09375 44.375 
Q 74.3125 48.1875 68.609375 48.1875 
Q 61.625 48.1875 57.5625 43.546875 
Q 53.515625 38.921875 53.515625 30.90625 
L 53.515625 0 
L 44.484375 0 
L 44.484375 32.71875 
Q 44.484375 40.625 41.703125 44.40625 
Q 38.921875 48.1875 33.109375 48.1875 
Q 26.21875 48.1875 22.15625 43.53125 
Q 18.109375 38.875 18.109375 30.90625 
L 18.109375 0 
L 9.078125 0 
L 9.078125 54.6875 
L 18.109375 54.6875 
L 18.109375 46.1875 
Q 21.1875 51.21875 25.484375 53.609375 
Q 29.78125 56 35.6875 56 
Q 41.65625 56 45.828125 52.96875 
Q 50 49.953125 52 44.1875 
z
" id="DejaVuSans-109"/>
      <path d="M 56.203125 29.59375 
L 56.203125 25.203125 
L 14.890625 25.203125 
Q 15.484375 15.921875 20.484375 11.0625 
Q 25.484375 6.203125 34.421875 6.203125 
Q 39.59375 6.203125 44.453125 7.46875 
Q 49.3125 8.734375 54.109375 11.28125 
L 54.109375 2.78125 
Q 49.265625 0.734375 44.1875 -0.34375 
Q 39.109375 -1.421875 33.890625 -1.421875 
Q 20.796875 -1.421875 13.15625 6.1875 
Q 5.515625 13.8125 5.515625 26.8125 
Q 5.515625 40.234375 12.765625 48.109375 
Q 20.015625 56 32.328125 56 
Q 43.359375 56 49.78125 48.890625 
Q 56.203125 41.796875 56.203125 29.59375 
z
M 47.21875 32.234375 
Q 47.125 39.59375 43.09375 43.984375 
Q 39.0625 48.390625 32.421875 48.390625 
Q 24.90625 48.390625 20.390625 44.140625 
Q 15.875 39.890625 15.1875 32.171875 
z
" id="DejaVuSans-101"/>
      <path id="DejaVuSans-32"/>
      <path d="M 31 75.875 
Q 24.46875 64.65625 21.28125 53.65625 
Q 18.109375 42.671875 18.109375 31.390625 
Q 18.109375 20.125 21.3125 9.0625 
Q 24.515625 -2 31 -13.1875 
L 23.1875 -13.1875 
Q 15.875 -1.703125 12.234375 9.375 
Q 8.59375 20.453125 8.59375 31.390625 
Q 8.59375 42.28125 12.203125 53.3125 
Q 15.828125 64.359375 23.1875 75.875 
z
" id="DejaVuSans-40"/>
      <path d="M 44.28125 53.078125 
L 44.28125 44.578125 
Q 40.484375 46.53125 36.375 47.5 
Q 32.28125 48.484375 27.875 48.484375 
Q 21.1875 48.484375 17.84375 46.4375 
Q 14.5 44.390625 14.5 40.28125 
Q 14.5 37.15625 16.890625 35.375 
Q 19.28125 33.59375 26.515625 31.984375 
L 29.59375 31.296875 
Q 39.15625 29.25 43.1875 25.515625 
Q 47.21875 21.78125 47.21875 15.09375 
Q 47.21875 7.46875 41.1875 3.015625 
Q 35.15625 -1.421875 24.609375 -1.421875 
Q 20.21875 -1.421875 15.453125 -0.5625 
Q 10.6875 0.296875 5.421875 2 
L 5.421875 11.28125 
Q 10.40625 8.6875 15.234375 7.390625 
Q 20.0625 6.109375 24.8125 6.109375 
Q 31.15625 6.109375 34.5625 8.28125 
Q 37.984375 10.453125 37.984375 14.40625 
Q 37.984375 18.0625 35.515625 20.015625 
Q 33.0625 21.96875 24.703125 23.78125 
L 21.578125 24.515625 
Q 13.234375 26.265625 9.515625 29.90625 
Q 5.8125 33.546875 5.8125 39.890625 
Q 5.8125 47.609375 11.28125 51.796875 
Q 16.75 56 26.8125 56 
Q 31.78125 56 36.171875 55.265625 
Q 40.578125 54.546875 44.28125 53.078125 
z
" id="DejaVuSans-115"/>
      <path d="M 48.78125 52.59375 
L 48.78125 44.1875 
Q 44.96875 46.296875 41.140625 47.34375 
Q 37.3125 48.390625 33.40625 48.390625 
Q 24.65625 48.390625 19.8125 42.84375 
Q 14.984375 37.3125 14.984375 27.296875 
Q 14.984375 17.28125 19.8125 11.734375 
Q 24.65625 6.203125 33.40625 6.203125 
Q 37.3125 6.203125 41.140625 7.25 
Q 44.96875 8.296875 48.78125 10.40625 
L 48.78125 2.09375 
Q 45.015625 0.34375 40.984375 -0.53125 
Q 36.96875 -1.421875 32.421875 -1.421875 
Q 20.0625 -1.421875 12.78125 6.34375 
Q 5.515625 14.109375 5.515625 27.296875 
Q 5.515625 40.671875 12.859375 48.328125 
Q 20.21875 56 33.015625 56 
Q 37.15625 56 41.109375 55.140625 
Q 45.0625 54.296875 48.78125 52.59375 
z
" id="DejaVuSans-99"/>
      <path d="M 30.609375 48.390625 
Q 23.390625 48.390625 19.1875 42.75 
Q 14.984375 37.109375 14.984375 27.296875 
Q 14.984375 17.484375 19.15625 11.84375 
Q 23.34375 6.203125 30.609375 6.203125 
Q 37.796875 6.203125 41.984375 11.859375 
Q 46.1875 17.53125 46.1875 27.296875 
Q 46.1875 37.015625 41.984375 42.703125 
Q 37.796875 48.390625 30.609375 48.390625 
z
M 30.609375 56 
Q 42.328125 56 49.015625 48.375 
Q 55.71875 40.765625 55.71875 27.296875 
Q 55.71875 13.875 49.015625 6.21875 
Q 42.328125 -1.421875 30.609375 -1.421875 
Q 18.84375 -1.421875 12.171875 6.21875 
Q 5.515625 13.875 5.515625 27.296875 
Q 5.515625 40.765625 12.171875 48.375 
Q 18.84375 56 30.609375 56 
z
" id="DejaVuSans-111"/>
      <path d="M 54.890625 33.015625 
L 54.890625 0 
L 45.90625 0 
L 45.90625 32.71875 
Q 45.90625 40.484375 42.875 44.328125 
Q 39.84375 48.1875 33.796875 48.1875 
Q 26.515625 48.1875 22.3125 43.546875 
Q 18.109375 38.921875 18.109375 30.90625 
L 18.109375 0 
L 9.078125 0 
L 9.078125 54.6875 
L 18.109375 54.6875 
L 18.109375 46.1875 
Q 21.34375 51.125 25.703125 53.5625 
Q 30.078125 56 35.796875 56 
Q 45.21875 56 50.046875 50.171875 
Q 54.890625 44.34375 54.890625 33.015625 
z
" id="DejaVuSans-110"/>
      <path d="M 45.40625 46.390625 
L 45.40625 75.984375 
L 54.390625 75.984375 
L 54.390625 0 
L 45.40625 0 
L 45.40625 8.203125 
Q 42.578125 3.328125 38.25 0.953125 
Q 33.9375 -1.421875 27.875 -1.421875 
Q 17.96875 -1.421875 11.734375 6.484375 
Q 5.515625 14.40625 5.515625 27.296875 
Q 5.515625 40.1875 11.734375 48.09375 
Q 17.96875 56 27.875 56 
Q 33.9375 56 38.25 53.625 
Q 42.578125 51.265625 45.40625 46.390625 
z
M 14.796875 27.296875 
Q 14.796875 17.390625 18.875 11.75 
Q 22.953125 6.109375 30.078125 6.109375 
Q 37.203125 6.109375 41.296875 11.75 
Q 45.40625 17.390625 45.40625 27.296875 
Q 45.40625 37.203125 41.296875 42.84375 
Q 37.203125 48.484375 30.078125 48.484375 
Q 22.953125 48.484375 18.875 42.84375 
Q 14.796875 37.203125 14.796875 27.296875 
z
" id="DejaVuSans-100"/>
      <path d="M 8.015625 75.875 
L 15.828125 75.875 
Q 23.140625 64.359375 26.78125 53.3125 
Q 30.421875 42.28125 30.421875 31.390625 
Q 30.421875 20.453125 26.78125 9.375 
Q 23.140625 -1.703125 15.828125 -13.1875 
L 8.015625 -13.1875 
Q 14.5 -2 17.703125 9.0625 
Q 20.90625 20.125 20.90625 31.390625 
Q 20.90625 42.671875 17.703125 53.65625 
Q 14.5 64.65625 8.015625 75.875 
z
" id="DejaVuSans-41"/>
     </defs>
     <g style="fill:#262626;" transform="translate(354.45375 229.382187)scale(0.12 -0.12)">
      <use xlink:href="#DejaVuSans-84"/>
      <use x="61.037109" xlink:href="#DejaVuSans-105"/>
      <use x="88.820312" xlink:href="#DejaVuSans-109"/>
      <use x="186.232422" xlink:href="#DejaVuSans-101"/>
      <use x="247.755859" xlink:href="#DejaVuSans-32"/>
      <use x="279.542969" xlink:href="#DejaVuSans-40"/>
      <use x="318.556641" xlink:href="#DejaVuSans-115"/>
      <use x="370.65625" xlink:href="#DejaVuSans-101"/>
      <use x="432.179688" xlink:href="#DejaVuSans-99"/>
      <use x="487.160156" xlink:href="#DejaVuSans-111"/>
      <use x="548.341797" xlink:href="#DejaVuSans-110"/>
      <use x="611.720703" xlink:href="#DejaVuSans-100"/>
      <use x="675.197266" xlink:href="#DejaVuSans-115"/>
      <use x="727.296875" xlink:href="#DejaVuSans-41"/>
     </g>
    </g>
   </g>
   <g id="matplotlib.axis_2">
    <g id="ytick_1"/>
    <g id="ytick_2"/>
    <g id="ytick_3"/>
    <g id="ytick_4"/>
    <g id="ytick_5"/>
    <g id="ytick_6"/>
    <g id="text_10">
     <!-- Current -->
     <defs>
      <path d="M 64.40625 67.28125 
L 64.40625 56.890625 
Q 59.421875 61.53125 53.78125 63.8125 
Q 48.140625 66.109375 41.796875 66.109375 
Q 29.296875 66.109375 22.65625 58.46875 
Q 16.015625 50.828125 16.015625 36.375 
Q 16.015625 21.96875 22.65625 14.328125 
Q 29.296875 6.6875 41.796875 6.6875 
Q 48.140625 6.6875 53.78125 8.984375 
Q 59.421875 11.28125 64.40625 15.921875 
L 64.40625 5.609375 
Q 59.234375 2.09375 53.4375 0.328125 
Q 47.65625 -1.421875 41.21875 -1.421875 
Q 24.65625 -1.421875 15.125 8.703125 
Q 5.609375 18.84375 5.609375 36.375 
Q 5.609375 53.953125 15.125 64.078125 
Q 24.65625 74.21875 41.21875 74.21875 
Q 47.75 74.21875 53.53125 72.484375 
Q 59.328125 70.75 64.40625 67.28125 
z
" id="DejaVuSans-67"/>
      <path d="M 8.5 21.578125 
L 8.5 54.6875 
L 17.484375 54.6875 
L 17.484375 21.921875 
Q 17.484375 14.15625 20.5 10.265625 
Q 23.53125 6.390625 29.59375 6.390625 
Q 36.859375 6.390625 41.078125 11.03125 
Q 45.3125 15.671875 45.3125 23.6875 
L 45.3125 54.6875 
L 54.296875 54.6875 
L 54.296875 0 
L 45.3125 0 
L 45.3125 8.40625 
Q 42.046875 3.421875 37.71875 1 
Q 33.40625 -1.421875 27.6875 -1.421875 
Q 18.265625 -1.421875 13.375 4.4375 
Q 8.5 10.296875 8.5 21.578125 
z
M 31.109375 56 
z
" id="DejaVuSans-117"/>
      <path d="M 41.109375 46.296875 
Q 39.59375 47.171875 37.8125 47.578125 
Q 36.03125 48 33.890625 48 
Q 26.265625 48 22.1875 43.046875 
Q 18.109375 38.09375 18.109375 28.8125 
L 18.109375 0 
L 9.078125 0 
L 9.078125 54.6875 
L 18.109375 54.6875 
L 18.109375 46.1875 
Q 20.953125 51.171875 25.484375 53.578125 
Q 30.03125 56 36.53125 56 
Q 37.453125 56 38.578125 55.875 
Q 39.703125 55.765625 41.0625 55.515625 
z
" id="DejaVuSans-114"/>
      <path d="M 18.3125 70.21875 
L 18.3125 54.6875 
L 36.8125 54.6875 
L 36.8125 47.703125 
L 18.3125 47.703125 
L 18.3125 18.015625 
Q 18.3125 11.328125 20.140625 9.421875 
Q 21.96875 7.515625 27.59375 7.515625 
L 36.8125 7.515625 
L 36.8125 0 
L 27.59375 0 
Q 17.1875 0 13.234375 3.875 
Q 9.28125 7.765625 9.28125 18.015625 
L 9.28125 47.703125 
L 2.6875 47.703125 
L 2.6875 54.6875 
L 9.28125 54.6875 
L 9.28125 70.21875 
z
" id="DejaVuSans-116"/>
     </defs>
     <g style="fill:#262626;" transform="translate(30.315625 131.987187)rotate(-90)scale(0.12 -0.12)">
      <use xlink:href="#DejaVuSans-67"/>
      <use x="69.824219" xlink:href="#DejaVuSans-117"/>
      <use x="133.203125" xlink:href="#DejaVuSans-114"/>
      <use x="174.300781" xlink:href="#DejaVuSans-114"/>
      <use x="215.382812" xlink:href="#DejaVuSans-101"/>
      <use x="276.90625" xlink:href="#DejaVuSans-110"/>
      <use x="340.285156" xlink:href="#DejaVuSans-116"/>
     </g>
    </g>
   </g>
   <g id="line2d_1">
    <path clip-path="url(#p33a75dbfbe)" d="M 78.504091 160.14628 
L 78.92796 168.122979 
L 79.351829 169.65696 
L 80.199566 159.532688 
L 81.047304 135.142397 
L 81.471173 131.154047 
L 81.895042 126.091911 
L 82.318911 136.216183 
L 82.74278 131.307445 
L 83.166649 130.693853 
L 83.590517 119.342397 
L 84.014386 120.416183 
L 84.438255 111.97929 
L 84.862124 117.808416 
L 85.285993 113.513271 
L 85.709862 119.188999 
L 86.133731 118.422008 
L 86.557599 129.926863 
L 86.981468 132.074436 
L 87.405337 144.653076 
L 87.829206 138.82395 
L 88.253075 153.396766 
L 88.676944 154.777348 
L 89.100813 165.66861 
L 89.524682 163.214242 
L 89.94855 164.441426 
L 90.372419 151.862785 
L 90.796288 149.408416 
L 91.220157 144.192882 
L 91.644026 140.664727 
L 92.067895 138.363756 
L 92.491764 140.204533 
L 92.915633 133.30162 
L 93.339501 132.688028 
L 93.76337 118.26861 
L 94.187239 122.410358 
L 94.611108 109.064727 
L 95.034977 108.451135 
L 95.458846 103.388999 
L 95.882715 122.870552 
L 96.306584 121.029775 
L 96.730452 135.142397 
L 97.154321 134.835601 
L 97.57819 144.806475 
L 98.002059 142.965698 
L 98.849797 148.027834 
L 99.273666 158.6123 
L 99.697535 151.709387 
L 100.121403 159.532688 
L 100.545272 153.396766 
L 100.969141 163.981232 
L 101.39301 154.470552 
L 101.816879 150.328805 
L 102.240748 140.664727 
L 102.664617 143.119096 
L 103.088486 130.693853 
L 103.512354 131.76764 
L 103.936223 119.495795 
L 104.360092 116.581232 
L 104.783961 107.530746 
L 105.20783 111.825892 
L 105.631699 106.45696 
L 106.055568 125.324921 
L 106.479437 119.188999 
L 106.903305 132.841426 
L 107.327174 129.773465 
L 107.751043 144.192882 
L 108.174912 135.909387 
L 108.598781 139.284144 
L 109.02265 128.086086 
L 109.446519 149.255018 
L 109.870388 152.783174 
L 110.294256 166.128805 
L 110.718125 164.13463 
L 111.141994 170.270552 
L 111.989732 157.385115 
L 112.413601 138.517154 
L 112.83747 142.658902 
L 113.261339 121.950164 
L 113.685207 124.557931 
L 114.109076 114.740455 
L 114.532945 127.625892 
L 114.956814 117.961814 
L 115.380683 120.416183 
L 115.804552 113.973465 
L 116.228421 123.484144 
L 116.652289 119.188999 
L 117.076158 127.77929 
L 117.500027 120.722979 
L 117.923896 131.921038 
L 118.347765 124.711329 
L 118.771634 136.522979 
L 119.195503 133.455018 
L 119.619372 154.777348 
L 120.04324 153.243368 
L 120.467109 169.196766 
L 120.890978 161.220067 
L 121.314847 171.651135 
L 121.738716 160.453076 
L 122.162585 154.163756 
L 122.586454 137.750164 
L 123.010323 138.210358 
L 123.434191 128.086086 
L 123.85806 135.602591 
L 124.281929 128.086086 
L 124.705798 136.829775 
L 125.129667 122.410358 
L 125.553536 123.177348 
L 125.977405 109.064727 
L 126.401274 121.48997 
L 126.825142 110.138513 
L 127.249011 114.893853 
L 127.67288 109.218125 
L 128.096749 127.165698 
L 128.520618 132.53463 
L 128.944487 143.425892 
L 129.368356 139.897737 
L 129.792225 152.169581 
L 130.216093 150.788999 
L 130.639962 161.833659 
L 131.063831 159.839484 
L 131.4877 170.577348 
L 131.911569 153.243368 
L 132.335438 153.243368 
L 132.759307 143.272494 
L 133.183176 150.942397 
L 133.607044 137.750164 
L 134.030913 137.903562 
L 134.454782 129.313271 
L 134.878651 136.062785 
L 135.30252 127.0123 
L 135.726389 125.018125 
L 136.150258 109.524921 
L 136.574127 111.2123 
L 136.997995 101.70162 
L 137.421864 114.280261 
L 137.845733 118.422008 
L 138.269602 135.449193 
L 138.693471 133.761814 
L 139.11734 142.658902 
L 139.541209 137.136572 
L 139.965078 148.181232 
L 140.388946 144.959873 
L 140.812815 148.027834 
L 141.236684 148.641426 
L 141.660553 161.987057 
L 142.084422 161.373465 
L 142.508291 163.214242 
L 142.93216 153.550164 
L 143.356028 157.385115 
L 143.779897 143.732688 
L 144.203766 143.732688 
L 144.627635 132.53463 
L 145.051504 142.352106 
L 145.475373 125.171523 
L 145.899242 117.655018 
L 146.323111 106.45696 
L 146.746979 112.132688 
L 147.170848 112.899678 
L 147.594717 117.194824 
L 148.018586 118.422008 
L 148.442455 132.227834 
L 148.866324 131.76764 
L 149.290193 137.136572 
L 149.714062 134.375407 
L 150.13793 138.05696 
L 150.561799 132.381232 
L 150.985668 145.880261 
L 151.409537 149.86861 
L 151.833406 170.270552 
L 152.257275 166.895795 
L 152.681144 166.588999 
L 153.105013 161.066669 
L 153.528881 162.600649 
L 153.95275 148.181232 
L 154.376619 143.57929 
L 154.800488 125.631717 
L 155.224357 128.392882 
L 155.648226 123.177348 
L 156.072095 125.324921 
L 156.495964 119.342397 
L 156.919832 122.410358 
L 157.343701 117.194824 
L 157.76757 121.029775 
L 158.191439 119.649193 
L 158.615308 123.637542 
L 159.039177 124.557931 
L 159.463046 124.557931 
L 159.886915 127.319096 
L 162.430128 169.350164 
L 162.853997 172.111329 
L 163.277866 158.765698 
L 163.701734 158.765698 
L 164.125603 142.8123 
L 164.549472 139.897737 
L 164.973341 132.53463 
L 165.39721 135.449193 
L 165.821079 136.369581 
L 166.668817 130.233659 
L 167.092685 128.086086 
L 167.516554 117.041426 
L 167.940423 110.905504 
L 168.364292 115.200649 
L 168.788161 113.359873 
L 169.21203 113.513271 
L 169.635899 127.319096 
L 170.059767 135.755989 
L 170.483636 139.437542 
L 170.907505 141.278319 
L 171.331374 143.886086 
L 171.755243 154.163756 
L 172.179112 155.390941 
L 172.602981 163.827834 
L 173.02685 163.521038 
L 173.874587 153.550164 
L 174.722325 147.107445 
L 175.146194 143.119096 
L 175.570063 144.192882 
L 175.993932 138.210358 
L 176.417801 139.744339 
L 176.841669 128.699678 
L 177.265538 123.790941 
L 178.113276 104.616183 
L 178.537145 110.445309 
L 178.961014 112.132688 
L 179.384883 123.637542 
L 179.808752 123.02395 
L 180.23262 138.82395 
L 180.656489 138.210358 
L 181.080358 139.744339 
L 181.504227 139.437542 
L 181.928096 146.800649 
L 182.351965 150.482203 
L 182.775834 152.936572 
L 183.199703 154.163756 
L 183.623571 163.060843 
L 184.04744 163.981232 
L 184.471309 162.140455 
L 184.895178 155.084144 
L 185.319047 153.550164 
L 186.166785 141.278319 
L 187.014522 129.926863 
L 187.438391 121.029775 
L 187.86226 108.297737 
L 188.286129 108.144339 
L 188.709998 118.882203 
L 189.133867 118.422008 
L 189.557736 124.711329 
L 189.981605 121.796766 
L 190.405473 131.460843 
L 190.829342 132.381232 
L 191.253211 136.062785 
L 191.67708 129.926863 
L 192.100949 140.818125 
L 192.524818 136.369581 
L 192.948687 152.476377 
L 193.372556 158.919096 
L 193.796424 170.42395 
L 194.220293 169.043368 
L 195.068031 157.691911 
L 195.4919 157.231717 
L 195.915769 144.653076 
L 196.339638 137.750164 
L 196.763506 122.870552 
L 197.187375 129.006475 
L 197.611244 126.091911 
L 198.035113 130.080261 
L 198.458982 117.808416 
L 198.882851 125.785115 
L 199.30672 116.581232 
L 199.730589 123.484144 
L 200.154457 120.109387 
L 200.578326 130.693853 
L 201.002195 123.637542 
L 201.426064 125.785115 
L 201.849933 122.25696 
L 202.273802 142.352106 
L 202.697671 143.57929 
L 203.12154 157.231717 
L 203.545408 153.703562 
L 203.969277 171.190941 
L 204.393146 166.588999 
L 204.817015 169.350164 
L 205.240884 155.697737 
L 205.664753 153.85696 
L 206.088622 135.602591 
L 206.512491 136.676377 
L 206.936359 135.449193 
L 207.360228 145.266669 
L 207.784097 136.216183 
L 208.207966 131.154047 
L 208.631835 119.188999 
L 209.055704 123.330746 
L 209.479573 111.519096 
L 209.903442 119.342397 
L 210.32731 105.536572 
L 210.751179 120.262785 
L 211.175048 119.955989 
L 211.598917 133.761814 
L 212.022786 134.222008 
L 212.446655 145.420067 
L 212.870524 142.658902 
L 213.294393 151.249193 
L 213.718261 150.635601 
L 214.14213 166.742397 
L 214.989868 158.458902 
L 215.413737 146.647251 
L 215.837606 158.765698 
L 216.261475 149.10162 
L 216.685344 153.703562 
L 217.109212 138.670552 
L 217.533081 148.33463 
L 217.95695 137.750164 
L 218.380819 131.460843 
L 218.804688 121.183174 
L 219.228557 122.25696 
L 219.652426 105.383174 
L 220.076295 110.905504 
L 220.500163 108.297737 
L 220.924032 126.245309 
L 221.347901 124.097737 
L 221.77177 131.76764 
L 222.195639 126.245309 
L 222.619508 144.192882 
L 223.043377 136.983174 
L 223.467245 146.187057 
L 223.891114 134.528805 
L 224.314983 149.10162 
L 224.738852 146.493853 
L 225.162721 157.078319 
L 225.58659 154.930746 
L 226.010459 158.919096 
L 226.434328 148.948222 
L 226.858196 145.420067 
L 227.282065 131.614242 
L 227.705934 131.614242 
L 228.129803 118.575407 
L 228.553672 113.359873 
L 228.977541 94.798708 
L 229.40141 96.94628 
L 229.825279 90.043368 
L 230.249147 89.276377 
L 230.673016 88.049193 
L 231.096885 92.651135 
L 231.520754 95.105504 
L 231.944623 95.4123 
L 232.368492 99.400649 
L 232.792361 92.190941 
L 233.21623 94.491911 
L 233.640098 86.361814 
L 234.911705 111.365698 
L 235.335574 113.513271 
L 235.759443 123.944339 
L 236.183312 114.126863 
L 236.607181 115.96764 
L 237.031049 96.792882 
L 237.454918 96.332688 
L 237.878787 82.066669 
L 238.302656 77.771523 
L 238.726525 65.499678 
L 239.150394 73.629775 
L 239.574263 61.971523 
L 239.998132 63.045309 
L 240.422 60.590941 
L 240.845869 60.590941 
L 241.269738 60.897737 
L 241.693607 54.30162 
L 242.117476 56.142397 
L 242.541345 56.142397 
L 242.965214 55.682203 
L 243.389083 52.000649 
L 243.812951 68.260843 
L 244.23682 64.57929 
L 244.660689 81.453076 
L 245.084558 80.072494 
L 245.508427 93.571523 
L 245.932296 88.662785 
L 246.356165 94.798708 
L 246.780034 79.919096 
L 247.203902 78.385115 
L 247.627771 67.954047 
L 248.05164 62.124921 
L 248.475509 63.658902 
L 248.899378 63.045309 
L 249.323247 61.051135 
L 249.747116 60.897737 
L 250.170984 55.682203 
L 250.594853 42.48997 
L 251.018722 43.103562 
L 251.442591 35.893853 
L 251.86646 42.48997 
L 252.290329 34.206475 
L 252.714198 42.48997 
L 253.138067 44.177348 
L 253.561935 57.369581 
L 253.985804 53.381232 
L 254.409673 62.891911 
L 254.833542 65.806475 
L 255.257411 66.573465 
L 255.68128 74.243368 
L 256.105149 71.482203 
L 256.529018 78.845309 
L 256.952886 68.107445 
L 257.376755 72.249193 
L 257.800624 70.408416 
L 258.224493 76.084144 
L 258.648362 65.34628 
L 259.072231 63.658902 
L 259.4961 57.829775 
L 259.919969 58.443368 
L 260.343837 50.006475 
L 260.767706 44.330746 
L 261.191575 31.445309 
L 261.615444 30.218125 
L 262.039313 35.740455 
L 262.463182 42.950164 
L 262.887051 52.614242 
L 263.31092 50.313271 
L 263.734788 53.994824 
L 264.158657 50.006475 
L 264.582526 59.517154 
L 265.006395 53.688028 
L 265.430264 63.8123 
L 265.854133 55.528805 
L 266.278002 73.016183 
L 266.701871 75.62395 
L 267.125739 81.759873 
L 267.549608 81.759873 
L 268.397346 76.084144 
L 268.821215 75.010358 
L 269.245084 60.897737 
L 269.668953 65.806475 
L 270.092822 54.30162 
L 270.51669 48.625892 
L 270.940559 51.387057 
L 271.364428 42.950164 
L 271.788297 47.398708 
L 272.212166 42.48997 
L 272.636035 46.938513 
L 273.059904 46.018125 
L 273.483773 57.522979 
L 273.907641 50.159873 
L 274.33151 64.272494 
L 274.755379 50.620067 
L 275.179248 52.76764 
L 276.026986 62.124921 
L 276.450855 75.930746 
L 277.722461 90.196766 
L 280.265674 58.750164 
L 280.689543 65.806475 
L 281.113412 59.363756 
L 281.537281 58.443368 
L 281.96115 46.631717 
L 282.385019 59.05696 
L 282.808888 51.080261 
L 283.232757 55.528805 
L 283.656625 47.245309 
L 284.080494 56.295795 
L 284.504363 53.688028 
L 285.77597 65.039484 
L 286.199839 68.874436 
L 286.623708 78.691911 
L 287.047576 83.293853 
L 287.471445 97.099678 
L 287.895314 88.049193 
L 288.319183 91.42395 
L 288.743052 82.066669 
L 289.166921 75.930746 
L 290.014659 69.488028 
L 290.438527 69.794824 
L 290.862396 71.788999 
L 291.286265 75.317154 
L 291.710134 68.721038 
L 292.134003 69.488028 
L 292.557872 50.620067 
L 292.981741 51.540455 
L 293.40561 49.239484 
L 293.829478 48.165698 
L 294.253347 54.608416 
L 294.677216 64.272494 
L 295.101085 63.965698 
L 295.524954 77.464727 
L 295.948823 68.874436 
L 296.372692 78.538513 
L 296.796561 71.788999 
L 297.220429 84.060843 
L 297.644298 85.594824 
L 298.068167 91.117154 
L 298.492036 83.600649 
L 298.915905 90.196766 
L 299.339774 84.981232 
L 299.763643 85.594824 
L 300.187512 84.981232 
L 300.61138 87.435601 
L 301.035249 77.618125 
L 301.459118 76.237542 
L 301.882987 69.794824 
L 302.306856 72.095795 
L 302.730725 55.222008 
L 303.154594 51.080261 
L 303.578463 51.693853 
L 304.4262 64.886086 
L 304.850069 66.726863 
L 305.273938 78.845309 
L 305.697807 72.249193 
L 306.121676 74.243368 
L 306.545545 71.482203 
L 306.969413 76.544339 
L 307.393282 76.544339 
L 307.817151 77.618125 
L 308.24102 84.36764 
L 308.664889 98.326863 
L 309.512627 101.548222 
L 309.936496 93.571523 
L 310.360364 89.429775 
L 310.784233 82.987057 
L 311.208102 85.288028 
L 311.631971 71.788999 
L 312.05584 80.686086 
L 312.479709 66.420067 
L 312.903578 69.181232 
L 313.327447 61.818125 
L 313.751315 66.880261 
L 314.175184 65.653076 
L 314.599053 66.880261 
L 315.022922 64.272494 
L 315.446791 75.163756 
L 315.87066 73.629775 
L 316.294529 77.004533 
L 316.718398 68.107445 
L 317.142266 70.10162 
L 317.566135 71.175407 
L 317.990004 91.577348 
L 318.413873 91.730746 
L 318.837742 102.928805 
L 319.261611 98.787057 
L 319.68548 103.235601 
L 320.109349 97.713271 
L 320.533217 96.17929 
L 321.804824 74.85696 
L 322.228693 79.765698 
L 322.652562 78.078319 
L 323.076431 82.680261 
L 323.5003 67.493853 
L 323.924168 71.942397 
L 324.348037 64.57929 
L 324.771906 69.027834 
L 325.195775 71.482203 
L 325.619644 67.340455 
L 326.043513 64.886086 
L 326.467382 68.721038 
L 326.891251 77.157931 
L 327.315119 80.072494 
L 327.738988 86.208416 
L 328.162857 82.066669 
L 329.010595 100.627834 
L 329.434464 101.548222 
L 329.858333 109.985115 
L 330.282202 96.332688 
L 330.70607 94.185115 
L 331.553808 85.90162 
L 331.977677 90.043368 
L 332.401546 83.754047 
L 332.825415 84.827834 
L 333.249284 84.521038 
L 333.673152 82.066669 
L 334.097021 76.697737 
L 334.52089 75.163756 
L 334.944759 57.983174 
L 335.368628 62.124921 
L 335.792497 68.260843 
L 336.216366 69.794824 
L 336.640235 79.919096 
L 337.064103 85.441426 
L 337.487972 84.674436 
L 337.911841 90.196766 
L 338.33571 84.521038 
L 338.759579 98.480261 
L 339.183448 94.031717 
L 339.607317 97.866669 
L 340.031186 95.872494 
L 340.455054 102.315212 
L 340.878923 101.088028 
L 341.302792 102.775407 
L 341.726661 95.565698 
L 342.15053 92.190941 
L 342.574399 94.645309 
L 342.998268 91.884144 
L 343.422137 83.907445 
L 343.846005 80.225892 
L 344.269874 68.56764 
L 344.693743 71.022008 
L 345.117612 61.357931 
L 345.541481 77.924921 
L 345.96535 72.249193 
L 346.389219 78.078319 
L 346.813088 74.550164 
L 347.236956 86.361814 
L 348.084694 85.288028 
L 348.508563 84.060843 
L 348.932432 85.288028 
L 349.356301 83.447251 
L 349.78017 98.787057 
L 350.204039 98.326863 
L 350.627907 105.536572 
L 351.051776 103.388999 
L 351.475645 108.604533 
L 351.899514 99.400649 
L 352.323383 105.076377 
L 352.747252 85.90162 
L 353.171121 90.503562 
L 353.59499 79.458902 
L 354.018858 75.163756 
L 354.442727 80.532688 
L 355.290465 73.783174 
L 355.714334 80.992882 
L 356.138203 71.788999 
L 356.562072 80.072494 
L 356.985941 70.86861 
L 357.409809 78.385115 
L 357.833678 78.385115 
L 358.257547 84.521038 
L 358.681416 78.845309 
L 359.105285 92.190941 
L 359.529154 85.288028 
L 359.953023 96.332688 
L 360.376891 104.155989 
L 360.80076 108.604533 
L 361.224629 109.371523 
L 361.648498 107.070552 
L 362.072367 100.014242 
L 362.496236 103.849193 
L 362.920105 89.122979 
L 363.343974 90.196766 
L 363.767842 80.532688 
L 364.191711 88.509387 
L 364.61558 81.606475 
L 365.039449 84.521038 
L 365.463318 76.544339 
L 365.887187 78.845309 
L 366.311056 71.482203 
L 366.734925 72.555989 
L 367.158793 72.862785 
L 367.582662 74.703562 
L 368.006531 75.010358 
L 368.4304 81.453076 
L 368.854269 83.447251 
L 369.278138 93.571523 
L 369.702007 89.276377 
L 370.125876 99.247251 
L 370.549744 93.878319 
L 370.973613 108.144339 
L 371.397482 103.695795 
L 371.821351 104.462785 
L 372.24522 97.866669 
L 372.669089 95.258902 
L 373.092958 94.645309 
L 373.516827 96.94628 
L 373.940695 89.736572 
L 374.364564 93.571523 
L 375.636171 75.62395 
L 376.06004 81.453076 
L 376.483909 68.874436 
L 376.907778 72.709387 
L 377.331646 65.039484 
L 378.179384 79.6123 
L 378.603253 81.759873 
L 379.027122 90.350164 
L 379.450991 90.810358 
L 379.87486 92.804533 
L 380.298729 96.486086 
L 380.722597 96.17929 
L 381.146466 95.719096 
L 381.570335 96.17929 
L 381.994204 100.781232 
L 382.418073 99.554047 
L 382.841942 111.2123 
L 383.265811 103.695795 
L 383.68968 104.922979 
L 384.113548 93.878319 
L 384.537417 88.662785 
L 384.961286 89.88997 
L 385.385155 82.220067 
L 386.656762 68.107445 
L 387.08063 74.08997 
L 387.504499 77.771523 
L 387.928368 78.385115 
L 388.352237 76.544339 
L 388.776106 83.600649 
L 389.199975 83.907445 
L 389.623844 88.816183 
L 390.047713 88.662785 
L 390.471581 83.140455 
L 390.89545 83.140455 
L 391.319319 89.276377 
L 391.743188 101.088028 
L 392.167057 109.064727 
L 392.590926 110.291911 
L 393.014795 107.070552 
L 393.438664 108.144339 
L 393.862532 103.542397 
L 394.286401 96.486086 
L 394.71027 97.406475 
L 395.134139 78.385115 
L 395.558008 82.680261 
L 395.981877 81.913271 
L 396.405746 80.225892 
L 396.829615 82.680261 
L 397.253483 74.243368 
L 397.677352 78.845309 
L 398.101221 79.152106 
L 398.52509 78.231717 
L 398.948959 78.691911 
L 399.372828 82.373465 
L 399.796697 73.629775 
L 400.644434 88.662785 
L 401.068303 93.111329 
L 401.492172 102.008416 
L 401.916041 101.548222 
L 402.33991 104.922979 
L 402.763779 110.752106 
L 403.187648 106.610358 
L 403.611517 108.297737 
L 404.035385 98.633659 
L 404.883123 90.810358 
L 405.306992 91.42395 
L 405.730861 87.588999 
L 406.15473 89.583174 
L 406.578599 82.066669 
L 407.002468 79.6123 
L 407.426336 80.992882 
L 407.850205 77.157931 
L 408.274074 77.311329 
L 408.697943 74.703562 
L 409.121812 67.647251 
L 409.545681 78.538513 
L 409.96955 77.464727 
L 410.393419 87.282203 
L 410.817287 85.594824 
L 411.241156 95.872494 
L 411.665025 93.878319 
L 412.088894 101.70162 
L 412.512763 102.315212 
L 412.936632 104.616183 
L 413.360501 103.849193 
L 413.78437 100.16764 
L 414.208238 100.321038 
L 414.632107 104.462785 
L 415.055976 97.406475 
L 415.479845 96.486086 
L 415.903714 90.810358 
L 416.327583 95.565698 
L 416.751452 87.742397 
L 417.17532 88.202591 
L 417.599189 75.470552 
L 418.023058 76.237542 
L 418.446927 66.266669 
L 418.870796 70.408416 
L 419.294665 76.697737 
L 419.718534 77.157931 
L 420.142403 81.606475 
L 420.566271 91.577348 
L 420.99014 86.361814 
L 421.414009 95.258902 
L 421.837878 88.969581 
L 422.261747 95.872494 
L 422.685616 92.497737 
L 423.109485 102.46861 
L 423.533354 97.099678 
L 423.957222 108.757931 
L 424.381091 101.855018 
L 424.80496 107.990941 
L 425.228829 104.462785 
L 425.652698 98.633659 
L 426.076567 98.020067 
L 426.924305 85.90162 
L 427.348173 82.833659 
L 427.772042 67.954047 
L 428.195911 74.08997 
L 428.61978 69.027834 
L 429.043649 77.924921 
L 429.467518 78.691911 
L 429.891387 88.662785 
L 430.315256 80.686086 
L 430.739124 86.822008 
L 431.162993 78.691911 
L 431.586862 84.674436 
L 432.010731 83.600649 
L 432.4346 84.214242 
L 432.858469 91.117154 
L 433.282338 104.616183 
L 433.706207 105.68997 
L 434.130075 110.138513 
L 434.553944 107.22395 
L 434.977813 115.660843 
L 435.401682 100.93463 
L 435.825551 104.155989 
L 436.24942 92.651135 
L 436.673289 92.190941 
L 437.097158 82.526863 
L 437.521026 81.759873 
L 437.944895 78.078319 
L 438.368764 84.214242 
L 438.792633 75.163756 
L 439.216502 81.759873 
L 439.640371 77.004533 
L 440.06424 82.220067 
L 440.488109 78.078319 
L 440.911977 81.453076 
L 441.335846 71.482203 
L 441.759715 86.975407 
L 442.183584 78.385115 
L 442.607453 92.037542 
L 443.031322 93.571523 
L 443.455191 104.769581 
L 443.879059 108.911329 
L 444.726797 104.462785 
L 445.150666 110.138513 
L 445.574535 100.16764 
L 445.998404 96.332688 
L 446.422273 88.509387 
L 446.846142 91.270552 
L 447.27001 90.503562 
L 447.693879 96.025892 
L 448.117748 80.839484 
L 448.541617 91.884144 
L 448.965486 75.010358 
L 449.389355 78.078319 
L 449.813224 73.169581 
L 450.237093 74.550164 
L 451.08483 76.237542 
L 451.508699 73.783174 
L 451.932568 89.276377 
L 452.356437 85.594824 
L 452.780306 91.117154 
L 453.204175 88.662785 
L 453.628044 103.388999 
L 454.051912 100.627834 
L 454.475781 113.359873 
L 454.89965 102.315212 
L 455.323519 105.536572 
L 455.747388 96.17929 
L 456.171257 101.394824 
L 456.595126 98.173465 
L 457.018995 101.088028 
L 457.866732 96.025892 
L 458.290601 90.043368 
L 458.71447 88.355989 
L 459.138339 76.851135 
L 459.562208 76.237542 
L 459.986077 59.670552 
L 460.409946 75.777348 
L 460.833814 74.550164 
L 461.257683 82.526863 
L 461.681552 80.992882 
L 462.105421 85.441426 
L 462.52929 84.674436 
L 462.953159 90.196766 
L 463.377028 88.969581 
L 463.800897 94.798708 
L 464.224765 95.872494 
L 464.648634 97.559873 
L 465.072503 100.627834 
L 465.496372 108.297737 
L 465.920241 97.713271 
L 466.34411 113.206475 
L 466.767979 98.940455 
L 467.191848 108.451135 
L 467.615716 97.099678 
L 468.039585 95.719096 
L 468.887323 84.674436 
L 469.311192 70.10162 
L 469.735061 75.470552 
L 470.15893 70.10162 
L 470.582798 77.771523 
L 471.006667 81.299678 
L 471.430536 81.759873 
L 471.854405 82.833659 
L 472.278274 91.42395 
L 472.702143 78.538513 
L 473.126012 89.583174 
L 473.549881 80.532688 
L 474.397618 88.509387 
L 475.245356 108.451135 
L 475.669225 112.899678 
L 476.093094 109.371523 
L 476.516963 109.831717 
L 476.940832 104.462785 
L 477.3647 104.462785 
L 477.788569 94.185115 
L 478.212438 90.196766 
L 478.636307 81.14628 
L 479.060176 91.730746 
L 479.484045 80.072494 
L 479.907914 84.521038 
L 480.331783 76.237542 
L 480.755651 79.152106 
L 481.17952 78.078319 
L 482.451127 81.14628 
L 482.874996 77.924921 
L 483.298865 76.084144 
L 483.722734 80.992882 
L 484.146602 92.497737 
L 484.570471 88.662785 
L 484.99434 101.855018 
L 485.418209 103.388999 
L 485.842078 112.74628 
L 486.265947 108.757931 
L 486.689816 108.757931 
L 487.113685 97.253076 
L 487.537553 98.787057 
L 487.961422 95.105504 
L 488.385291 92.497737 
L 488.80916 96.486086 
L 489.233029 96.792882 
L 489.656898 92.037542 
L 490.080767 88.662785 
L 490.504636 76.697737 
L 490.928504 82.987057 
L 491.352373 73.936572 
L 491.776242 74.243368 
L 492.200111 74.85696 
L 492.62398 73.783174 
L 493.471718 84.521038 
L 493.895587 82.680261 
L 494.319455 85.748222 
L 494.743324 93.878319 
L 495.167193 92.804533 
L 495.591062 103.849193 
L 496.014931 105.996766 
L 496.4388 104.769581 
L 496.862669 106.45696 
L 497.286537 97.099678 
L 497.710406 102.622008 
L 498.134275 100.93463 
L 498.558144 100.474436 
L 498.982013 94.952106 
L 499.405882 96.792882 
L 500.677488 83.600649 
L 501.101357 74.243368 
L 501.525226 71.175407 
L 501.949095 66.880261 
L 502.372964 74.08997 
L 502.796833 75.010358 
L 503.220702 79.152106 
L 503.644571 85.748222 
L 504.068439 89.736572 
L 504.492308 90.963756 
L 504.916177 89.88997 
L 505.340046 91.42395 
L 505.763915 92.344339 
L 506.187784 92.804533 
L 506.611653 104.002591 
L 507.035522 104.155989 
L 507.45939 110.445309 
L 507.883259 106.45696 
L 508.307128 105.536572 
L 508.730997 107.070552 
L 509.154866 100.16764 
L 510.002604 91.730746 
L 510.426473 86.055018 
L 510.850341 84.521038 
L 511.698079 68.721038 
L 512.121948 72.709387 
L 512.545817 81.606475 
L 512.969686 74.703562 
L 513.393555 88.816183 
L 513.817424 80.532688 
L 514.241292 89.583174 
L 514.665161 86.055018 
L 515.08903 79.765698 
L 515.512899 80.839484 
L 515.936768 86.208416 
L 516.360637 90.043368 
L 516.784506 103.235601 
L 517.208375 110.445309 
L 517.632243 114.280261 
L 518.056112 113.666669 
L 518.479981 102.928805 
L 518.90385 99.400649 
L 519.327719 104.002591 
L 519.751588 88.662785 
L 520.175457 89.88997 
L 520.599326 86.66861 
L 521.023194 90.963756 
L 521.447063 87.895795 
L 521.870932 81.453076 
L 522.294801 78.998708 
L 522.71867 80.686086 
L 523.142539 77.157931 
L 523.566408 78.538513 
L 523.990276 77.311329 
L 524.414145 83.754047 
L 524.838014 75.777348 
L 525.261883 84.674436 
L 525.685752 81.299678 
L 526.109621 96.639484 
L 526.53349 96.94628 
L 526.957359 102.775407 
L 527.381227 103.235601 
L 527.805096 111.058902 
L 528.228965 110.752106 
L 528.652834 108.297737 
L 529.076703 102.775407 
L 529.500572 94.338513 
L 529.924441 94.031717 
L 530.34831 92.957931 
L 530.772178 91.117154 
L 531.196047 99.400649 
L 531.619916 86.361814 
L 532.043785 88.355989 
L 532.467654 78.231717 
L 532.891523 78.231717 
L 533.315392 73.016183 
L 533.739261 70.86861 
L 534.163129 61.664727 
L 534.586998 79.919096 
L 535.010867 83.140455 
L 535.434736 90.043368 
L 536.282474 91.42395 
L 536.706343 89.736572 
L 537.130212 96.94628 
L 537.55408 94.185115 
L 537.977949 113.820067 
L 538.401818 99.707445 
L 538.825687 107.377348 
L 539.249556 102.008416 
L 539.673425 107.530746 
L 540.097294 100.627834 
L 540.521163 98.480261 
L 540.945031 91.117154 
L 541.3689 96.17929 
L 541.792769 92.957931 
L 542.216638 90.963756 
L 542.640507 80.992882 
L 543.064376 74.08997 
L 543.488245 64.272494 
L 543.912114 75.930746 
L 544.335982 71.022008 
L 544.759851 87.435601 
L 545.18372 82.220067 
L 545.607589 88.969581 
L 546.031458 87.128805 
L 546.455327 93.418125 
L 547.303065 86.975407 
L 547.726933 87.895795 
L 548.99854 111.672494 
L 549.422409 106.610358 
L 549.846278 108.604533 
L 550.270147 100.93463 
L 550.694016 104.616183 
L 551.117884 94.645309 
L 551.541753 101.241426 
L 551.965622 83.140455 
L 552.389491 84.674436 
L 552.81336 76.390941 
L 553.237229 79.919096 
L 553.661098 77.004533 
L 554.084966 73.169581 
L 554.508835 73.936572 
L 554.932704 84.981232 
L 555.356573 78.231717 
L 555.780442 90.65696 
L 556.204311 80.225892 
L 556.62818 86.208416 
L 557.052049 79.6123 
L 557.475917 85.441426 
L 557.899786 88.969581 
L 558.323655 104.462785 
L 558.747524 100.781232 
L 559.171393 112.74628 
L 559.595262 112.132688 
L 560.019131 111.825892 
L 560.443 109.524921 
L 561.290737 86.361814 
L 561.714606 90.963756 
L 562.138475 83.293853 
L 562.562344 96.94628 
L 562.986213 84.981232 
L 563.410082 89.583174 
L 563.833951 82.373465 
L 564.257819 80.532688 
L 564.681688 73.476377 
L 565.105557 78.691911 
L 565.529426 70.715212 
L 565.953295 74.396766 
L 567.224902 90.503562 
L 568.072639 88.049193 
L 568.496508 100.014242 
L 568.920377 99.860843 
L 569.344246 111.2123 
L 569.768115 105.076377 
L 570.191984 110.905504 
L 570.615853 100.781232 
L 571.039721 100.93463 
L 571.46359 94.491911 
L 571.887459 95.4123 
L 572.311328 93.571523 
L 572.735197 93.264727 
L 573.159066 90.65696 
L 573.582935 94.645309 
L 574.006804 83.447251 
L 574.854541 67.954047 
L 575.27841 70.408416 
L 575.702279 68.107445 
L 576.126148 79.458902 
L 576.550017 79.458902 
L 576.973886 90.503562 
L 577.397755 89.429775 
L 578.245492 96.332688 
L 578.669361 89.276377 
L 579.517099 103.082203 
L 579.940968 99.247251 
L 580.364837 107.22395 
L 580.788705 103.542397 
L 581.212574 105.843368 
L 581.636443 101.855018 
L 582.060312 103.082203 
L 582.484181 94.491911 
L 582.90805 99.707445 
L 583.331919 85.13463 
L 583.755788 89.429775 
L 584.179656 84.36764 
L 584.603525 73.169581 
L 585.027394 74.396766 
L 585.451263 71.175407 
L 585.875132 72.095795 
L 586.299001 80.072494 
L 586.72287 80.992882 
L 587.146739 86.975407 
L 587.570607 84.981232 
L 587.994476 86.975407 
L 588.418345 90.503562 
L 588.842214 92.957931 
L 589.266083 87.435601 
L 590.113821 98.940455 
L 590.53769 107.837542 
L 590.961558 114.280261 
L 591.385427 108.604533 
L 591.809296 110.598708 
L 592.233165 107.070552 
L 592.657034 96.332688 
L 593.080903 95.258902 
L 593.504772 87.742397 
L 593.928641 87.895795 
L 594.352509 77.311329 
L 594.776378 79.152106 
L 595.624116 79.765698 
L 596.471854 75.470552 
L 596.895723 80.072494 
L 597.319592 80.839484 
L 597.74346 86.515212 
L 598.167329 82.833659 
L 598.591198 84.521038 
L 599.015067 82.987057 
L 599.438936 87.742397 
L 600.710543 112.286086 
L 601.134411 106.610358 
L 601.55828 110.598708 
L 601.982149 106.45696 
L 602.406018 105.383174 
L 602.829887 96.94628 
L 603.253756 84.214242 
L 603.677625 83.754047 
L 604.101494 89.736572 
L 604.525362 90.810358 
L 604.949231 86.515212 
L 605.3731 84.521038 
L 605.796969 77.771523 
L 606.220838 76.237542 
L 606.644707 76.851135 
L 607.068576 73.783174 
L 607.492444 75.317154 
L 607.916313 73.936572 
L 608.340182 76.390941 
L 608.764051 89.276377 
L 609.18792 87.742397 
L 609.611789 99.093853 
L 610.035658 93.571523 
L 610.883395 106.303562 
L 611.307264 108.144339 
L 611.731133 103.542397 
L 612.155002 102.315212 
L 612.578871 98.633659 
L 613.00274 99.093853 
L 613.426609 103.082203 
L 613.850478 97.406475 
L 614.698215 91.270552 
L 615.122084 84.981232 
L 615.545953 86.822008 
L 615.969822 76.851135 
L 616.393691 77.924921 
L 616.81756 67.954047 
L 617.241429 71.788999 
L 617.665297 70.715212 
L 618.089166 80.532688 
L 619.784642 92.190941 
L 620.208511 92.037542 
L 620.63238 99.400649 
L 621.056248 92.497737 
L 621.480117 95.719096 
L 621.903986 96.639484 
L 622.327855 107.070552 
L 622.751724 106.150164 
L 623.175593 111.97929 
L 623.599462 103.235601 
L 624.023331 103.082203 
L 624.871068 88.509387 
L 625.294937 91.117154 
L 625.718806 82.220067 
L 626.142675 77.004533 
L 626.566544 77.157931 
L 626.990413 70.561814 
L 627.414282 83.600649 
L 627.83815 73.476377 
L 628.262019 77.157931 
L 628.685888 77.771523 
L 629.109757 90.043368 
L 629.533626 85.90162 
L 629.957495 93.264727 
L 630.381364 82.680261 
L 630.805233 92.037542 
L 631.229101 92.957931 
L 631.65297 95.872494 
L 632.076839 106.610358 
L 632.500708 109.831717 
L 632.924577 107.377348 
L 633.348446 111.97929 
L 633.772315 105.68997 
L 634.196183 107.377348 
L 634.620052 94.031717 
L 635.043921 89.583174 
L 635.46779 78.078319 
L 635.891659 86.515212 
L 636.315528 78.231717 
L 636.739397 81.453076 
L 637.163266 75.163756 
L 637.587134 82.220067 
L 638.011003 83.447251 
L 638.434872 81.606475 
L 638.858741 78.231717 
L 639.28261 88.049193 
L 639.706479 81.606475 
L 640.130348 85.748222 
L 640.554217 81.913271 
L 640.978085 101.088028 
L 641.401954 98.787057 
L 641.825823 111.2123 
L 642.249692 104.616183 
L 642.673561 122.25696 
L 643.521299 117.655018 
L 644.369036 109.678319 
L 644.792905 104.769581 
L 645.216774 105.229775 
L 645.640643 100.474436 
L 646.064512 105.383174 
L 646.488381 105.383174 
L 646.91225 104.002591 
L 647.336119 96.94628 
L 647.759987 104.922979 
L 648.183856 94.798708 
L 648.607725 100.321038 
L 649.031594 91.884144 
L 649.455463 94.645309 
L 649.879332 105.843368 
L 650.303201 106.610358 
L 651.150938 123.02395 
L 651.574807 127.932688 
L 652.422545 134.682203 
L 652.846414 135.449193 
L 653.270283 147.56764 
L 654.118021 136.983174 
L 654.541889 138.05696 
L 654.965758 140.971523 
L 655.389627 137.750164 
L 655.813496 137.750164 
L 656.237365 129.926863 
L 656.661234 140.204533 
L 657.085103 127.77929 
L 657.508972 127.77929 
L 657.93284 117.961814 
L 658.356709 120.262785 
L 658.780578 114.433659 
L 659.204447 121.48997 
L 659.628316 121.48997 
L 660.476054 140.204533 
L 660.899922 138.517154 
L 661.323791 145.420067 
L 661.74766 141.278319 
L 662.171529 148.948222 
L 662.595398 148.488028 
L 663.019267 154.777348 
L 663.443136 155.697737 
L 663.867005 166.282203 
L 664.290873 165.822008 
L 664.714742 163.214242 
L 665.138611 162.293853 
L 665.56248 162.600649 
L 665.986349 154.62395 
L 666.410218 152.169581 
L 666.834087 146.800649 
L 667.257956 149.86861 
L 667.681824 139.284144 
L 668.105693 137.28997 
L 668.529562 130.387057 
L 668.953431 138.670552 
L 669.3773 138.977348 
L 669.801169 141.124921 
L 670.225038 146.800649 
L 670.648907 142.198708 
L 671.072775 153.85696 
L 671.496644 149.408416 
L 671.920513 157.845309 
L 672.344382 148.027834 
L 672.768251 159.686086 
L 673.19212 162.754047 
L 673.615989 173.491911 
L 674.039858 178.093853 
L 674.463726 184.996766 
L 674.887595 184.383174 
L 675.311464 171.957931 
L 675.735333 169.963756 
L 676.159202 163.36764 
L 676.583071 160.606475 
L 677.00694 153.243368 
L 677.430809 151.709387 
L 677.854677 149.561814 
L 678.278546 152.936572 
L 679.550153 141.431717 
L 679.974022 150.635601 
L 680.397891 146.493853 
L 680.82176 155.237542 
L 681.245628 144.959873 
L 681.669497 158.152106 
L 682.093366 149.561814 
L 682.517235 162.907445 
L 682.941104 159.072494 
L 683.364973 174.872494 
L 683.788842 177.940455 
L 684.212711 183.922979 
L 684.636579 186.530746 
L 685.060448 183.155989 
L 685.484317 188.218125 
L 685.908186 170.270552 
L 686.332055 167.355989 
L 686.755924 156.004533 
L 687.179793 162.754047 
L 687.603661 164.13463 
L 688.02753 163.981232 
L 688.451399 157.078319 
L 688.875268 160.14628 
L 689.299137 147.260843 
L 689.723006 144.806475 
L 690.146875 138.05696 
L 690.570744 144.653076 
L 690.994612 139.130746 
L 691.418481 149.10162 
L 691.84235 150.482203 
L 692.266219 167.662785 
L 692.690088 160.606475 
L 693.113957 169.963756 
L 693.537826 167.049193 
L 693.961695 176.713271 
L 694.385563 182.235601 
L 694.809432 184.996766 
L 695.233301 184.996766 
L 695.65717 175.332688 
L 696.081039 180.241426 
L 696.504908 169.196766 
L 696.928777 175.17929 
L 697.352646 165.515212 
L 697.776514 169.043368 
L 698.200383 161.526863 
L 698.624252 158.458902 
L 699.048121 151.862785 
L 699.47199 153.550164 
L 699.895859 134.835601 
L 700.319728 136.216183 
L 700.743597 132.227834 
L 701.167465 150.022008 
L 701.591334 148.488028 
L 702.015203 157.998708 
L 702.439072 153.243368 
L 702.862941 166.128805 
L 703.28681 155.851135 
L 703.710679 167.509387 
L 704.134548 164.441426 
L 704.558416 171.957931 
L 704.982285 173.798708 
L 705.830023 186.837542 
L 706.253892 183.922979 
L 706.677761 179.93463 
L 707.10163 170.42395 
L 707.525499 169.503562 
L 707.949367 162.140455 
L 708.373236 163.214242 
L 708.797105 155.390941 
L 709.220974 145.266669 
L 709.644843 138.670552 
L 710.068712 138.210358 
L 710.492581 135.449193 
L 710.91645 139.897737 
L 711.340318 136.983174 
L 711.764187 147.56764 
L 712.188056 146.647251 
L 712.611925 153.703562 
L 713.035794 151.095795 
L 713.459663 158.919096 
L 713.883532 146.340455 
L 714.307401 155.851135 
L 714.731269 158.458902 
L 715.155138 179.627834 
L 715.579007 183.155989 
L 716.002876 184.076377 
L 716.426745 180.241426 
L 716.850614 179.93463 
L 717.274483 169.963756 
L 717.698351 168.122979 
L 718.12222 149.408416 
L 718.546089 149.86861 
L 718.969958 142.198708 
L 719.393827 152.016183 
L 719.817696 140.971523 
L 720.241565 145.880261 
L 720.665434 132.841426 
L 721.089302 137.28997 
L 721.513171 131.154047 
L 721.93704 140.204533 
L 722.360909 136.983174 
L 722.360909 136.983174 
" style="fill:none;stroke:#446485;stroke-linecap:round;stroke-width:0.8;"/>
   </g>
   <g id="patch_3">
    <path d="M 46.31125 196.118125 
L 46.31125 22.318125 
" style="fill:none;stroke:#cccccc;stroke-linecap:square;stroke-linejoin:miter;stroke-width:1.25;"/>
   </g>
   <g id="patch_4">
    <path d="M 754.55375 196.118125 
L 754.55375 22.318125 
" style="fill:none;stroke:#cccccc;stroke-linecap:square;stroke-linejoin:miter;stroke-width:1.25;"/>
   </g>
   <g id="patch_5">
    <path d="M 46.31125 196.118125 
L 754.55375 196.118125 
" style="fill:none;stroke:#cccccc;stroke-linecap:square;stroke-linejoin:miter;stroke-width:1.25;"/>
   </g>
   <g id="patch_6">
    <path d="M 46.31125 22.318125 
L 754.55375 22.318125 
" style="fill:none;stroke:#cccccc;stroke-linecap:square;stroke-linejoin:miter;stroke-width:1.25;"/>
   </g>
   <g id="text_11">
    <!-- Time Domain -->
    <defs>
     <path d="M 19.671875 64.796875 
L 19.671875 8.109375 
L 31.59375 8.109375 
Q 46.6875 8.109375 53.6875 14.9375 
Q 60.6875 21.78125 60.6875 36.53125 
Q 60.6875 51.171875 53.6875 57.984375 
Q 46.6875 64.796875 31.59375 64.796875 
z
M 9.8125 72.90625 
L 30.078125 72.90625 
Q 51.265625 72.90625 61.171875 64.09375 
Q 71.09375 55.28125 71.09375 36.53125 
Q 71.09375 17.671875 61.125 8.828125 
Q 51.171875 0 30.078125 0 
L 9.8125 0 
z
" id="DejaVuSans-68"/>
     <path d="M 34.28125 27.484375 
Q 23.390625 27.484375 19.1875 25 
Q 14.984375 22.515625 14.984375 16.5 
Q 14.984375 11.71875 18.140625 8.90625 
Q 21.296875 6.109375 26.703125 6.109375 
Q 34.1875 6.109375 38.703125 11.40625 
Q 43.21875 16.703125 43.21875 25.484375 
L 43.21875 27.484375 
z
M 52.203125 31.203125 
L 52.203125 0 
L 43.21875 0 
L 43.21875 8.296875 
Q 40.140625 3.328125 35.546875 0.953125 
Q 30.953125 -1.421875 24.3125 -1.421875 
Q 15.921875 -1.421875 10.953125 3.296875 
Q 6 8.015625 6 15.921875 
Q 6 25.140625 12.171875 29.828125 
Q 18.359375 34.515625 30.609375 34.515625 
L 43.21875 34.515625 
L 43.21875 35.40625 
Q 43.21875 41.609375 39.140625 45 
Q 35.0625 48.390625 27.6875 48.390625 
Q 23 48.390625 18.546875 47.265625 
Q 14.109375 46.140625 10.015625 43.890625 
L 10.015625 52.203125 
Q 14.9375 54.109375 19.578125 55.046875 
Q 24.21875 56 28.609375 56 
Q 40.484375 56 46.34375 49.84375 
Q 52.203125 43.703125 52.203125 31.203125 
z
" id="DejaVuSans-97"/>
    </defs>
    <g style="fill:#262626;" transform="translate(360.37875 16.318125)scale(0.12 -0.12)">
     <use xlink:href="#DejaVuSans-84"/>
     <use x="61.037109" xlink:href="#DejaVuSans-105"/>
     <use x="88.820312" xlink:href="#DejaVuSans-109"/>
     <use x="186.232422" xlink:href="#DejaVuSans-101"/>
     <use x="247.755859" xlink:href="#DejaVuSans-32"/>
     <use x="279.542969" xlink:href="#DejaVuSans-68"/>
     <use x="356.544922" xlink:href="#DejaVuSans-111"/>
     <use x="417.726562" xlink:href="#DejaVuSans-109"/>
     <use x="515.138672" xlink:href="#DejaVuSans-97"/>
     <use x="576.417969" xlink:href="#DejaVuSans-105"/>
     <use x="604.201172" xlink:href="#DejaVuSans-110"/>
    </g>
   </g>
  </g>
  <g id="axes_2">
   <g id="patch_7">
    <path d="M 46.31125 454.118125 
L 754.55375 454.118125 
L 754.55375 280.318125 
L 46.31125 280.318125 
z
" style="fill:#ffffff;"/>
   </g>
   <g id="matplotlib.axis_3">
    <g id="xtick_9">
     <g id="text_12">
      <!-- 0 -->
      <g style="fill:#262626;" transform="translate(75.004716 471.976406)scale(0.11 -0.11)">
       <use xlink:href="#DejaVuSans-48"/>
      </g>
     </g>
    </g>
    <g id="xtick_10">
     <g id="text_13">
      <!-- 100 -->
      <g style="fill:#262626;" transform="translate(196.77733 471.976406)scale(0.11 -0.11)">
       <use xlink:href="#DejaVuSans-49"/>
       <use x="63.623047" xlink:href="#DejaVuSans-48"/>
       <use x="127.246094" xlink:href="#DejaVuSans-48"/>
      </g>
     </g>
    </g>
    <g id="xtick_11">
     <g id="text_14">
      <!-- 200 -->
      <g style="fill:#262626;" transform="translate(325.548693 471.976406)scale(0.11 -0.11)">
       <use xlink:href="#DejaVuSans-50"/>
       <use x="63.623047" xlink:href="#DejaVuSans-48"/>
       <use x="127.246094" xlink:href="#DejaVuSans-48"/>
      </g>
     </g>
    </g>
    <g id="xtick_12">
     <g id="text_15">
      <!-- 300 -->
      <defs>
       <path d="M 40.578125 39.3125 
Q 47.65625 37.796875 51.625 33 
Q 55.609375 28.21875 55.609375 21.1875 
Q 55.609375 10.40625 48.1875 4.484375 
Q 40.765625 -1.421875 27.09375 -1.421875 
Q 22.515625 -1.421875 17.65625 -0.515625 
Q 12.796875 0.390625 7.625 2.203125 
L 7.625 11.71875 
Q 11.71875 9.328125 16.59375 8.109375 
Q 21.484375 6.890625 26.8125 6.890625 
Q 36.078125 6.890625 40.9375 10.546875 
Q 45.796875 14.203125 45.796875 21.1875 
Q 45.796875 27.640625 41.28125 31.265625 
Q 36.765625 34.90625 28.71875 34.90625 
L 20.21875 34.90625 
L 20.21875 43.015625 
L 29.109375 43.015625 
Q 36.375 43.015625 40.234375 45.921875 
Q 44.09375 48.828125 44.09375 54.296875 
Q 44.09375 59.90625 40.109375 62.90625 
Q 36.140625 65.921875 28.71875 65.921875 
Q 24.65625 65.921875 20.015625 65.03125 
Q 15.375 64.15625 9.8125 62.3125 
L 9.8125 71.09375 
Q 15.4375 72.65625 20.34375 73.4375 
Q 25.25 74.21875 29.59375 74.21875 
Q 40.828125 74.21875 47.359375 69.109375 
Q 53.90625 64.015625 53.90625 55.328125 
Q 53.90625 49.265625 50.4375 45.09375 
Q 46.96875 40.921875 40.578125 39.3125 
z
" id="DejaVuSans-51"/>
      </defs>
      <g style="fill:#262626;" transform="translate(454.320057 471.976406)scale(0.11 -0.11)">
       <use xlink:href="#DejaVuSans-51"/>
       <use x="63.623047" xlink:href="#DejaVuSans-48"/>
       <use x="127.246094" xlink:href="#DejaVuSans-48"/>
      </g>
     </g>
    </g>
    <g id="xtick_13">
     <g id="text_16">
      <!-- 400 -->
      <g style="fill:#262626;" transform="translate(583.09142 471.976406)scale(0.11 -0.11)">
       <use xlink:href="#DejaVuSans-52"/>
       <use x="63.623047" xlink:href="#DejaVuSans-48"/>
       <use x="127.246094" xlink:href="#DejaVuSans-48"/>
      </g>
     </g>
    </g>
    <g id="xtick_14">
     <g id="text_17">
      <!-- 500 -->
      <defs>
       <path d="M 10.796875 72.90625 
L 49.515625 72.90625 
L 49.515625 64.59375 
L 19.828125 64.59375 
L 19.828125 46.734375 
Q 21.96875 47.46875 24.109375 47.828125 
Q 26.265625 48.1875 28.421875 48.1875 
Q 40.625 48.1875 47.75 41.5 
Q 54.890625 34.8125 54.890625 23.390625 
Q 54.890625 11.625 47.5625 5.09375 
Q 40.234375 -1.421875 26.90625 -1.421875 
Q 22.3125 -1.421875 17.546875 -0.640625 
Q 12.796875 0.140625 7.71875 1.703125 
L 7.71875 11.625 
Q 12.109375 9.234375 16.796875 8.0625 
Q 21.484375 6.890625 26.703125 6.890625 
Q 35.15625 6.890625 40.078125 11.328125 
Q 45.015625 15.765625 45.015625 23.390625 
Q 45.015625 31 40.078125 35.4375 
Q 35.15625 39.890625 26.703125 39.890625 
Q 22.75 39.890625 18.8125 39.015625 
Q 14.890625 38.140625 10.796875 36.28125 
z
" id="DejaVuSans-53"/>
      </defs>
      <g style="fill:#262626;" transform="translate(711.862784 471.976406)scale(0.11 -0.11)">
       <use xlink:href="#DejaVuSans-53"/>
       <use x="63.623047" xlink:href="#DejaVuSans-48"/>
       <use x="127.246094" xlink:href="#DejaVuSans-48"/>
      </g>
     </g>
    </g>
    <g id="text_18">
     <!-- Frequency (Hz) -->
     <defs>
      <path d="M 9.8125 72.90625 
L 51.703125 72.90625 
L 51.703125 64.59375 
L 19.671875 64.59375 
L 19.671875 43.109375 
L 48.578125 43.109375 
L 48.578125 34.8125 
L 19.671875 34.8125 
L 19.671875 0 
L 9.8125 0 
z
" id="DejaVuSans-70"/>
      <path d="M 14.796875 27.296875 
Q 14.796875 17.390625 18.875 11.75 
Q 22.953125 6.109375 30.078125 6.109375 
Q 37.203125 6.109375 41.296875 11.75 
Q 45.40625 17.390625 45.40625 27.296875 
Q 45.40625 37.203125 41.296875 42.84375 
Q 37.203125 48.484375 30.078125 48.484375 
Q 22.953125 48.484375 18.875 42.84375 
Q 14.796875 37.203125 14.796875 27.296875 
z
M 45.40625 8.203125 
Q 42.578125 3.328125 38.25 0.953125 
Q 33.9375 -1.421875 27.875 -1.421875 
Q 17.96875 -1.421875 11.734375 6.484375 
Q 5.515625 14.40625 5.515625 27.296875 
Q 5.515625 40.1875 11.734375 48.09375 
Q 17.96875 56 27.875 56 
Q 33.9375 56 38.25 53.625 
Q 42.578125 51.265625 45.40625 46.390625 
L 45.40625 54.6875 
L 54.390625 54.6875 
L 54.390625 -20.796875 
L 45.40625 -20.796875 
z
" id="DejaVuSans-113"/>
      <path d="M 32.171875 -5.078125 
Q 28.375 -14.84375 24.75 -17.8125 
Q 21.140625 -20.796875 15.09375 -20.796875 
L 7.90625 -20.796875 
L 7.90625 -13.28125 
L 13.1875 -13.28125 
Q 16.890625 -13.28125 18.9375 -11.515625 
Q 21 -9.765625 23.484375 -3.21875 
L 25.09375 0.875 
L 2.984375 54.6875 
L 12.5 54.6875 
L 29.59375 11.921875 
L 46.6875 54.6875 
L 56.203125 54.6875 
z
" id="DejaVuSans-121"/>
      <path d="M 9.8125 72.90625 
L 19.671875 72.90625 
L 19.671875 43.015625 
L 55.515625 43.015625 
L 55.515625 72.90625 
L 65.375 72.90625 
L 65.375 0 
L 55.515625 0 
L 55.515625 34.71875 
L 19.671875 34.71875 
L 19.671875 0 
L 9.8125 0 
z
" id="DejaVuSans-72"/>
      <path d="M 5.515625 54.6875 
L 48.1875 54.6875 
L 48.1875 46.484375 
L 14.40625 7.171875 
L 48.1875 7.171875 
L 48.1875 0 
L 4.296875 0 
L 4.296875 8.203125 
L 38.09375 47.515625 
L 5.515625 47.515625 
z
" id="DejaVuSans-122"/>
     </defs>
     <g style="fill:#262626;" transform="translate(354.625313 487.382187)scale(0.12 -0.12)">
      <use xlink:href="#DejaVuSans-70"/>
      <use x="57.410156" xlink:href="#DejaVuSans-114"/>
      <use x="98.492188" xlink:href="#DejaVuSans-101"/>
      <use x="160.015625" xlink:href="#DejaVuSans-113"/>
      <use x="223.492188" xlink:href="#DejaVuSans-117"/>
      <use x="286.871094" xlink:href="#DejaVuSans-101"/>
      <use x="348.394531" xlink:href="#DejaVuSans-110"/>
      <use x="411.773438" xlink:href="#DejaVuSans-99"/>
      <use x="466.753906" xlink:href="#DejaVuSans-121"/>
      <use x="525.933594" xlink:href="#DejaVuSans-32"/>
      <use x="557.720703" xlink:href="#DejaVuSans-40"/>
      <use x="596.734375" xlink:href="#DejaVuSans-72"/>
      <use x="671.929688" xlink:href="#DejaVuSans-122"/>
      <use x="724.419922" xlink:href="#DejaVuSans-41"/>
     </g>
    </g>
   </g>
   <g id="matplotlib.axis_4">
    <g id="ytick_7">
     <g id="text_19">
      <!-- 0 -->
      <g style="fill:#262626;" transform="translate(29.8125 450.397526)scale(0.11 -0.11)">
       <use xlink:href="#DejaVuSans-48"/>
      </g>
     </g>
    </g>
    <g id="ytick_8">
     <g id="text_20">
      <!-- 20 -->
      <g style="fill:#262626;" transform="translate(22.81375 416.572197)scale(0.11 -0.11)">
       <use xlink:href="#DejaVuSans-50"/>
       <use x="63.623047" xlink:href="#DejaVuSans-48"/>
      </g>
     </g>
    </g>
    <g id="ytick_9">
     <g id="text_21">
      <!-- 40 -->
      <g style="fill:#262626;" transform="translate(22.81375 382.746867)scale(0.11 -0.11)">
       <use xlink:href="#DejaVuSans-52"/>
       <use x="63.623047" xlink:href="#DejaVuSans-48"/>
      </g>
     </g>
    </g>
    <g id="ytick_10">
     <g id="text_22">
      <!-- 60 -->
      <g style="fill:#262626;" transform="translate(22.81375 348.921538)scale(0.11 -0.11)">
       <use xlink:href="#DejaVuSans-54"/>
       <use x="63.623047" xlink:href="#DejaVuSans-48"/>
      </g>
     </g>
    </g>
    <g id="ytick_11">
     <g id="text_23">
      <!-- 80 -->
      <g style="fill:#262626;" transform="translate(22.81375 315.096208)scale(0.11 -0.11)">
       <use xlink:href="#DejaVuSans-56"/>
       <use x="63.623047" xlink:href="#DejaVuSans-48"/>
      </g>
     </g>
    </g>
    <g id="text_24">
     <!-- Current Magnitude -->
     <defs>
      <path d="M 9.8125 72.90625 
L 24.515625 72.90625 
L 43.109375 23.296875 
L 61.8125 72.90625 
L 76.515625 72.90625 
L 76.515625 0 
L 66.890625 0 
L 66.890625 64.015625 
L 48.09375 14.015625 
L 38.1875 14.015625 
L 19.390625 64.015625 
L 19.390625 0 
L 9.8125 0 
z
" id="DejaVuSans-77"/>
      <path d="M 45.40625 27.984375 
Q 45.40625 37.75 41.375 43.109375 
Q 37.359375 48.484375 30.078125 48.484375 
Q 22.859375 48.484375 18.828125 43.109375 
Q 14.796875 37.75 14.796875 27.984375 
Q 14.796875 18.265625 18.828125 12.890625 
Q 22.859375 7.515625 30.078125 7.515625 
Q 37.359375 7.515625 41.375 12.890625 
Q 45.40625 18.265625 45.40625 27.984375 
z
M 54.390625 6.78125 
Q 54.390625 -7.171875 48.1875 -13.984375 
Q 42 -20.796875 29.203125 -20.796875 
Q 24.46875 -20.796875 20.265625 -20.09375 
Q 16.0625 -19.390625 12.109375 -17.921875 
L 12.109375 -9.1875 
Q 16.0625 -11.328125 19.921875 -12.34375 
Q 23.78125 -13.375 27.78125 -13.375 
Q 36.625 -13.375 41.015625 -8.765625 
Q 45.40625 -4.15625 45.40625 5.171875 
L 45.40625 9.625 
Q 42.625 4.78125 38.28125 2.390625 
Q 33.9375 0 27.875 0 
Q 17.828125 0 11.671875 7.65625 
Q 5.515625 15.328125 5.515625 27.984375 
Q 5.515625 40.671875 11.671875 48.328125 
Q 17.828125 56 27.875 56 
Q 33.9375 56 38.28125 53.609375 
Q 42.625 51.21875 45.40625 46.390625 
L 45.40625 54.6875 
L 54.390625 54.6875 
z
" id="DejaVuSans-103"/>
     </defs>
     <g style="fill:#262626;" transform="translate(16.318125 423.681875)rotate(-90)scale(0.12 -0.12)">
      <use xlink:href="#DejaVuSans-67"/>
      <use x="69.824219" xlink:href="#DejaVuSans-117"/>
      <use x="133.203125" xlink:href="#DejaVuSans-114"/>
      <use x="174.300781" xlink:href="#DejaVuSans-114"/>
      <use x="215.382812" xlink:href="#DejaVuSans-101"/>
      <use x="276.90625" xlink:href="#DejaVuSans-110"/>
      <use x="340.285156" xlink:href="#DejaVuSans-116"/>
      <use x="379.494141" xlink:href="#DejaVuSans-32"/>
      <use x="411.28125" xlink:href="#DejaVuSans-77"/>
      <use x="497.560547" xlink:href="#DejaVuSans-97"/>
      <use x="558.839844" xlink:href="#DejaVuSans-103"/>
      <use x="622.316406" xlink:href="#DejaVuSans-110"/>
      <use x="685.695312" xlink:href="#DejaVuSans-105"/>
      <use x="713.478516" xlink:href="#DejaVuSans-116"/>
      <use x="752.6875" xlink:href="#DejaVuSans-117"/>
      <use x="816.066406" xlink:href="#DejaVuSans-100"/>
      <use x="879.542969" xlink:href="#DejaVuSans-101"/>
     </g>
    </g>
   </g>
   <g id="line2d_2">
    <path clip-path="url(#p1b0469f524)" d="M 78.504091 288.218125 
L 79.352387 300.08814 
L 80.200683 431.21512 
L 81.04898 426.815282 
L 81.897276 387.098098 
L 82.745572 392.419276 
L 83.593868 442.496542 
L 84.442164 440.616686 
L 85.290461 388.171088 
L 86.138757 415.444583 
L 86.987053 436.006471 
L 87.835349 441.963662 
L 88.683645 422.336427 
L 89.531942 420.689446 
L 90.380238 443.824972 
L 91.228534 440.9177 
L 92.07683 432.583595 
L 92.925126 432.966212 
L 93.773423 445.251457 
L 94.621719 440.735207 
L 95.470015 433.343524 
L 97.166607 443.95001 
L 98.014904 444.640012 
L 98.8632 437.856751 
L 99.711496 440.532107 
L 100.559792 441.221358 
L 101.408088 443.513288 
L 102.256385 443.572864 
L 103.104681 441.595964 
L 103.952977 443.569437 
L 104.801273 442.129503 
L 105.649569 443.689544 
L 106.497866 444.447011 
L 107.346162 443.354843 
L 108.194458 443.292011 
L 109.042754 444.096156 
L 109.89105 445.692626 
L 110.739347 444.012226 
L 111.587643 444.679197 
L 112.435939 445.121474 
L 113.284235 446.1242 
L 114.132531 443.440988 
L 114.980828 444.147999 
L 115.829124 445.2261 
L 116.67742 445.991899 
L 117.525716 444.596431 
L 118.374012 444.200009 
L 119.222309 446.152474 
L 120.070605 445.969017 
L 120.918901 444.924656 
L 121.767197 445.370226 
L 122.615493 445.512606 
L 123.46379 445.257181 
L 124.312086 445.815983 
L 125.160382 445.715942 
L 126.008678 445.399193 
L 126.856974 445.321111 
L 127.705271 445.072096 
L 128.553567 445.375935 
L 129.401863 444.759625 
L 130.250159 446.205232 
L 131.946752 445.955354 
L 132.795048 446.00362 
L 133.643344 445.099554 
L 134.49164 445.832817 
L 135.339937 445.893181 
L 136.188233 444.604149 
L 137.036529 446.204115 
L 137.884825 445.693062 
L 138.733121 444.892848 
L 139.581418 445.764772 
L 140.429714 444.919121 
L 141.27801 445.596369 
L 142.126306 446.076103 
L 142.974602 446.120117 
L 143.822899 445.708936 
L 144.671195 445.815236 
L 145.519491 446.121377 
L 146.367787 445.73728 
L 147.216083 446.06056 
L 148.912676 445.904615 
L 149.760972 445.533297 
L 150.609268 446.165138 
L 151.457564 445.593192 
L 152.305861 445.952057 
L 153.154157 445.90463 
L 154.002453 446.172466 
L 154.850749 445.803504 
L 156.547342 445.646848 
L 157.395638 446.118416 
L 158.243934 445.571137 
L 159.09223 445.920662 
L 159.940526 445.646056 
L 160.788823 445.939656 
L 161.637119 445.853637 
L 163.333711 446.105182 
L 164.182007 445.780509 
L 165.030304 445.661101 
L 165.8786 446.022388 
L 166.726896 445.291806 
L 167.575192 445.584355 
L 168.423488 445.572641 
L 169.271785 446.069144 
L 170.120081 446.20852 
L 170.968377 445.540005 
L 171.816673 445.189778 
L 172.664969 445.650755 
L 173.513266 445.348186 
L 174.361562 445.349429 
L 175.209858 444.754705 
L 176.058154 445.835994 
L 176.90645 445.499524 
L 177.754747 443.131438 
L 178.603043 445.389748 
L 179.451339 444.163839 
L 180.299635 445.942258 
L 181.147931 445.246313 
L 181.996228 383.215729 
L 182.844524 434.241135 
L 183.69282 358.907539 
L 184.541116 442.78464 
L 185.389413 432.517839 
L 186.237709 443.292021 
L 187.086005 445.722014 
L 187.934301 446.001667 
L 188.782597 445.509188 
L 189.630894 445.315201 
L 190.47919 445.738264 
L 191.327486 445.666813 
L 192.175782 444.47691 
L 193.024078 445.786511 
L 193.872375 445.929722 
L 194.720671 445.923555 
L 195.568967 445.796294 
L 196.417263 446.108249 
L 198.113856 445.983769 
L 198.962152 445.558749 
L 199.810448 445.936745 
L 200.658744 445.527061 
L 201.50704 445.945498 
L 202.355337 446.025726 
L 203.203633 445.751279 
L 204.051929 446.144545 
L 204.900225 446.05232 
L 205.748521 445.528162 
L 206.596818 445.682068 
L 207.445114 446.077736 
L 208.29341 445.43301 
L 209.141706 446.090774 
L 209.990002 446.059904 
L 210.838299 445.766995 
L 211.686595 446.200204 
L 212.534891 446.076577 
L 213.383187 445.424866 
L 214.231483 445.354168 
L 215.07978 445.65338 
L 215.928076 445.445899 
L 216.776372 446.112341 
L 217.624668 445.355112 
L 218.472964 445.961689 
L 219.321261 446.141611 
L 220.169557 446.095786 
L 221.866149 446.157847 
L 223.562742 445.793466 
L 224.411038 446.131903 
L 228.652519 445.991747 
L 229.500815 446.145823 
L 232.894 446.132411 
L 234.590592 445.656716 
L 236.287185 446.044035 
L 237.135481 445.572182 
L 237.983777 445.844893 
L 238.832073 445.583848 
L 239.68037 445.029323 
L 240.528666 445.740255 
L 241.376962 445.585438 
L 242.225258 446.205232 
L 243.073554 446.169007 
L 244.770147 445.88782 
L 245.618443 446.216138 
L 246.466739 445.978138 
L 247.315035 446.200371 
L 248.163332 446.099593 
L 249.859924 446.166486 
L 250.70822 445.791172 
L 251.556516 446.018974 
L 253.253109 446.042086 
L 254.101405 445.960997 
L 254.949701 446.107339 
L 255.797997 445.759832 
L 257.49459 446.086786 
L 258.342886 445.839831 
L 259.191182 446.134209 
L 260.039478 445.863957 
L 260.887775 445.834347 
L 261.736071 446.194901 
L 262.584367 446.109314 
L 265.129256 446.184031 
L 265.977552 446.086642 
L 266.825848 446.218125 
L 267.674144 445.984134 
L 269.370737 446.196691 
L 271.067329 446.11167 
L 272.763921 446.192836 
L 273.612218 446.09223 
L 274.460514 445.855646 
L 275.30881 445.909323 
L 276.157106 446.118891 
L 277.005402 446.185067 
L 277.853699 445.906732 
L 278.701995 446.01808 
L 279.550291 445.919026 
L 280.398587 446.187129 
L 281.246883 445.847335 
L 282.09518 445.906071 
L 282.943476 445.685526 
L 283.791772 446.049582 
L 284.640068 444.96309 
L 285.488364 444.661583 
L 286.336661 438.821395 
L 287.184957 444.107105 
L 288.033253 440.661925 
L 288.881549 445.574774 
L 289.729845 445.873571 
L 291.426438 446.139342 
L 292.274734 445.318123 
L 293.12303 446.156495 
L 293.971327 445.149183 
L 294.819623 446.206148 
L 298.212808 445.93396 
L 299.061104 445.580579 
L 300.757696 446.026159 
L 301.605992 445.828794 
L 302.454289 446.026071 
L 303.302585 446.010885 
L 304.150881 445.489919 
L 304.999177 445.89047 
L 305.847473 445.98886 
L 307.544066 445.792413 
L 308.392362 444.780868 
L 309.240658 445.409285 
L 310.088954 444.807989 
L 310.937251 445.664429 
L 311.785547 443.881601 
L 312.633843 445.182154 
L 313.482139 428.396231 
L 314.330435 432.162277 
L 315.178732 430.272388 
L 316.027028 430.427584 
L 316.875324 444.726463 
L 317.72362 444.945686 
L 318.571916 445.75748 
L 319.420213 445.651557 
L 321.116805 445.906228 
L 322.813397 445.637423 
L 323.661694 445.976801 
L 324.50999 445.72837 
L 325.358286 446.128533 
L 326.206582 445.966182 
L 327.054878 446.12682 
L 328.751471 446.061851 
L 329.599767 445.677412 
L 330.448063 445.701397 
L 331.296359 446.144406 
L 332.992952 446.025677 
L 333.841248 445.606194 
L 334.689544 446.177484 
L 335.53784 445.585825 
L 336.386137 445.32748 
L 337.234433 444.366831 
L 338.082729 445.734352 
L 338.931025 442.365898 
L 339.779321 446.044493 
L 340.627618 444.211686 
L 341.475914 445.762072 
L 342.32421 446.037982 
L 343.172506 445.751626 
L 344.020802 446.130033 
L 344.869099 446.148868 
L 346.565691 445.896397 
L 347.413987 446.012129 
L 349.11058 445.907668 
L 349.958876 446.127384 
L 350.807172 445.947149 
L 352.503765 446.101909 
L 353.352061 445.893797 
L 354.200357 445.964809 
L 355.048653 445.790286 
L 355.896949 446.21156 
L 356.745246 445.67934 
L 357.593542 446.159787 
L 358.441838 445.817253 
L 359.290134 446.147204 
L 360.986727 446.042785 
L 361.835023 446.203061 
L 362.683319 446.087532 
L 363.531615 445.691007 
L 364.379911 445.679463 
L 365.228208 445.995373 
L 366.9248 446.170759 
L 367.773096 445.99039 
L 368.621392 446.144754 
L 369.469689 446.052425 
L 370.317985 445.550069 
L 371.166281 446.199821 
L 372.014577 446.210039 
L 373.71117 446.002468 
L 374.559466 446.162711 
L 376.256058 445.776086 
L 377.104354 446.053519 
L 377.952651 445.910299 
L 378.800947 446.073527 
L 379.649243 445.923997 
L 380.497539 445.903817 
L 381.345835 445.550443 
L 382.194132 446.191677 
L 384.73902 444.349132 
L 385.587316 445.874675 
L 386.435613 439.793649 
L 387.283909 444.132634 
L 388.132205 440.743876 
L 389.828797 444.873141 
L 390.677094 445.18846 
L 391.52539 436.061647 
L 392.373686 436.635307 
L 394.070278 443.23061 
L 394.918575 445.726723 
L 395.766871 445.925247 
L 396.615167 445.92125 
L 397.463463 445.371026 
L 398.311759 445.779384 
L 399.160056 445.332332 
L 400.008352 444.436786 
L 400.856648 443.915113 
L 401.704944 445.241541 
L 402.553241 445.282013 
L 403.401537 446.075688 
L 404.249833 445.97553 
L 405.946425 446.184593 
L 406.794722 446.162804 
L 407.643018 445.834699 
L 408.491314 446.172756 
L 413.581091 445.957217 
L 414.429387 446.163354 
L 415.277684 446.017076 
L 416.12598 446.215357 
L 416.974276 445.717448 
L 417.822572 445.930931 
L 418.670868 445.643304 
L 419.519165 446.182044 
L 424.608942 445.917008 
L 425.457238 446.118909 
L 426.305534 445.942517 
L 427.15383 445.059997 
L 428.002127 443.669026 
L 428.850423 443.865512 
L 429.698719 444.743208 
L 430.547015 443.52487 
L 431.395311 446.093418 
L 432.243608 444.938771 
L 433.091904 445.420819 
L 433.9402 445.731961 
L 434.788496 445.2555 
L 435.636792 446.214009 
L 436.485089 445.417822 
L 437.333385 446.104846 
L 438.181681 445.568918 
L 439.878273 446.140224 
L 440.72657 445.518803 
L 441.574866 445.485281 
L 442.423162 446.146367 
L 443.271458 445.270328 
L 444.968051 446.207076 
L 445.816347 445.991536 
L 446.664643 445.613499 
L 447.512939 446.091416 
L 448.361235 445.686384 
L 449.209532 445.716627 
L 450.057828 446.06056 
L 450.906124 445.789742 
L 451.75442 446.058259 
L 452.602716 445.997448 
L 453.451013 445.820778 
L 454.299309 446.101272 
L 455.147605 445.849616 
L 455.995901 446.169088 
L 456.844198 446.126935 
L 457.692494 445.840267 
L 458.54079 445.899693 
L 459.389086 445.496659 
L 460.237382 446.141413 
L 461.085679 445.871426 
L 461.933975 445.892132 
L 462.782271 445.720397 
L 463.630567 446.115201 
L 464.478863 445.789629 
L 465.32716 445.780626 
L 466.175456 445.981547 
L 467.023752 446.047761 
L 467.872048 445.838245 
L 468.720344 445.869918 
L 469.568641 446.175057 
L 470.416937 446.053908 
L 471.265233 445.808895 
L 472.113529 446.00847 
L 472.961825 446.035927 
L 473.810122 445.880813 
L 474.658418 446.023456 
L 476.35501 445.943738 
L 477.203306 445.860815 
L 479.748195 446.162581 
L 480.596491 445.863682 
L 481.444787 445.979255 
L 482.293084 445.676585 
L 483.14138 445.819865 
L 483.989676 446.135277 
L 484.837972 445.93868 
L 485.686268 446.163788 
L 486.534565 446.040404 
L 487.382861 446.188459 
L 488.231157 445.429534 
L 489.079453 445.919862 
L 489.927749 444.88277 
L 490.776046 445.841557 
L 491.624342 445.216457 
L 492.472638 446.028293 
L 493.320934 445.91119 
L 495.865823 445.97658 
L 496.714119 445.732932 
L 497.562415 445.698288 
L 498.410711 446.125414 
L 499.259008 445.881034 
L 500.107304 446.191033 
L 500.9556 446.146229 
L 501.803896 445.903685 
L 502.652192 446.116571 
L 503.500489 445.636628 
L 504.348785 446.008082 
L 505.197081 445.5987 
L 506.045377 446.112409 
L 506.893673 445.722425 
L 508.590266 446.051276 
L 509.438562 446.063014 
L 510.286858 446.200209 
L 511.983451 445.922688 
L 512.831747 446.007396 
L 513.680043 445.665308 
L 514.528339 446.037926 
L 515.376636 446.174804 
L 517.073228 445.899636 
L 518.76982 446.153871 
L 519.618117 446.163566 
L 521.314709 446.030961 
L 522.163005 446.029443 
L 523.011301 445.861889 
L 523.859598 446.071679 
L 524.707894 445.950205 
L 526.404486 446.182694 
L 527.252782 445.966082 
L 528.101079 446.057948 
L 528.949375 446.013465 
L 529.797671 446.095967 
L 530.645967 446.055114 
L 531.494263 446.179541 
L 532.34256 445.986694 
L 533.190856 446.118653 
L 534.039152 446.116656 
L 534.887448 445.952899 
L 535.735744 445.930536 
L 536.584041 446.17626 
L 537.432337 446.107567 
L 538.280633 446.180104 
L 539.128929 446.108901 
L 539.977225 445.826887 
L 540.825522 445.956723 
L 541.673818 445.881392 
L 542.522114 446.026088 
L 543.37041 445.857487 
L 544.218706 445.968832 
L 545.067003 445.786347 
L 546.763595 446.213309 
L 548.460187 445.96826 
L 549.308484 445.079051 
L 550.15678 443.041412 
L 551.005076 444.551242 
L 551.853372 437.909156 
L 552.701668 445.843501 
L 553.549965 442.88646 
L 554.398261 446.213678 
L 555.246557 446.017917 
L 556.094853 445.592212 
L 557.791446 445.460664 
L 559.488038 446.216748 
L 560.336334 445.650641 
L 561.18463 444.900719 
L 562.032927 446.035274 
L 562.881223 445.975168 
L 563.729519 445.667478 
L 564.577815 444.323468 
L 565.426112 443.532912 
L 566.274408 445.927619 
L 567.122704 440.83043 
L 567.971 445.236126 
L 568.819296 442.593082 
L 569.667593 442.829287 
L 570.515889 445.756282 
L 571.364185 443.700126 
L 572.212481 445.158633 
L 573.060777 445.945574 
L 573.909074 445.822527 
L 574.75737 445.963054 
L 575.605666 445.512151 
L 576.453962 445.971963 
L 577.302258 445.726087 
L 578.998851 446.109767 
L 579.847147 446.055786 
L 580.695443 445.791543 
L 581.543739 446.204848 
L 582.392036 446.039073 
L 583.240332 446.014071 
L 584.088628 446.125525 
L 584.936924 446.011189 
L 585.78522 446.217688 
L 586.633517 446.126894 
L 588.330109 446.103492 
L 589.178405 445.873443 
L 590.026701 445.960515 
L 590.874998 445.776805 
L 591.723294 445.937575 
L 594.268182 445.909743 
L 595.116479 446.215039 
L 595.964775 445.7872 
L 596.813071 446.21415 
L 598.509663 446.021617 
L 599.35796 445.683117 
L 600.206256 446.181881 
L 601.054552 443.39749 
L 601.902848 446.120214 
L 602.751144 442.934596 
L 603.599441 446.163048 
L 604.447737 445.400029 
L 605.296033 446.07224 
L 606.144329 446.198923 
L 607.840922 445.833704 
L 608.689218 445.739921 
L 609.537514 446.008946 
L 610.38581 445.898117 
L 613.778995 445.991791 
L 617.17218 446.138424 
L 618.020476 445.853311 
L 618.868772 446.058288 
L 620.565365 445.899106 
L 621.413661 446.117877 
L 622.261957 445.885535 
L 623.110253 446.031018 
L 623.95855 445.770187 
L 624.806846 445.862032 
L 625.655142 446.121904 
L 626.503438 445.948097 
L 627.351734 445.651814 
L 628.200031 445.900118 
L 629.048327 445.794893 
L 629.896623 446.100255 
L 631.593215 446.019517 
L 632.441512 446.105709 
L 636.682993 446.039016 
L 637.531289 446.007131 
L 638.379585 446.214591 
L 640.076177 445.98042 
L 640.924474 446.198922 
L 641.77277 445.988215 
L 642.621066 446.208999 
L 643.469362 445.956726 
L 644.317658 446.176942 
L 645.165955 445.977999 
L 646.014251 446.017875 
L 646.862547 445.84158 
L 647.710843 446.021573 
L 650.255732 445.991622 
L 654.497213 445.924091 
L 655.345509 446.141348 
L 657.042101 446.173342 
L 657.890398 445.996697 
L 658.738694 446.214014 
L 659.58699 446.010419 
L 660.435286 446.001707 
L 661.283582 446.189077 
L 662.980175 446.133788 
L 663.828471 445.800549 
L 664.676767 446.073361 
L 665.525063 445.917798 
L 666.37336 446.070703 
L 668.069952 446.026115 
L 668.918248 445.930417 
L 669.766544 446.090067 
L 670.614841 446.004022 
L 673.159729 446.123944 
L 675.704618 445.809967 
L 676.552914 446.123073 
L 677.40121 445.981623 
L 678.249507 446.148218 
L 679.097803 446.119347 
L 679.946099 445.954297 
L 680.794395 446.194253 
L 681.642691 446.161438 
L 682.490988 445.75995 
L 683.339284 446.133196 
L 684.18758 445.872803 
L 685.035876 446.083904 
L 685.884172 446.082533 
L 686.732469 446.214654 
L 687.580765 445.844854 
L 688.429061 446.193026 
L 689.277357 445.632889 
L 690.125653 445.742899 
L 690.97395 445.707177 
L 691.822246 445.92734 
L 692.670542 445.862422 
L 693.518838 446.194149 
L 694.367134 445.495632 
L 695.215431 446.091358 
L 696.063727 444.314906 
L 696.912023 445.237838 
L 697.760319 443.13535 
L 698.608615 445.634234 
L 699.456912 445.656497 
L 700.305208 446.206746 
L 701.153504 445.569038 
L 702.0018 445.567918 
L 702.850096 444.868189 
L 703.698393 446.030788 
L 704.546689 445.244155 
L 705.394985 445.553663 
L 706.243281 445.378286 
L 707.091577 445.653918 
L 707.939874 445.544618 
L 708.78817 446.082331 
L 709.636466 446.204027 
L 710.484762 445.798458 
L 711.333058 446.199192 
L 712.181355 444.77455 
L 713.029651 445.267148 
L 713.877947 445.0668 
L 714.726243 446.199475 
L 716.422836 444.783036 
L 717.271132 445.568945 
L 718.119428 445.793564 
L 718.967724 446.191717 
L 721.512613 446.074718 
L 722.360909 445.074667 
L 722.360909 445.074667 
" style="fill:none;stroke:#446485;stroke-linecap:round;stroke-width:0.8;"/>
   </g>
   <g id="patch_8">
    <path d="M 46.31125 454.118125 
L 46.31125 280.318125 
" style="fill:none;stroke:#cccccc;stroke-linecap:square;stroke-linejoin:miter;stroke-width:1.25;"/>
   </g>
   <g id="patch_9">
    <path d="M 754.55375 454.118125 
L 754.55375 280.318125 
" style="fill:none;stroke:#cccccc;stroke-linecap:square;stroke-linejoin:miter;stroke-width:1.25;"/>
   </g>
   <g id="patch_10">
    <path d="M 46.31125 454.118125 
L 754.55375 454.118125 
" style="fill:none;stroke:#cccccc;stroke-linecap:square;stroke-linejoin:miter;stroke-width:1.25;"/>
   </g>
   <g id="patch_11">
    <path d="M 46.31125 280.318125 
L 754.55375 280.318125 
" style="fill:none;stroke:#cccccc;stroke-linecap:square;stroke-linejoin:miter;stroke-width:1.25;"/>
   </g>
   <g id="text_25">
    <!-- Frequency Domain -->
    <g style="fill:#262626;" transform="translate(343.686563 274.318125)scale(0.12 -0.12)">
     <use xlink:href="#DejaVuSans-70"/>
     <use x="57.410156" xlink:href="#DejaVuSans-114"/>
     <use x="98.492188" xlink:href="#DejaVuSans-101"/>
     <use x="160.015625" xlink:href="#DejaVuSans-113"/>
     <use x="223.492188" xlink:href="#DejaVuSans-117"/>
     <use x="286.871094" xlink:href="#DejaVuSans-101"/>
     <use x="348.394531" xlink:href="#DejaVuSans-110"/>
     <use x="411.773438" xlink:href="#DejaVuSans-99"/>
     <use x="466.753906" xlink:href="#DejaVuSans-121"/>
     <use x="525.933594" xlink:href="#DejaVuSans-32"/>
     <use x="557.720703" xlink:href="#DejaVuSans-68"/>
     <use x="634.722656" xlink:href="#DejaVuSans-111"/>
     <use x="695.904297" xlink:href="#DejaVuSans-109"/>
     <use x="793.316406" xlink:href="#DejaVuSans-97"/>
     <use x="854.595703" xlink:href="#DejaVuSans-105"/>
     <use x="882.378906" xlink:href="#DejaVuSans-110"/>
    </g>
   </g>
  </g>
 </g>
 <defs>
  <clipPath id="p33a75dbfbe">
   <rect height="173.8" width="708.2425" x="46.31125" y="22.318125"/>
  </clipPath>
  <clipPath id="p1b0469f524">
   <rect height="173.8" width="708.2425" x="46.31125" y="280.318125"/>
  </clipPath>
 </defs>
</svg>
